mtllib struct_floor_curved.mtl
o struct_floor_curved
g struct_floor_curved
v -0.19098301 0.00000000 -0.45105652
v 0.08778525 0.00000000 -0.30901699
v 0.08778525 -0.20000000 -0.30901699
v -0.19098301 -0.20000000 -0.45105652
v -0.50000000 0.00000000 0.50000000
v 0.50000000 0.00000000 0.50000000
v 0.45105652 0.00000000 0.19098301
v 0.30901699 0.00000000 -0.08778525
v -0.50000000 0.00000000 -0.50000000
v -0.50000000 -0.20000000 0.50000000
v 0.50000000 -0.20000000 0.50000000
v -0.50000000 -0.20000000 -0.50000000
v 0.45105652 -0.20000000 0.19098301
v 0.30901699 -0.20000000 -0.08778525
vt 0.00000000 1.00000000
vt 0.00000000 0.00000000
vt 1.00000000 0.00000000
vt 1.00000000 1.00000000
vt 0.00000000 1.00000000
vt 0.00000000 0.00000000
vt 0.30901699 0.04894348
vt 0.58778525 0.19098301
vt 0.80901699 0.41221475
vt 0.95105652 0.69098301
vt 1.00000000 1.00000000
vt 0.00000000 1.00000000
vt 0.00000000 0.00000000
vt 1.00000000 0.00000000
vt 1.00000000 1.00000000
vt 0.00000000 1.00000000
vt 0.00000000 0.00000000
vt 1.00000000 0.00000000
vt 1.00000000 1.00000000
vt 0.00000000 1.00000000
vt 0.00000000 0.00000000
vt 1.00000000 0.00000000
vt 1.00000000 1.00000000
vt 0.00000000 1.00000000
vt 0.00000000 0.00000000
vt 1.00000000 0.00000000
vt 1.00000000 1.00000000
vt 0.00000000 1.00000000
vt 0.00000000 0.00000000
vt 1.00000000 0.00000000
vt 1.00000000 1.00000000
vt 0.00000000 1.00000000
vt 0.00000000 0.00000000
vt 0.30901699 0.04894348
vt 0.58778525 0.19098301
vt 0.80901699 0.41221475
vt 0.95105652 0.69098301
vt 1.00000000 1.00000000
vt 0.00000000 1.00000000
vt 0.00000000 0.00000000
vt 1.00000000 0.00000000
vt 1.00000000 1.00000000
vn 0.45399050 0.00000000 -0.89100652
vn 0.45399050 0.00000000 -0.89100652
vn 0.45399050 0.00000000 -0.89100652
vn 0.45399050 0.00000000 -0.89100652
vn 0.00000000 1.00000000 0.00000000
vn 0.00000000 1.00000000 0.00000000
vn 0.00000000 1.00000000 0.00000000
vn 0.00000000 1.00000000 0.00000000
vn 0.00000000 1.00000000 0.00000000
vn 0.00000000 1.00000000 0.00000000
vn 0.00000000 1.00000000 0.00000000
vn 0.00000000 0.00000000 1.00000000
vn 0.00000000 0.00000000 1.00000000
vn 0.00000000 0.00000000 1.00000000
vn 0.00000000 0.00000000 1.00000000
vn -1.00000000 0.00000000 0.00000000
vn -1.00000000 0.00000000 0.00000000
vn -1.00000000 0.00000000 0.00000000
vn -1.00000000 0.00000000 0.00000000
vn 0.89100652 0.00000000 -0.45399050
vn 0.89100652 0.00000000 -0.45399050
vn 0.89100652 0.00000000 -0.45399050
vn 0.89100652 0.00000000 -0.45399050
vn 0.98768834 0.00000000 -0.15643447
vn 0.98768834 0.00000000 -0.15643447
vn 0.98768834 0.00000000 -0.15643447
vn 0.98768834 0.00000000 -0.15643447
vn 0.15643447 0.00000000 -0.98768834
vn 0.15643447 0.00000000 -0.98768834
vn 0.15643447 0.00000000 -0.98768834
vn 0.15643447 0.00000000 -0.98768834
vn 0.00000000 -1.00000000 0.00000000
vn 0.00000000 -1.00000000 0.00000000
vn 0.00000000 -1.00000000 0.00000000
vn 0.00000000 -1.00000000 0.00000000
vn 0.00000000 -1.00000000 0.00000000
vn 0.00000000 -1.00000000 0.00000000
vn 0.00000000 -1.00000000 0.00000000
vn 0.70710678 0.00000000 -0.70710678
vn 0.70710678 0.00000000 -0.70710678
vn 0.70710678 0.00000000 -0.70710678
vn 0.70710678 0.00000000 -0.70710678
s 1
usemtl Dark_Grey
f 1/1/1 2/2/2 4/4/4
f 2/2/2 3/3/3 4/4/4
s 2
f 5/5/5 6/6/6 7/7/7
f 5/5/5 1/10/10 9/11/11
f 5/5/5 2/9/9 1/10/10
f 5/5/5 8/8/8 2/9/9
f 5/5/5 7/7/7 8/8/8
s 3
f 6/12/12 5/13/13 11/15/15
f 5/13/13 10/14/14 11/15/15
s 4
f 5/16/16 9/17/17 10/19/19
f 9/17/17 12/18/18 10/19/19
s 5
f 8/20/20 7/21/21 14/23/23
f 7/21/21 13/22/22 14/23/23
s 6
f 7/24/24 6/25/25 13/27/27
f 6/25/25 11/26/26 13/27/27
s 7
f 9/28/28 1/29/29 12/31/31
f 1/29/29 4/30/30 12/31/31
s 8
f 13/34/34 11/33/33 10/32/32
f 12/38/38 4/37/37 10/32/32
f 4/37/37 3/36/36 10/32/32
f 3/36/36 14/35/35 10/32/32
f 14/35/35 13/34/34 10/32/32
s 9
f 2/39/39 8/40/40 3/42/42
f 8/40/40 14/41/41 3/42/42

