mtllib struct_large_straight_wall_incline.mtl
o struct_large_straight_wall_incline
g struct_large_straight_wall_incline
v 1.15000000 0.00000000 -0.50000000
v 1.15000000 -0.00000000 0.50000000
v 1.15000000 1.00000000 -0.50000000
v 1.15000000 1.05000000 -0.50000000
v 0.95000000 0.00000000 -0.50000000
v 0.95000000 1.00000000 -0.50000000
v 0.95000000 1.05000000 -0.50000000
v 1.00000000 1.10000000 -0.50000000
v 1.10000000 1.10000000 -0.50000000
v 1.10000000 0.10000000 0.50000000
v 1.15000000 0.05000000 0.50000000
v 0.95000000 -0.00000000 0.50000000
v 0.95000000 0.05000000 0.50000000
v 1.00000000 0.10000000 0.50000000
vt 1.00000000 1.00000000
vt 0.00000000 1.00000000
vt 1.00000000 0.00000000
vt 1.00000000 0.04545455
vt 1.00000000 0.09090909
vt 1.00000000 1.00000000
vt 0.00000000 1.00000000
vt 0.00000000 0.09090909
vt 0.00000000 0.04545455
vt 0.25000000 0.00000000
vt 0.75000000 0.00000000
vt 0.00000000 0.00000000
vt 1.00000000 0.00000000
vt 1.00000000 1.00000000
vt 0.00000000 1.00000000
vt 0.50000000 1.00000000
vt 0.00000000 1.00000000
vt 0.00000000 0.00000000
vt 0.50000000 0.00000000
vt 1.00000000 0.25000000
vt 1.00000000 0.75000000
vt 0.00000000 0.00000000
vt 1.00000000 0.00000000
vt 1.00000000 1.00000000
vt 0.00000000 1.00000000
vt 0.00000000 0.00000000
vt 1.00000000 0.00000000
vt 1.00000000 1.00000000
vt 0.00000000 1.00000000
vt 0.00000000 0.00000000
vt 1.00000000 0.00000000
vt 1.00000000 1.00000000
vt 0.00000000 1.00000000
vt 1.00000000 1.00000000
vt 0.00000000 1.00000000
vt 1.00000000 0.00000000
vt 0.00000000 0.00000000
vt 1.00000000 0.00000000
vt 1.00000000 1.00000000
vt 0.00000000 1.00000000
vt 0.00000000 0.00000000
vt 1.00000000 0.00000000
vt 1.00000000 1.00000000
vt 0.00000000 1.00000000
vn 1.00000000 0.00000000 0.00000000
vn 1.00000000 0.00000000 0.00000000
vn 1.00000000 0.00000000 0.00000000
vn 0.00000000 0.00000000 -1.00000000
vn 0.00000000 0.00000000 -1.00000000
vn 0.00000000 0.00000000 -1.00000000
vn 0.00000000 0.00000000 -1.00000000
vn 0.00000000 0.00000000 -1.00000000
vn 0.00000000 0.00000000 -1.00000000
vn 0.00000000 0.00000000 -1.00000000
vn 0.00000000 0.00000000 -1.00000000
vn 0.57735027 0.57735027 0.57735027
vn 0.57735027 0.57735027 0.57735027
vn 0.57735027 0.57735027 0.57735027
vn 0.57735027 0.57735027 0.57735027
vn 0.00000000 0.00000000 1.00000000
vn 0.00000000 0.00000000 1.00000000
vn 0.00000000 0.00000000 1.00000000
vn 0.00000000 0.00000000 1.00000000
vn 0.00000000 0.00000000 1.00000000
vn 0.00000000 0.00000000 1.00000000
vn 0.00000000 0.70710678 0.70710678
vn 0.00000000 0.70710678 0.70710678
vn 0.00000000 0.70710678 0.70710678
vn 0.00000000 0.70710678 0.70710678
vn -0.57735027 0.57735027 0.57735027
vn -0.57735027 0.57735027 0.57735027
vn -0.57735027 0.57735027 0.57735027
vn -0.57735027 0.57735027 0.57735027
vn -1.00000000 0.00000000 0.00000000
vn -1.00000000 0.00000000 0.00000000
vn -1.00000000 0.00000000 0.00000000
vn -1.00000000 0.00000000 0.00000000
vn -1.00000000 0.00000000 0.00000000
vn 0.00000000 -1.00000000 -0.00000000
vn 0.00000000 -1.00000000 -0.00000000
vn 0.00000000 -1.00000000 -0.00000000
vn 0.00000000 -1.00000000 -0.00000000
vn 1.00000000 0.00000000 0.00000000
vn 1.00000000 0.00000000 0.00000000
s 1
usemtl Grey
f 3/3/3 2/2/2 1/1/1
f 3/43/3 4/42/40 11/41/39
f 2/44/2 3/43/3 11/41/39
s 2
f 6/8/8 7/9/9 8/10/10
f 1/6/6 5/7/7 6/8/8
f 6/8/8 3/5/5 1/6/6
f 9/11/11 4/4/4 3/5/5
f 6/8/8 9/11/11 3/5/5
f 6/8/8 8/10/10 9/11/11
s 3
f 11/15/15 4/14/14 10/12/12
f 4/14/14 9/13/13 10/12/12
s 4
f 14/20/20 13/19/19 12/18/18
f 10/21/21 12/18/18 2/17/17
f 2/17/17 11/16/16 10/21/21
f 10/21/21 14/20/20 12/18/18
s 5
f 10/25/25 9/24/24 14/22/22
f 9/24/24 8/23/23 14/22/22
s 6
f 14/29/29 8/28/28 7/27/27
f 14/29/29 7/27/27 13/26/26
s 7
f 13/33/33 7/32/32 6/31/31
f 5/34/34 12/35/30 6/36/31
f 13/33/33 6/31/31 12/30/30
s 8
f 5/37/35 1/38/36 2/39/37
f 5/37/35 2/39/37 12/40/38
o struct_large_straight_wall_incline_2
g struct_large_straight_wall_incline_2
v 0.05000000 0.05000000 0.50000000
v 0.05000000 -0.00000000 0.50000000
v -0.15000000 -0.00000000 0.50000000
v -0.15000000 0.05000000 0.50000000
v -0.10000000 0.10000000 0.50000000
v 0.00000000 0.10000000 0.50000000
v -0.15000000 1.00000000 -0.50000000
v -0.15000000 1.05000000 -0.50000000
v -0.15000000 0.00000000 -0.50000000
v 0.05000000 1.05000000 -0.50000000
v 0.05000000 1.00000000 -0.50000000
v 0.05000000 0.00000000 -0.50000000
v -0.10000000 1.10000000 -0.50000000
v 0.00000000 1.10000000 -0.50000000
vt 0.50000000 1.00000000
vt 0.00000000 1.00000000
vt 0.00000000 0.00000000
vt 0.50000000 0.00000000
vt 1.00000000 0.25000000
vt 1.00000000 0.75000000
vt 0.00000000 0.00000000
vt 1.00000000 0.00000000
vt 1.00000000 1.00000000
vt 0.00000000 1.00000000
vt 1.00000000 1.00000000
vt 0.00000000 1.00000000
vt 1.00000000 0.00000000
vt 1.00000000 0.04545455
vt 1.00000000 0.09090909
vt 1.00000000 1.00000000
vt 0.00000000 1.00000000
vt 0.00000000 0.09090909
vt 0.00000000 0.04545455
vt 0.25000000 0.00000000
vt 0.75000000 0.00000000
vt 1.00000000 1.00000000
vt 0.00000000 1.00000000
vt 1.00000000 0.00000000
vt 0.00000000 0.00000000
vt 1.00000000 0.00000000
vt 1.00000000 1.00000000
vt 0.00000000 1.00000000
vt 0.00000000 0.00000000
vt 1.00000000 0.00000000
vt 1.00000000 1.00000000
vt 0.00000000 1.00000000
vt 0.00000000 0.00000000
vt 1.00000000 0.00000000
vt 1.00000000 1.00000000
vt 0.00000000 1.00000000
vt 0.00000000 0.00000000
vt 1.00000000 0.00000000
vt 1.00000000 1.00000000
vt 0.00000000 1.00000000
vt 0.00000000 0.00000000
vt 1.00000000 0.00000000
vt 1.00000000 1.00000000
vt 0.00000000 1.00000000
vn 0.00000000 0.00000000 1.00000000
vn 0.00000000 0.00000000 1.00000000
vn 0.00000000 0.00000000 1.00000000
vn 0.00000000 0.00000000 1.00000000
vn 0.00000000 0.00000000 1.00000000
vn 0.00000000 0.00000000 1.00000000
vn -1.00000000 -0.00000000 -0.00000000
vn -1.00000000 -0.00000000 -0.00000000
vn -1.00000000 -0.00000000 -0.00000000
vn -1.00000000 -0.00000000 -0.00000000
vn -1.00000000 0.00000000 0.00000000
vn 0.00000000 0.00000000 -1.00000000
vn 0.00000000 0.00000000 -1.00000000
vn 0.00000000 0.00000000 -1.00000000
vn 0.00000000 0.00000000 -1.00000000
vn 0.00000000 0.00000000 -1.00000000
vn 0.00000000 0.00000000 -1.00000000
vn 0.00000000 0.00000000 -1.00000000
vn 0.00000000 0.00000000 -1.00000000
vn 1.00000000 0.00000000 0.00000000
vn 1.00000000 0.00000000 0.00000000
vn 1.00000000 0.00000000 0.00000000
vn -0.57735027 0.57735027 0.57735027
vn -0.57735027 0.57735027 0.57735027
vn -0.57735027 0.57735027 0.57735027
vn -0.57735027 0.57735027 0.57735027
vn 0.00000000 0.70710678 0.70710678
vn 0.00000000 0.70710678 0.70710678
vn 0.00000000 0.70710678 0.70710678
vn 0.00000000 0.70710678 0.70710678
vn 0.57735027 0.57735027 0.57735027
vn 0.57735027 0.57735027 0.57735027
vn 0.57735027 0.57735027 0.57735027
vn 0.57735027 0.57735027 0.57735027
vn 1.00000000 0.00000000 0.00000000
vn 1.00000000 0.00000000 0.00000000
vn 0.00000000 -1.00000000 -0.00000000
vn 0.00000000 -1.00000000 -0.00000000
vn 0.00000000 -1.00000000 -0.00000000
vn 0.00000000 -1.00000000 -0.00000000
s 1
usemtl Grey
f 16/46/42 15/45/41 20/50/46
f 19/49/45 17/47/43 16/46/42
f 19/49/45 18/48/44 17/47/43
f 16/46/42 20/50/46 19/49/45
s 2
f 18/54/50 22/53/49 21/52/48
f 23/55/51 17/56/47 21/57/48
f 18/54/50 21/52/48 17/51/47
s 3
f 28/65/59 24/58/52 25/59/53
f 21/62/56 25/59/53 26/60/54
f 26/60/54 23/61/55 21/62/56
f 21/62/56 22/63/57 27/64/58
f 21/62/56 27/64/58 25/59/53
f 27/64/58 28/65/59 25/59/53
s 4
f 25/68/62 16/67/61 26/66/60
f 25/83/62 24/82/76 15/81/75
f 16/84/61 25/83/62 15/81/75
s 5
f 19/72/66 27/71/65 22/70/64
f 19/72/66 22/70/64 18/69/63
s 6
f 20/76/70 28/75/69 19/73/67
f 28/75/69 27/74/68 19/73/67
s 7
f 15/80/74 24/79/73 20/77/71
f 24/79/73 28/78/72 20/77/71
s 8
f 23/85/77 26/86/78 16/87/79
f 23/85/77 16/87/79 17/88/80

