mtllib struct_large_curved_ramp.mtl
o struct_large_curved_ramp
g struct_large_curved_ramp
v -0.09549150 0.20000000 0.20610737
v -0.02447174 0.00000000 0.34549150
v -0.02447174 0.20000000 0.34549150
v -0.09549150 0.40000000 0.20610737
v 0.51127124 0.20000000 -0.23473157
v 0.71352549 0.20000000 -0.38167788
v 0.92658477 0.00000000 0.03647451
v 0.68882065 0.00000000 0.11372876
v 0.30901699 0.20000000 -0.08778525
v 0.45105652 0.00000000 0.19098301
v 0.10676275 0.20000000 0.05916106
v 0.21329239 0.00000000 0.26823725
v 0.71352549 0.40000000 -0.38167788
v 0.92658477 0.20000000 0.03647451
v 0.38167788 0.60000000 -0.71352549
v 0.38167788 0.40000000 -0.71352549
v 0.10676275 0.40000000 0.05916106
v -0.20610737 0.60000000 0.09549150
v -0.05916106 0.60000000 -0.10676275
v 0.30901699 0.40000000 -0.08778525
v 0.08778525 0.60000000 -0.30901699
v 0.51127124 0.40000000 -0.23473157
v 0.23473157 0.60000000 -0.51127124
v -0.34549150 0.80000000 0.02447174
v -0.26823725 0.80000000 -0.21329239
v -0.19098301 0.80000000 -0.45105652
v -0.11372876 0.80000000 -0.68882065
v -0.03647451 0.80000000 -0.92658477
v -0.20610737 0.40000000 0.09549150
v -0.34549150 0.60000000 0.02447174
v 0.23473157 0.40000000 -0.51127124
v -0.03647451 0.60000000 -0.92658477
v -0.11372876 0.60000000 -0.68882065
v 0.08778525 0.40000000 -0.30901699
v -0.19098301 0.60000000 -0.45105652
v -0.05916106 0.40000000 -0.10676275
v -0.26823725 0.60000000 -0.21329239
v -0.50000000 0.80000000 -1.00000000
v -0.50000000 0.80000000 -0.75000000
v -0.50000000 0.80000000 -0.50000000
v -0.50000000 0.80000000 -0.25000000
v -0.50000000 0.80000000 0.00000000
v -0.50000000 1.00000000 -1.00000000
v -0.50000000 1.00000000 0.00000000
v -0.50000000 1.00000000 -0.25000000
v -0.50000000 1.00000000 -0.50000000
v -0.50000000 1.00000000 -0.75000000
v 1.00000000 -0.20000000 0.50000000
v 1.00000000 0.00000000 0.50000000
v 0.68882065 0.20000000 0.11372876
v 0.75000000 0.00000000 0.50000000
v 0.45105652 0.20000000 0.19098301
v 0.50000000 0.00000000 0.50000000
v 0.21329239 0.20000000 0.26823725
v 0.25000000 0.00000000 0.50000000
v 0.00000000 0.00000000 0.50000000
v 0.00000000 -0.20000000 0.50000000
v 0.25000000 -0.20000000 0.50000000
v 0.50000000 -0.20000000 0.50000000
v 0.75000000 -0.20000000 0.50000000
vt 0.00000000 0.00000000
vt 1.00000000 0.00000000
vt 1.00000000 1.00000000
vt 0.00000000 1.00000000
vt 0.00000000 0.25000000
vt 0.00000000 0.00000000
vt 1.00000000 0.00000000
vt 1.00000000 0.25000000
vt 0.00000000 0.50000000
vt 1.00000000 0.50000000
vt 0.00000000 0.75000000
vt 1.00000000 0.75000000
vt 1.00000000 1.00000000
vt 0.00000000 1.00000000
vt 0.00000000 0.00000000
vt 1.00000000 0.00000000
vt 1.00000000 1.00000000
vt 0.00000000 1.00000000
vt 0.00000000 0.00000000
vt 1.00000000 0.00000000
vt 1.00000000 1.00000000
vt 0.00000000 1.00000000
vt 0.00000000 0.25000000
vt 0.00000000 0.00000000
vt 1.00000000 0.00000000
vt 1.00000000 0.25000000
vt 0.00000000 0.50000000
vt 1.00000000 0.50000000
vt 0.00000000 0.75000000
vt 1.00000000 0.75000000
vt 1.00000000 1.00000000
vt 0.00000000 1.00000000
vt 0.00000000 0.25000000
vt 0.00000000 0.00000000
vt 1.00000000 0.00000000
vt 1.00000000 0.25000000
vt 0.00000000 0.50000000
vt 1.00000000 0.50000000
vt 0.00000000 0.75000000
vt 1.00000000 0.75000000
vt 1.00000000 1.00000000
vt 0.00000000 1.00000000
vt 0.00000000 0.00000000
vt 1.00000000 0.00000000
vt 1.00000000 1.00000000
vt 0.00000000 1.00000000
vt 0.00000000 0.25000000
vt 0.00000000 0.00000000
vt 1.00000000 0.00000000
vt 1.00000000 0.25000000
vt 0.00000000 0.50000000
vt 1.00000000 0.50000000
vt 0.00000000 0.75000000
vt 1.00000000 0.75000000
vt 1.00000000 1.00000000
vt 0.00000000 1.00000000
vt 0.00000000 0.25000000
vt 0.00000000 0.00000000
vt 1.00000000 0.00000000
vt 1.00000000 0.25000000
vt 0.00000000 0.50000000
vt 1.00000000 0.50000000
vt 0.00000000 0.75000000
vt 1.00000000 0.75000000
vt 1.00000000 1.00000000
vt 0.00000000 1.00000000
vt 0.00000000 0.00000000
vt 1.00000000 0.00000000
vt 1.00000000 1.00000000
vt 0.00000000 1.00000000
vt 0.00000000 0.00000000
vt 1.00000000 0.00000000
vt 1.00000000 1.00000000
vt 0.00000000 1.00000000
vt 0.25000000 0.00000000
vt 0.50000000 0.00000000
vt 0.75000000 0.00000000
vt 0.75000000 1.00000000
vt 0.50000000 1.00000000
vt 0.25000000 1.00000000
vt 0.00000000 0.00000000
vt 1.00000000 0.00000000
vt 1.00000000 1.00000000
vt 0.00000000 1.00000000
vt 0.00000000 0.25000000
vt 0.00000000 0.00000000
vt 1.00000000 0.00000000
vt 1.00000000 0.25000000
vt 0.00000000 0.50000000
vt 1.00000000 0.50000000
vt 0.00000000 0.75000000
vt 1.00000000 0.75000000
vt 1.00000000 1.00000000
vt 0.00000000 1.00000000
vt 0.00000000 0.00000000
vt 1.00000000 0.00000000
vt 1.00000000 1.00000000
vt 0.00000000 1.00000000
vt 0.00000000 0.00000000
vt 1.00000000 0.00000000
vt 1.00000000 1.00000000
vt 0.00000000 1.00000000
vt 0.00000000 0.25000000
vt 0.00000000 0.00000000
vt 1.00000000 0.00000000
vt 1.00000000 0.25000000
vt 0.00000000 0.50000000
vt 1.00000000 0.50000000
vt 0.00000000 0.75000000
vt 1.00000000 0.75000000
vt 1.00000000 1.00000000
vt 0.00000000 1.00000000
vt 0.00000000 1.00000000
vt 0.00000000 0.00000000
vt 1.00000000 0.00000000
vt 1.00000000 1.00000000
vt 0.00000000 0.75000000
vt 0.00000000 0.50000000
vt 0.00000000 0.25000000
vt 1.00000000 0.25000000
vt 1.00000000 0.50000000
vt 1.00000000 0.75000000
vt 0.00000000 0.25000000
vt 0.00000000 0.00000000
vt 1.00000000 0.00000000
vt 1.00000000 0.25000000
vt 0.00000000 0.50000000
vt 1.00000000 0.50000000
vt 0.00000000 0.75000000
vt 1.00000000 0.75000000
vt 1.00000000 1.00000000
vt 0.00000000 1.00000000
vt 0.00000000 0.25000000
vt 0.00000000 0.00000000
vt 1.00000000 0.00000000
vt 1.00000000 0.25000000
vt 0.00000000 0.50000000
vt 1.00000000 0.50000000
vt 0.00000000 0.75000000
vt 1.00000000 0.75000000
vt 1.00000000 1.00000000
vt 0.00000000 1.00000000
vt 0.00000000 0.00000000
vt 1.00000000 0.00000000
vt 1.00000000 1.00000000
vt 0.00000000 1.00000000
vt 0.00000000 0.25000000
vt 0.00000000 0.00000000
vt 1.00000000 0.00000000
vt 1.00000000 0.25000000
vt 0.00000000 0.50000000
vt 1.00000000 0.50000000
vt 0.00000000 0.75000000
vt 1.00000000 0.75000000
vt 1.00000000 1.00000000
vt 0.00000000 1.00000000
vt 0.00000000 0.00000000
vt 1.00000000 0.00000000
vt 1.00000000 1.00000000
vt 0.00000000 1.00000000
vn -0.89100652 0.00000000 0.45399050
vn -0.89100652 0.00000000 0.45399050
vn -0.89100652 0.00000000 0.45399050
vn -0.89100652 0.00000000 0.45399050
vn -0.27026004 -0.88802569 -0.37198103
vn -0.23286346 -0.91817675 -0.32050906
vn -0.12242357 -0.91817675 -0.37678100
vn -0.14208411 -0.88802569 -0.43728993
vn -0.31936892 -0.83951089 -0.43957361
vn -0.16790218 -0.83951089 -0.51674977
vn -0.38401352 -0.75707945 -0.52854926
vn -0.20188785 -0.75707945 -0.62134692
vn -0.24454237 -0.61135594 -0.75262404
vn -0.46514724 -0.61135594 -0.64022025
vn 0.89100652 0.00000000 -0.45399050
vn 0.89100652 0.00000000 -0.45399050
vn 0.89100652 0.00000000 -0.45399050
vn 0.89100652 0.00000000 -0.45399050
vn 0.70710678 0.00000000 -0.70710678
vn 0.70710678 0.00000000 -0.70710678
vn 0.70710678 0.00000000 -0.70710678
vn 0.70710678 0.00000000 -0.70710678
vn 0.38401352 0.75707945 0.52854926
vn 0.46514724 0.61135594 0.64022025
vn 0.64022025 0.61135594 0.46514724
vn 0.52854926 0.75707945 0.38401352
vn 0.31936892 0.83951089 0.43957361
vn 0.43957361 0.83951089 0.31936892
vn 0.27026004 0.88802569 0.37198103
vn 0.37198103 0.88802569 0.27026004
vn 0.32050906 0.91817675 0.23286346
vn 0.23286346 0.91817675 0.32050906
vn 0.75262404 0.61135594 0.24454237
vn 0.62134692 0.75707945 0.20188785
vn 0.51674977 0.83951089 0.16790218
vn 0.43728993 0.88802569 0.14208411
vn 0.37678100 0.91817675 0.12242357
vn -0.45399050 0.00000000 0.89100652
vn -0.45399050 0.00000000 0.89100652
vn -0.45399050 0.00000000 0.89100652
vn -0.45399050 0.00000000 0.89100652
vn -0.37198103 -0.88802569 -0.27026004
vn -0.32050906 -0.91817675 -0.23286346
vn -0.37678100 -0.91817675 -0.12242357
vn -0.43728993 -0.88802569 -0.14208411
vn -0.43957361 -0.83951089 -0.31936892
vn -0.51674977 -0.83951089 -0.16790218
vn -0.52854926 -0.75707945 -0.38401352
vn -0.62134692 -0.75707945 -0.20188785
vn -0.75262404 -0.61135594 -0.24454237
vn -0.64022025 -0.61135594 -0.46514724
vn -0.39617099 -0.91817675 0.00000000
vn -0.45979384 -0.88802569 0.00000000
vn -0.54334286 -0.83951089 0.00000000
vn -0.65332282 -0.75707945 0.00000000
vn -0.79135575 -0.61135594 0.00000000
vn 0.15643447 0.00000000 -0.98768834
vn 0.15643447 0.00000000 -0.98768834
vn 0.15643447 0.00000000 -0.98768834
vn 0.15643447 0.00000000 -0.98768834
vn -1.00000000 -0.00000000 0.00000000
vn -1.00000000 -0.00000000 0.00000000
vn -1.00000000 -0.00000000 0.00000000
vn -1.00000000 -0.00000000 0.00000000
vn -1.00000000 -0.00000000 0.00000000
vn -1.00000000 -0.00000000 0.00000000
vn -1.00000000 -0.00000000 0.00000000
vn -1.00000000 -0.00000000 0.00000000
vn -1.00000000 -0.00000000 0.00000000
vn -1.00000000 -0.00000000 0.00000000
vn -0.15643447 0.00000000 0.98768834
vn -0.15643447 0.00000000 0.98768834
vn -0.15643447 0.00000000 0.98768834
vn -0.15643447 0.00000000 0.98768834
vn 0.79135575 0.61135594 0.00000000
vn 0.65332282 0.75707945 -0.00000000
vn 0.54334286 0.83951089 -0.00000000
vn 0.45979384 0.88802569 -0.00000000
vn 0.39617099 0.91817675 0.00000000
vn 0.45399050 0.00000000 -0.89100652
vn 0.45399050 0.00000000 -0.89100652
vn 0.45399050 0.00000000 -0.89100652
vn 0.45399050 0.00000000 -0.89100652
vn 0.98768834 0.00000000 -0.15643447
vn 0.98768834 0.00000000 -0.15643447
vn 0.98768834 0.00000000 -0.15643447
vn 0.98768834 0.00000000 -0.15643447
vn 0.14208411 0.88802569 0.43728993
vn 0.12242357 0.91817675 0.37678100
vn 0.00000000 0.91817675 0.39617099
vn 0.00000000 0.88802569 0.45979384
vn 0.16790218 0.83951089 0.51674977
vn 0.00000000 0.83951089 0.54334286
vn 0.20188785 0.75707945 0.62134692
vn 0.00000000 0.75707945 0.65332282
vn 0.00000000 0.61135594 0.79135575
vn 0.24454237 0.61135594 0.75262404
vn -0.00000000 0.00000000 1.00000000
vn -0.00000000 0.00000000 1.00000000
vn -0.00000000 0.00000000 1.00000000
vn -0.00000000 0.00000000 1.00000000
vn -0.00000000 0.00000000 1.00000000
vn -0.00000000 0.00000000 1.00000000
vn -0.00000000 0.00000000 1.00000000
vn -0.00000000 0.00000000 1.00000000
vn -0.00000000 0.00000000 1.00000000
vn -0.00000000 0.00000000 1.00000000
vn 0.00000000 -0.61135594 -0.79135575
vn 0.00000000 -0.75707945 -0.65332282
vn 0.00000000 -0.83951089 -0.54334286
vn 0.00000000 -0.88802569 -0.45979384
vn 0.00000000 -0.91817675 -0.39617099
vn -0.70710678 0.00000000 0.70710678
vn -0.70710678 0.00000000 0.70710678
vn -0.70710678 0.00000000 0.70710678
vn -0.70710678 0.00000000 0.70710678
vn -0.98768834 0.00000000 0.15643447
vn -0.98768834 0.00000000 0.15643447
vn -0.98768834 0.00000000 0.15643447
vn -0.98768834 0.00000000 0.15643447
s 1
usemtl Dark_Grey
f 1/1/1 2/2/2 3/3/3
f 1/1/1 3/3/3 4/4/4
s 2
f 5/5/5 6/6/6 7/7/7
f 8/139/8 7/142/7 48/141/112
f 8/139/8 48/141/112 60/140/111
f 59/138/110 10/137/10 8/139/8
f 58/136/109 12/133/12 10/137/10
f 57/135/108 2/134/13 12/133/12
f 2/13/13 1/14/14 11/11/11
f 36/130/48 9/127/9 11/129/11
f 36/130/48 34/128/46 9/127/9
f 37/54/49 35/52/47 34/51/46
f 41/64/55 40/62/54 35/61/47
f 40/62/54 39/60/53 33/57/45
f 33/50/45 16/48/43 31/47/42
f 33/50/45 32/49/44 16/48/43
f 39/60/53 32/58/44 33/57/45
f 39/60/53 38/59/52 32/58/44
f 30/66/50 42/65/56 41/64/55
f 40/62/54 33/57/45 35/61/47
f 35/52/47 33/50/45 31/47/42
f 37/63/49 30/66/50 41/64/55
f 41/64/55 35/61/47 37/63/49
f 29/56/51 30/55/50 37/54/49
f 35/52/47 31/47/42 34/51/46
f 36/53/48 29/56/51 37/54/49
f 37/54/49 34/51/46 36/53/48
f 1/132/14 29/131/51 36/130/48
f 11/129/11 1/132/14 36/130/48
f 12/12/12 2/13/13 11/11/11
f 58/136/109 57/135/108 12/133/12
f 11/11/11 10/10/10 12/12/12
f 11/11/11 9/9/9 10/10/10
f 59/138/110 58/136/109 10/137/10
f 60/140/111 59/138/110 8/139/8
f 9/9/9 8/8/8 10/10/10
f 31/126/42 16/125/43 6/124/6
f 34/128/46 5/123/5 9/127/9
f 34/128/46 31/126/42 5/123/5
f 31/126/42 6/124/6 5/123/5
f 9/9/9 5/5/5 8/8/8
f 5/5/5 7/7/7 8/8/8
s 3
f 13/15/15 14/16/16 6/18/18
f 14/16/16 7/17/17 6/18/18
s 4
f 6/22/22 16/21/21 13/19/19
f 16/21/21 15/20/20 13/19/19
s 5
f 19/26/26 18/25/25 4/24/24
f 4/148/24 3/149/97 54/150/94
f 17/147/23 54/150/94 52/152/92
f 20/151/27 52/152/92 50/154/88
f 50/154/88 13/156/32 22/153/29
f 22/29/29 15/31/31 23/30/30
f 27/40/36 21/37/28 23/39/30
f 27/91/36 28/94/37 47/92/78
f 47/92/78 46/90/77 26/89/35
f 46/90/77 25/85/34 26/89/35
f 45/88/76 24/86/33 25/85/34
f 45/88/76 44/87/75 24/86/33
f 46/90/77 45/88/76 25/85/34
f 28/94/37 43/93/79 47/92/78
f 47/92/78 26/89/35 27/91/36
f 27/40/36 26/38/35 21/37/28
f 15/42/31 28/41/37 27/40/36
f 23/39/30 15/42/31 27/40/36
f 23/30/30 21/28/28 22/29/29
f 22/29/29 13/32/32 15/31/31
f 50/154/88 14/155/89 13/156/32
f 51/106/91 49/105/90 14/104/89
f 53/108/93 51/106/91 50/103/88
f 51/106/91 14/104/89 50/103/88
f 22/153/29 20/151/27 50/154/88
f 21/28/28 20/27/27 22/29/29
f 55/110/95 53/108/93 52/107/92
f 53/108/93 50/103/88 52/107/92
f 20/151/27 17/147/23 52/152/92
f 55/110/95 52/107/92 54/109/94
f 3/112/97 56/111/96 55/110/95
f 54/109/94 3/112/97 55/110/95
f 17/147/23 4/148/24 54/150/94
f 25/36/34 24/35/33 18/34/25
f 26/38/35 19/33/26 21/37/28
f 26/38/35 25/36/34 19/33/26
f 25/36/34 18/34/25 19/33/26
f 19/26/26 17/23/23 20/27/27
f 21/28/28 19/26/26 20/27/27
f 19/26/26 4/24/24 17/23/23
s 6
f 18/46/41 24/45/40 30/44/39
f 18/46/41 30/44/39 29/43/38
s 7
f 32/70/60 38/69/59 28/67/57
f 38/69/59 43/68/58 28/67/57
s 8
f 42/74/64 44/71/61 45/75/65
f 45/75/65 40/79/69 41/80/70
f 46/76/66 39/78/68 40/79/69
f 47/77/67 38/73/63 39/78/68
f 47/77/67 43/72/62 38/73/63
f 46/76/66 47/77/67 39/78/68
f 45/75/65 46/76/66 40/79/69
f 45/75/65 41/80/70 42/74/64
s 9
f 24/84/74 44/83/73 42/82/72
f 24/84/74 42/82/72 30/81/71
s 10
f 16/98/83 32/97/82 15/95/80
f 32/97/82 28/96/81 15/95/80
s 11
f 14/102/87 49/101/86 7/99/84
f 49/101/86 48/100/85 7/99/84
s 12
f 60/119/104 48/114/99 49/115/100
f 59/118/103 60/119/104 53/121/106
f 58/117/102 59/118/103 55/122/107
f 57/113/98 58/117/102 56/116/101
f 58/117/102 55/122/107 56/116/101
f 59/118/103 53/121/106 55/122/107
f 60/119/104 51/120/105 53/121/106
f 60/119/104 49/115/100 51/120/105
s 13
f 4/146/116 18/145/115 29/144/114
f 4/146/116 29/144/114 1/143/113
s 14
f 2/160/120 57/159/119 56/158/118
f 2/160/120 56/158/118 3/157/117

