mtllib struct_pillar_mid_wall_top.mtl
o struct_pillar_mid_wall_top
g struct_pillar_mid_wall_top
v 0.30000000 0.70000000 -0.80000000
v 0.30000000 0.70000000 -0.20000000
v -0.30000000 0.70000000 -0.20000000
v -0.30000000 0.70000000 -0.80000000
v 0.35000000 0.75000000 -0.15000000
v 0.35000000 0.75000000 -0.85000000
v 0.35000000 1.00000000 -0.15000000
v 0.35000000 1.00000000 -0.85000000
v -0.35000000 1.00000000 -0.15000000
v -0.35000000 0.75000000 -0.15000000
v -0.35000000 0.75000000 -0.85000000
v -0.35000000 1.00000000 -0.85000000
vt 1.00000000 1.00000000
vt 0.00000000 1.00000000
vt 0.00000000 0.00000000
vt 1.00000000 0.00000000
vt 0.07142857 1.00000000
vt 0.00000000 0.00000000
vt 1.00000000 0.00000000
vt 0.92857143 1.00000000
vt 0.00000000 0.00000000
vt 1.00000000 0.00000000
vt 1.00000000 1.00000000
vt 0.00000000 1.00000000
vt 0.00000000 0.00000000
vt 1.00000000 0.00000000
vt 1.00000000 1.00000000
vt 0.00000000 1.00000000
vt 0.00000000 0.00000000
vt 1.00000000 0.00000000
vt 1.00000000 1.00000000
vt 0.00000000 1.00000000
vt 1.00000000 1.00000000
vt 0.00000000 1.00000000
vt 0.00000000 0.00000000
vt 1.00000000 0.00000000
vt 0.00000000 0.00000000
vt 1.00000000 0.00000000
vt 1.00000000 1.00000000
vt 0.00000000 1.00000000
vt 0.00000000 1.00000000
vt 0.07142857 0.00000000
vt 0.92857143 0.00000000
vt 1.00000000 1.00000000
vt 0.00000000 1.00000000
vt 0.07142857 0.00000000
vt 0.92857143 0.00000000
vt 1.00000000 1.00000000
vt 0.07142857 1.00000000
vt 0.00000000 0.00000000
vt 1.00000000 0.00000000
vt 0.92857143 1.00000000
vn 0.00000000 -1.00000000 0.00000000
vn 0.00000000 -1.00000000 0.00000000
vn 0.00000000 -1.00000000 0.00000000
vn 0.00000000 -1.00000000 0.00000000
vn 0.70710678 -0.70710678 0.00000000
vn 0.70710678 -0.70710678 0.00000000
vn 0.70710678 -0.70710678 0.00000000
vn 0.70710678 -0.70710678 0.00000000
vn 1.00000000 0.00000000 0.00000000
vn 1.00000000 0.00000000 0.00000000
vn 1.00000000 0.00000000 0.00000000
vn 1.00000000 0.00000000 0.00000000
vn 0.00000000 0.00000000 1.00000000
vn 0.00000000 0.00000000 1.00000000
vn 0.00000000 0.00000000 1.00000000
vn 0.00000000 0.00000000 1.00000000
vn -1.00000000 0.00000000 0.00000000
vn -1.00000000 0.00000000 0.00000000
vn -1.00000000 0.00000000 0.00000000
vn -1.00000000 0.00000000 0.00000000
vn 0.00000000 1.00000000 0.00000000
vn 0.00000000 1.00000000 0.00000000
vn 0.00000000 1.00000000 0.00000000
vn 0.00000000 1.00000000 0.00000000
vn 0.00000000 0.00000000 -1.00000000
vn 0.00000000 0.00000000 -1.00000000
vn 0.00000000 0.00000000 -1.00000000
vn 0.00000000 0.00000000 -1.00000000
vn 0.00000000 -0.70710678 -0.70710678
vn 0.00000000 -0.70710678 -0.70710678
vn 0.00000000 -0.70710678 -0.70710678
vn 0.00000000 -0.70710678 -0.70710678
vn -0.70710678 -0.70710678 0.00000000
vn -0.70710678 -0.70710678 0.00000000
vn -0.70710678 -0.70710678 0.00000000
vn -0.70710678 -0.70710678 0.00000000
vn 0.00000000 -0.70710678 0.70710678
vn 0.00000000 -0.70710678 0.70710678
vn 0.00000000 -0.70710678 0.70710678
vn 0.00000000 -0.70710678 0.70710678
s 1
usemtl Grey
f 1/1/1 2/2/2 4/4/4
f 2/2/2 3/3/3 4/4/4
s 2
f 1/8/8 6/7/7 5/6/6
f 1/8/8 5/6/6 2/5/5
s 3
f 7/9/9 5/10/10 8/12/12
f 5/10/10 6/11/11 8/12/12
s 4
f 9/13/13 10/14/14 7/16/16
f 10/14/14 5/15/15 7/16/16
s 5
f 12/20/20 11/19/19 9/17/17
f 11/19/19 10/18/18 9/17/17
s 6
f 12/24/24 9/23/23 7/22/22
f 12/24/24 7/22/22 8/21/21
s 7
f 8/28/28 6/27/27 12/25/25
f 6/27/27 11/26/26 12/25/25
s 8
f 6/32/32 1/31/31 11/29/29
f 1/31/31 4/30/30 11/29/29
s 9
f 11/36/36 4/35/35 3/34/34
f 11/36/36 3/34/34 10/33/33
s 10
f 2/40/40 5/39/39 3/37/37
f 5/39/39 10/38/38 3/37/37

