mtllib struct_wall_joint_topper.mtl
o struct_wall_joint_topper
g struct_wall_joint_topper
v 0.50000000 0.00000000 -0.30000000
v 0.50000000 0.10000000 -0.40000000
v 0.45857864 0.10000000 -0.40000000
v 0.41715729 0.00000000 -0.30000000
v 0.50000000 0.10000000 -0.50000000
v 0.50000000 0.00000000 -0.50000000
v 0.30000000 0.00000000 -0.50000000
v 0.40000000 0.10000000 -0.50000000
v 0.30000000 0.00000000 -0.41715729
v 0.40000000 0.10000000 -0.45857864
vt 1.00000000 0.00000000
vt 1.00000000 1.00000000
vt 0.50000000 1.00000000
vt 0.00000000 0.00000000
vt 1.00000000 0.50000000
vt 1.00000000 1.00000000
vt 0.00000000 1.00000000
vt 0.00000000 0.00000000
vt 0.00000000 1.00000000
vt 0.00000000 0.00000000
vt 1.00000000 0.00000000
vt 1.00000000 0.50000000
vt 1.00000000 0.00000000
vt 0.50000000 1.00000000
vt 0.00000000 1.00000000
vt 0.00000000 0.00000000
vt 0.00000000 0.41421356
vt 0.00000000 0.00000000
vt 1.00000000 0.00000000
vt 1.00000000 1.00000000
vt 0.58578644 1.00000000
vt 1.00000000 0.00000000
vt 0.75000000 1.00000000
vt 0.25000000 1.00000000
vt 0.00000000 0.00000000
vt 0.00000000 0.41421356
vt 0.00000000 0.00000000
vt 1.00000000 0.00000000
vt 1.00000000 1.00000000
vt 0.58578644 1.00000000
vn -0.00000000 0.70710678 0.70710678
vn -0.00000000 0.70710678 0.70710678
vn -0.00000000 0.70710678 0.70710678
vn -0.00000000 0.70710678 0.70710678
vn 1.00000000 0.00000000 0.00000000
vn 1.00000000 0.00000000 0.00000000
vn 1.00000000 0.00000000 0.00000000
vn 1.00000000 0.00000000 0.00000000
vn 0.00000000 0.00000000 -1.00000000
vn 0.00000000 0.00000000 -1.00000000
vn 0.00000000 0.00000000 -1.00000000
vn 0.00000000 0.00000000 -1.00000000
vn -0.70710678 0.70710678 0.00000000
vn -0.70710678 0.70710678 0.00000000
vn -0.70710678 0.70710678 0.00000000
vn -0.70710678 0.70710678 0.00000000
vn 0.00000000 -1.00000000 0.00000000
vn 0.00000000 -1.00000000 0.00000000
vn 0.00000000 -1.00000000 0.00000000
vn 0.00000000 -1.00000000 0.00000000
vn 0.00000000 -1.00000000 0.00000000
vn -0.50000000 0.70710678 0.50000000
vn -0.50000000 0.70710678 0.50000000
vn -0.50000000 0.70710678 0.50000000
vn -0.50000000 0.70710678 0.50000000
vn 0.00000000 1.00000000 0.00000000
vn 0.00000000 1.00000000 0.00000000
vn 0.00000000 1.00000000 0.00000000
vn 0.00000000 1.00000000 0.00000000
vn 0.00000000 1.00000000 0.00000000
s 1
usemtl Grey
f 1/1/1 2/2/2 3/3/3
f 1/1/1 3/3/3 4/4/4
s 2
f 1/8/8 6/7/7 2/5/5
f 6/7/7 5/6/6 2/5/5
s 3
f 8/12/12 5/11/11 6/10/10
f 8/12/12 6/10/10 7/9/9
s 4
f 9/13/13 10/14/14 7/16/16
f 10/14/14 8/15/15 7/16/16
s 5
f 4/17/17 9/21/21 7/20/20
f 7/20/20 6/19/19 4/17/17
f 6/19/19 1/18/18 4/17/17
s 6
f 4/22/22 3/23/23 10/24/24
f 4/22/22 10/24/24 9/25/25
s 7
f 10/30/30 3/26/26 2/27/27
f 2/27/27 5/28/28 10/30/30
f 5/28/28 8/29/29 10/30/30

