mtllib struct_floor_cracked_1.mtl
o struct_floor_cracked_1
g struct_floor_cracked_1
v 0.15000000 -0.20000000 0.00000000
v 0.15000000 0.00000000 0.00000000
v -0.25000000 0.00000000 0.05000000
v -0.25000000 -0.20000000 0.05000000
v 0.35000000 -0.20000000 0.25000000
v 0.35000000 0.00000000 0.25000000
v 0.20000000 -0.20000000 0.50000000
v 0.20000000 0.00000000 0.50000000
v 0.50000000 -0.20000000 0.50000000
v 0.50000000 0.00000000 0.50000000
v 0.50000000 0.00000000 -0.50000000
v 0.50000000 -0.20000000 -0.50000000
v -0.50000000 0.00000000 -0.50000000
v -0.50000000 -0.20000000 -0.50000000
v -0.50000000 0.00000000 -0.20000000
v -0.50000000 -0.20000000 -0.20000000
v -0.30000000 -0.20000000 -0.15000000
v -0.30000000 0.00000000 -0.15000000
vt 1.00000000 1.00000000
vt 0.00000000 1.00000000
vt 0.00000000 0.00000000
vt 1.00000000 0.00000000
vt 1.00000000 1.00000000
vt 0.00000000 1.00000000
vt 0.00000000 0.00000000
vt 1.00000000 0.00000000
vt 1.00000000 1.00000000
vt 0.00000000 1.00000000
vt 0.00000000 0.00000000
vt 1.00000000 0.00000000
vt 1.00000000 0.00000000
vt 1.00000000 1.00000000
vt 0.00000000 1.00000000
vt 0.00000000 0.00000000
vt 0.00000000 1.00000000
vt 0.00000000 0.00000000
vt 1.00000000 0.00000000
vt 1.00000000 1.00000000
vt 0.00000000 1.00000000
vt 0.00000000 0.00000000
vt 1.00000000 0.00000000
vt 1.00000000 1.00000000
vt 0.00000000 1.00000000
vt 0.00000000 0.00000000
vt 1.00000000 0.00000000
vt 1.00000000 1.00000000
vt 1.00000000 1.00000000
vt 0.00000000 1.00000000
vt 0.00000000 0.00000000
vt 1.00000000 0.00000000
vt 0.30000000 0.00000000
vt 0.35000000 0.20000000
vt 0.55000000 0.25000000
vt 0.50000000 0.65000000
vt 0.75000000 0.85000000
vt 1.00000000 0.70000000
vt 1.00000000 1.00000000
vt 0.00000000 1.00000000
vt 0.00000000 0.00000000
vt 1.00000000 1.00000000
vt 0.00000000 1.00000000
vt 0.00000000 0.00000000
vt 1.00000000 0.00000000
vt 0.35000000 0.20000000
vt 0.55000000 0.25000000
vt 0.50000000 0.65000000
vt 0.75000000 0.85000000
vt 1.00000000 0.70000000
vt 1.00000000 1.00000000
vt 0.00000000 1.00000000
vt 0.00000000 0.00000000
vt 0.30000000 0.00000000
vn 0.12403473 0.00000000 0.99227788
vn 0.12403473 0.00000000 0.99227788
vn 0.12403473 0.00000000 0.99227788
vn 0.12403473 0.00000000 0.99227788
vn -0.78086881 -0.00000000 0.62469505
vn -0.78086881 -0.00000000 0.62469505
vn -0.78086881 0.00000000 0.62469505
vn -0.78086881 0.00000000 0.62469505
vn -0.85749293 0.00000000 -0.51449576
vn -0.85749293 0.00000000 -0.51449576
vn -0.85749293 0.00000000 -0.51449576
vn -0.85749293 0.00000000 -0.51449576
vn 0.00000000 0.00000000 1.00000000
vn 0.00000000 0.00000000 1.00000000
vn 0.00000000 0.00000000 1.00000000
vn 0.00000000 0.00000000 1.00000000
vn 1.00000000 0.00000000 0.00000000
vn 1.00000000 0.00000000 0.00000000
vn 1.00000000 0.00000000 0.00000000
vn 1.00000000 0.00000000 0.00000000
vn 0.00000000 0.00000000 -1.00000000
vn 0.00000000 0.00000000 -1.00000000
vn 0.00000000 0.00000000 -1.00000000
vn 0.00000000 0.00000000 -1.00000000
vn -1.00000000 0.00000000 0.00000000
vn -1.00000000 0.00000000 0.00000000
vn -1.00000000 0.00000000 0.00000000
vn -1.00000000 0.00000000 0.00000000
vn -0.24253563 0.00000000 0.97014250
vn -0.24253563 0.00000000 0.97014250
vn -0.24253563 0.00000000 0.97014250
vn -0.24253563 0.00000000 0.97014250
vn 0.00000000 -1.00000000 0.00000000
vn 0.00000000 -1.00000000 0.00000000
vn 0.00000000 -1.00000000 0.00000000
vn 0.00000000 -1.00000000 0.00000000
vn 0.00000000 -1.00000000 0.00000000
vn 0.00000000 -1.00000000 0.00000000
vn 0.00000000 -1.00000000 0.00000000
vn 0.00000000 -1.00000000 0.00000000
vn 0.00000000 -1.00000000 0.00000000
vn -0.97014250 0.00000000 0.24253563
vn -0.97014250 0.00000000 0.24253563
vn -0.97014250 0.00000000 0.24253563
vn -0.97014250 0.00000000 0.24253563
vn 0.00000000 1.00000000 0.00000000
vn 0.00000000 1.00000000 0.00000000
vn 0.00000000 1.00000000 0.00000000
vn 0.00000000 1.00000000 0.00000000
vn 0.00000000 1.00000000 0.00000000
vn 0.00000000 1.00000000 0.00000000
vn 0.00000000 1.00000000 0.00000000
vn 0.00000000 1.00000000 0.00000000
vn 0.00000000 1.00000000 0.00000000
s 1
usemtl Dark_Grey
f 1/1/1 2/2/2 3/3/3
f 1/1/1 3/3/3 4/4/4
s 2
f 5/5/5 6/6/6 2/7/7
f 5/5/5 2/7/7 1/8/8
s 3
f 7/9/9 8/10/10 6/11/11
f 7/9/9 6/11/11 5/12/12
s 4
f 7/13/13 9/14/14 8/16/16
f 9/14/14 10/15/15 8/16/16
s 5
f 11/17/17 10/18/18 12/20/20
f 10/18/18 9/19/19 12/20/20
s 6
f 13/21/21 11/22/22 14/24/24
f 11/22/22 12/23/23 14/24/24
s 7
f 15/25/25 13/26/26 16/28/28
f 13/26/26 14/27/27 16/28/28
s 8
f 17/29/29 18/30/30 16/32/32
f 18/30/30 15/31/31 16/32/32
s 9
f 9/39/39 7/38/38 5/37/37
f 12/40/40 5/37/37 1/36/36
f 1/36/36 17/34/34 14/41/41
f 17/34/34 16/33/33 14/41/41
f 1/36/36 4/35/35 17/34/34
f 14/41/41 12/40/40 1/36/36
f 12/40/40 9/39/39 5/37/37
s 10
f 4/42/42 3/43/43 17/45/45
f 3/43/43 18/44/44 17/45/45
s 11
f 6/49/49 8/50/50 10/51/51
f 2/48/48 6/49/49 11/52/52
f 2/48/48 11/52/52 13/53/53
f 13/53/53 15/54/54 18/46/46
f 13/53/53 18/46/46 2/48/48
f 18/46/46 3/47/47 2/48/48
f 6/49/49 10/51/51 11/52/52

