mtllib struct_pillar_corner_base.mtl
o struct_pillar_corner_base
g struct_pillar_corner_base
v 0.15000000 0.25000000 -0.15000000
v 0.20000000 0.30000000 -0.20000000
v 0.20000000 0.30000000 -0.80000000
v 0.15000000 0.25000000 -0.85000000
v 0.85000000 0.25000000 -0.15000000
v 0.80000000 0.30000000 -0.20000000
v 0.85000000 0.25000000 -0.85000000
v 0.80000000 0.30000000 -0.80000000
v 0.85000000 0.00000000 -0.15000000
v 0.85000000 0.00000000 -0.85000000
v 0.15000000 0.00000000 -0.85000000
v 0.15000000 0.00000000 -0.15000000
vt 0.00000000 1.00000000
vt 0.07142857 0.00000000
vt 0.92857143 0.00000000
vt 1.00000000 1.00000000
vt 0.07142857 1.00000000
vt 0.00000000 0.00000000
vt 1.00000000 0.00000000
vt 0.92857143 1.00000000
vt 0.07142857 1.00000000
vt 0.00000000 0.00000000
vt 1.00000000 0.00000000
vt 0.92857143 1.00000000
vt 0.00000000 0.00000000
vt 1.00000000 0.00000000
vt 1.00000000 1.00000000
vt 0.00000000 1.00000000
vt 0.00000000 0.00000000
vt 1.00000000 0.00000000
vt 1.00000000 1.00000000
vt 0.00000000 1.00000000
vt 1.00000000 1.00000000
vt 0.00000000 1.00000000
vt 0.00000000 0.00000000
vt 1.00000000 0.00000000
vt 0.00000000 0.00000000
vt 1.00000000 0.00000000
vt 1.00000000 1.00000000
vt 0.00000000 1.00000000
vt 0.00000000 0.00000000
vt 1.00000000 0.00000000
vt 1.00000000 1.00000000
vt 0.00000000 1.00000000
vt 0.00000000 1.00000000
vt 0.07142857 0.00000000
vt 0.92857143 0.00000000
vt 1.00000000 1.00000000
vt 1.00000000 1.00000000
vt 0.00000000 1.00000000
vt 0.00000000 0.00000000
vt 1.00000000 0.00000000
vn -0.70710678 0.70710678 0.00000000
vn -0.70710678 0.70710678 0.00000000
vn -0.70710678 0.70710678 0.00000000
vn -0.70710678 0.70710678 0.00000000
vn 0.00000000 0.70710678 0.70710678
vn 0.00000000 0.70710678 0.70710678
vn 0.00000000 0.70710678 0.70710678
vn 0.00000000 0.70710678 0.70710678
vn 0.70710678 0.70710678 0.00000000
vn 0.70710678 0.70710678 0.00000000
vn 0.70710678 0.70710678 0.00000000
vn 0.70710678 0.70710678 0.00000000
vn 1.00000000 0.00000000 0.00000000
vn 1.00000000 0.00000000 0.00000000
vn 1.00000000 0.00000000 0.00000000
vn 1.00000000 0.00000000 0.00000000
vn 0.00000000 0.00000000 -1.00000000
vn 0.00000000 0.00000000 -1.00000000
vn 0.00000000 0.00000000 -1.00000000
vn 0.00000000 0.00000000 -1.00000000
vn 0.00000000 -1.00000000 0.00000000
vn 0.00000000 -1.00000000 0.00000000
vn 0.00000000 -1.00000000 0.00000000
vn 0.00000000 -1.00000000 0.00000000
vn 0.00000000 0.00000000 1.00000000
vn 0.00000000 0.00000000 1.00000000
vn 0.00000000 0.00000000 1.00000000
vn 0.00000000 0.00000000 1.00000000
vn -1.00000000 0.00000000 0.00000000
vn -1.00000000 0.00000000 0.00000000
vn -1.00000000 0.00000000 0.00000000
vn -1.00000000 0.00000000 0.00000000
vn 0.00000000 0.70710678 -0.70710678
vn 0.00000000 0.70710678 -0.70710678
vn 0.00000000 0.70710678 -0.70710678
vn 0.00000000 0.70710678 -0.70710678
vn 0.00000000 1.00000000 0.00000000
vn 0.00000000 1.00000000 0.00000000
vn 0.00000000 1.00000000 0.00000000
vn 0.00000000 1.00000000 0.00000000
s 1
usemtl Grey
f 1/1/1 2/2/2 3/3/3
f 1/1/1 3/3/3 4/4/4
s 2
f 2/5/5 1/6/6 5/7/7
f 2/5/5 5/7/7 6/8/8
s 3
f 6/9/9 5/10/10 7/11/11
f 6/9/9 7/11/11 8/12/12
s 4
f 10/16/16 7/15/15 9/13/13
f 7/15/15 5/14/14 9/13/13
s 5
f 11/17/17 4/18/18 10/20/20
f 4/18/18 7/19/19 10/20/20
s 6
f 10/21/21 9/22/22 11/24/24
f 9/22/22 12/23/23 11/24/24
s 7
f 9/28/28 5/27/27 12/25/25
f 5/27/27 1/26/26 12/25/25
s 8
f 12/29/29 1/30/30 11/32/32
f 1/30/30 4/31/31 11/32/32
s 9
f 4/33/33 3/34/34 8/35/35
f 4/33/33 8/35/35 7/36/36
s 10
f 3/40/40 2/39/39 6/38/38
f 3/40/40 6/38/38 8/37/37

