mtllib struct_wall_big_door_topper.mtl
o struct_wall_big_door_topper
g struct_wall_big_door_topper
v 1.50000000 0.00000000 -0.30000000
v 0.95000000 0.00000000 -0.30000000
v 1.00000000 0.10000000 -0.40000000
v 1.50000000 0.10000000 -0.40000000
v 1.00000000 0.10000000 -0.60000000
v 1.50000000 0.10000000 -0.60000000
v 0.90000000 0.00000000 -0.65000000
v 0.90000000 0.00000000 -0.35000000
v 0.95000000 0.00000000 -0.70000000
v 1.50000000 0.00000000 -0.70000000
vt 1.00000000 1.00000000
vt 0.00000000 1.00000000
vt 0.09090909 0.00000000
vt 1.00000000 0.00000000
vt 1.00000000 0.00000000
vt 1.00000000 1.00000000
vt 0.00000000 1.00000000
vt 0.00000000 0.00000000
vt 1.00000000 0.00000000
vt 0.83333333 1.00000000
vt 0.16666667 1.00000000
vt 0.00000000 0.00000000
vt 1.00000000 0.30000000
vt 0.00000000 1.00000000
vt 0.50000000 0.00000000
vt 1.00000000 0.00000000
vt 1.00000000 1.00000000
vt 0.00000000 1.00000000
vt 0.00000000 0.09090909
vt 0.00000000 0.00000000
vt 1.00000000 0.25000000
vt 1.00000000 0.75000000
vt 0.00000000 1.00000000
vt 0.00000000 1.00000000
vt 0.00000000 0.08333333
vt 0.12500000 0.00000000
vt 0.87500000 0.00000000
vt 1.00000000 0.08333333
vt 1.00000000 1.00000000
vt 0.00000000 0.70000000
vt 1.00000000 0.00000000
vt 0.50000000 1.00000000
vn 0.00000000 0.70710678 0.70710678
vn 0.00000000 0.70710678 0.70710678
vn 0.00000000 0.70710678 0.70710678
vn 0.00000000 0.70710678 0.70710678
vn -0.00000000 1.00000000 0.00000000
vn -0.00000000 1.00000000 0.00000000
vn -0.00000000 1.00000000 0.00000000
vn -0.00000000 1.00000000 0.00000000
vn -0.70710678 0.70710678 0.00000000
vn -0.70710678 0.70710678 0.00000000
vn -0.70710678 0.70710678 0.00000000
vn -0.70710678 0.70710678 0.00000000
vn -0.48507125 0.72760688 -0.48507125
vn -0.48507125 0.72760688 -0.48507125
vn -0.48507125 0.72760688 -0.48507125
vn -0.00000000 0.70710678 -0.70710678
vn -0.00000000 0.70710678 -0.70710678
vn -0.00000000 0.70710678 -0.70710678
vn -0.00000000 0.70710678 -0.70710678
vn 1.00000000 0.00000000 0.00000000
vn 1.00000000 0.00000000 0.00000000
vn 1.00000000 0.00000000 0.00000000
vn 1.00000000 0.00000000 0.00000000
vn 0.00000000 -1.00000000 0.00000000
vn 0.00000000 -1.00000000 0.00000000
vn 0.00000000 -1.00000000 0.00000000
vn 0.00000000 -1.00000000 0.00000000
vn 0.00000000 -1.00000000 0.00000000
vn 0.00000000 -1.00000000 0.00000000
vn -0.48507125 0.72760688 0.48507125
vn -0.48507125 0.72760688 0.48507125
vn -0.48507125 0.72760688 0.48507125
s 1
usemtl Grey
f 4/4/4 3/3/3 1/1/1
f 3/3/3 2/2/2 1/1/1
s 2
f 3/8/8 4/7/7 6/6/6
f 3/8/8 6/6/6 5/5/5
s 3
f 8/12/12 3/11/11 5/10/10
f 8/12/12 5/10/10 7/9/9
s 4
f 7/15/15 5/14/14 9/13/13
s 5
f 5/19/19 6/18/18 10/17/17
f 5/19/19 10/17/17 9/16/16
s 6
f 10/20/20 6/21/21 1/23/23
f 6/21/21 4/22/22 1/23/23
s 7
f 10/29/29 1/24/24 2/25/25
f 2/25/25 7/27/27 9/28/28
f 2/25/25 8/26/26 7/27/27
f 9/28/28 10/29/29 2/25/25
s 8
f 2/30/30 3/31/31 8/32/32
o struct_wall_big_door_topper_2
g struct_wall_big_door_topper_2
v 0.05000000 0.00000000 -0.70000000
v -0.50000000 0.00000000 -0.70000000
v -0.50000000 0.10000000 -0.60000000
v 0.00000000 0.10000000 -0.60000000
v -0.50000000 0.00000000 -0.30000000
v 0.05000000 0.00000000 -0.30000000
v 0.10000000 0.00000000 -0.35000000
v 0.10000000 0.00000000 -0.65000000
v 0.00000000 0.10000000 -0.40000000
v -0.50000000 0.10000000 -0.40000000
vt 1.00000000 0.00000000
vt 1.00000000 1.00000000
vt 0.00000000 1.00000000
vt 0.00000000 0.09090909
vt 0.00000000 1.00000000
vt 0.00000000 0.08333333
vt 0.12500000 0.00000000
vt 0.87500000 0.00000000
vt 1.00000000 0.08333333
vt 1.00000000 1.00000000
vt 1.00000000 0.00000000
vt 0.83333333 1.00000000
vt 0.16666667 1.00000000
vt 0.00000000 0.00000000
vt 1.00000000 1.00000000
vt 0.00000000 1.00000000
vt 0.09090909 0.00000000
vt 1.00000000 0.00000000
vt 0.00000000 0.70000000
vt 1.00000000 0.00000000
vt 0.50000000 1.00000000
vt 1.00000000 0.30000000
vt 0.00000000 1.00000000
vt 0.50000000 0.00000000
vt 1.00000000 0.00000000
vt 1.00000000 1.00000000
vt 0.00000000 1.00000000
vt 0.00000000 0.00000000
vt 0.00000000 0.00000000
vt 1.00000000 0.25000000
vt 1.00000000 0.75000000
vt 0.00000000 1.00000000
vn 0.00000000 0.70710678 -0.70710678
vn 0.00000000 0.70710678 -0.70710678
vn 0.00000000 0.70710678 -0.70710678
vn 0.00000000 0.70710678 -0.70710678
vn -0.00000000 -1.00000000 0.00000000
vn -0.00000000 -1.00000000 0.00000000
vn -0.00000000 -1.00000000 0.00000000
vn -0.00000000 -1.00000000 0.00000000
vn -0.00000000 -1.00000000 0.00000000
vn -0.00000000 -1.00000000 0.00000000
vn 0.70710678 0.70710678 0.00000000
vn 0.70710678 0.70710678 0.00000000
vn 0.70710678 0.70710678 0.00000000
vn 0.70710678 0.70710678 0.00000000
vn -0.00000000 0.70710678 0.70710678
vn -0.00000000 0.70710678 0.70710678
vn -0.00000000 0.70710678 0.70710678
vn -0.00000000 0.70710678 0.70710678
vn 0.48507125 0.72760688 0.48507125
vn 0.48507125 0.72760688 0.48507125
vn 0.48507125 0.72760688 0.48507125
vn 0.48507125 0.72760688 -0.48507125
vn 0.48507125 0.72760688 -0.48507125
vn 0.48507125 0.72760688 -0.48507125
vn 0.00000000 1.00000000 0.00000000
vn 0.00000000 1.00000000 0.00000000
vn 0.00000000 1.00000000 0.00000000
vn 0.00000000 1.00000000 0.00000000
vn -1.00000000 0.00000000 0.00000000
vn -1.00000000 0.00000000 0.00000000
vn -1.00000000 0.00000000 0.00000000
vn -1.00000000 0.00000000 0.00000000
s 1
usemtl Grey
f 11/33/33 12/34/34 14/36/36
f 12/34/34 13/35/35 14/36/36
s 2
f 16/38/38 15/37/37 12/42/42
f 11/41/41 17/39/39 16/38/38
f 11/41/41 18/40/40 17/39/39
f 16/38/38 12/42/42 11/41/41
s 3
f 18/43/43 14/44/44 17/46/46
f 14/44/44 19/45/45 17/46/46
s 4
f 15/47/47 16/48/48 19/49/49
f 15/47/47 19/49/49 20/50/50
s 5
f 17/53/53 19/52/52 16/51/51
s 6
f 11/54/54 14/55/55 18/56/56
s 7
f 14/57/57 13/58/58 19/60/60
f 13/58/58 20/59/59 19/60/60
s 8
f 15/64/64 20/63/63 13/62/62
f 15/64/64 13/62/62 12/61/61

