mtllib struct_pillar_angled_topper.mtl
o struct_pillar_angled_topper
g struct_pillar_angled_topper
v 0.20000000 0.00000000 -0.69497475
v 0.69497475 0.00000000 -0.20000000
v 0.20000000 0.00000000 0.29497475
v -0.29497475 0.00000000 -0.20000000
v 0.69497475 0.15000000 -0.20000000
v 0.20000000 0.15000000 -0.69497475
v 0.62426407 0.20000000 -0.20000000
v 0.20000000 0.20000000 -0.62426407
v 0.20000000 0.20000000 0.22426407
v 0.20000000 0.15000000 0.29497475
v -0.22426407 0.20000000 -0.20000000
v -0.29497475 0.15000000 -0.20000000
vt 1.00000000 1.00000000
vt 0.00000000 1.00000000
vt 0.00000000 0.00000000
vt 1.00000000 0.00000000
vt 0.00000000 0.00000000
vt 1.00000000 0.00000000
vt 1.00000000 1.00000000
vt 0.00000000 1.00000000
vt 0.07142857 1.00000000
vt 0.00000000 0.00000000
vt 1.00000000 0.00000000
vt 0.92857143 1.00000000
vt 0.07142857 1.00000000
vt 0.00000000 0.00000000
vt 1.00000000 0.00000000
vt 0.92857143 1.00000000
vt 0.00000000 1.00000000
vt 0.07142857 0.00000000
vt 0.92857143 0.00000000
vt 1.00000000 1.00000000
vt 0.00000000 1.00000000
vt 0.00000000 0.00000000
vt 1.00000000 0.00000000
vt 1.00000000 1.00000000
vt 0.00000000 1.00000000
vt 0.07142857 0.00000000
vt 0.92857143 0.00000000
vt 1.00000000 1.00000000
vt 0.00000000 0.00000000
vt 1.00000000 0.00000000
vt 1.00000000 1.00000000
vt 0.00000000 1.00000000
vt 0.00000000 0.00000000
vt 1.00000000 0.00000000
vt 1.00000000 1.00000000
vt 0.00000000 1.00000000
vt 0.00000000 0.00000000
vt 1.00000000 0.00000000
vt 1.00000000 1.00000000
vt 0.00000000 1.00000000
vn 0.00000000 -1.00000000 0.00000000
vn 0.00000000 -1.00000000 0.00000000
vn 0.00000000 -1.00000000 0.00000000
vn 0.00000000 -1.00000000 0.00000000
vn 0.70710678 0.00000000 -0.70710678
vn 0.70710678 0.00000000 -0.70710678
vn 0.70710678 0.00000000 -0.70710678
vn 0.70710678 0.00000000 -0.70710678
vn 0.50000000 0.70710678 -0.50000000
vn 0.50000000 0.70710678 -0.50000000
vn 0.50000000 0.70710678 -0.50000000
vn 0.50000000 0.70710678 -0.50000000
vn 0.50000000 0.70710678 0.50000000
vn 0.50000000 0.70710678 0.50000000
vn 0.50000000 0.70710678 0.50000000
vn 0.50000000 0.70710678 0.50000000
vn -0.50000000 0.70710678 0.50000000
vn -0.50000000 0.70710678 0.50000000
vn -0.50000000 0.70710678 0.50000000
vn -0.50000000 0.70710678 0.50000000
vn 0.00000000 1.00000000 0.00000000
vn 0.00000000 1.00000000 0.00000000
vn 0.00000000 1.00000000 0.00000000
vn 0.00000000 1.00000000 0.00000000
vn -0.50000000 0.70710678 -0.50000000
vn -0.50000000 0.70710678 -0.50000000
vn -0.50000000 0.70710678 -0.50000000
vn -0.50000000 0.70710678 -0.50000000
vn -0.70710678 0.00000000 -0.70710678
vn -0.70710678 0.00000000 -0.70710678
vn -0.70710678 0.00000000 -0.70710678
vn -0.70710678 0.00000000 -0.70710678
vn -0.70710678 0.00000000 0.70710678
vn -0.70710678 0.00000000 0.70710678
vn -0.70710678 0.00000000 0.70710678
vn -0.70710678 0.00000000 0.70710678
vn 0.70710678 0.00000000 0.70710678
vn 0.70710678 0.00000000 0.70710678
vn 0.70710678 0.00000000 0.70710678
vn 0.70710678 0.00000000 0.70710678
s 1
usemtl Grey
f 1/1/1 2/2/2 4/4/4
f 2/2/2 3/3/3 4/4/4
s 2
f 1/8/8 6/7/7 2/5/5
f 6/7/7 5/6/6 2/5/5
s 3
f 7/9/9 5/10/10 6/11/11
f 7/9/9 6/11/11 8/12/12
s 4
f 9/13/13 10/14/14 5/15/15
f 9/13/13 5/15/15 7/16/16
s 5
f 10/17/17 9/18/18 11/19/19
f 10/17/17 11/19/19 12/20/20
s 6
f 8/24/24 11/23/23 7/21/21
f 11/23/23 9/22/22 7/21/21
s 7
f 12/25/25 11/26/26 8/27/27
f 12/25/25 8/27/27 6/28/28
s 8
f 4/29/29 12/30/30 1/32/32
f 12/30/30 6/31/31 1/32/32
s 9
f 3/33/33 10/34/34 4/36/36
f 10/34/34 12/35/35 4/36/36
s 10
f 2/40/40 5/39/39 3/37/37
f 5/39/39 10/38/38 3/37/37

