mtllib struct_wall_tapered_main.mtl
o struct_wall_tapered_main
g struct_wall_tapered_main
v 0.65000000 0.00000000 0.02365440
v 0.65000000 1.00000000 0.02365440
v -0.02365440 1.00000000 -0.65000000
v -0.02365440 0.00000000 -0.65000000
v -0.50000000 1.00000000 -0.65000000
v -0.50000000 0.00000000 -0.65000000
v -0.50000000 1.00000000 -0.35000000
v -0.50000000 0.00000000 -0.35000000
v -0.14791847 1.00000000 -0.35000000
v -0.14791847 0.00000000 -0.35000000
v 0.35000000 1.00000000 0.14791847
v 0.35000000 0.00000000 0.14791847
v 0.35000000 1.00000000 0.50000000
v 0.35000000 0.00000000 0.50000000
v 0.65000000 1.00000000 0.50000000
v 0.65000000 0.00000000 0.50000000
vt 0.00000000 0.00000000
vt 1.00000000 0.00000000
vt 1.00000000 1.00000000
vt 0.00000000 1.00000000
vt 0.00000000 0.00000000
vt 1.00000000 0.00000000
vt 1.00000000 1.00000000
vt 0.00000000 1.00000000
vt 0.00000000 0.00000000
vt 1.00000000 0.00000000
vt 1.00000000 1.00000000
vt 0.00000000 1.00000000
vt 0.00000000 0.00000000
vt 1.00000000 0.00000000
vt 1.00000000 1.00000000
vt 0.00000000 1.00000000
vt 0.00000000 0.00000000
vt 1.00000000 0.00000000
vt 1.00000000 1.00000000
vt 0.00000000 1.00000000
vt 0.00000000 0.00000000
vt 1.00000000 0.00000000
vt 1.00000000 1.00000000
vt 0.00000000 1.00000000
vt 0.00000000 0.00000000
vt 1.00000000 0.00000000
vt 1.00000000 1.00000000
vt 0.00000000 1.00000000
vt 1.00000000 1.00000000
vt 0.73913043 1.00000000
vt 0.73913043 0.69384215
vt 0.30615785 0.26086957
vt 0.00000000 0.26086957
vt 0.00000000 0.00000000
vt 0.41421356 0.00000000
vt 1.00000000 0.58578644
vt 0.00000000 0.00000000
vt 1.00000000 0.00000000
vt 1.00000000 1.00000000
vt 0.00000000 1.00000000
vt 1.00000000 1.00000000
vt 0.73913043 1.00000000
vt 0.73913043 0.69384215
vt 0.30615785 0.26086957
vt 0.00000000 0.26086957
vt 0.00000000 0.00000000
vt 0.41421356 0.00000000
vt 1.00000000 0.58578644
vn 0.70710678 0.00000000 -0.70710678
vn 0.70710678 0.00000000 -0.70710678
vn 0.70710678 0.00000000 -0.70710678
vn 0.70710678 0.00000000 -0.70710678
vn 0.00000000 0.00000000 -1.00000000
vn 0.00000000 0.00000000 -1.00000000
vn 0.00000000 0.00000000 -1.00000000
vn 0.00000000 0.00000000 -1.00000000
vn -1.00000000 0.00000000 0.00000000
vn -1.00000000 0.00000000 0.00000000
vn -1.00000000 0.00000000 0.00000000
vn -1.00000000 0.00000000 0.00000000
vn -0.00000000 0.00000000 1.00000000
vn -0.00000000 0.00000000 1.00000000
vn -0.00000000 0.00000000 1.00000000
vn -0.00000000 0.00000000 1.00000000
vn -0.70710678 0.00000000 0.70710678
vn -0.70710678 0.00000000 0.70710678
vn -0.70710678 0.00000000 0.70710678
vn -0.70710678 0.00000000 0.70710678
vn -1.00000000 0.00000000 0.00000000
vn -1.00000000 0.00000000 0.00000000
vn -1.00000000 0.00000000 0.00000000
vn -1.00000000 0.00000000 0.00000000
vn 0.00000000 0.00000000 1.00000000
vn 0.00000000 0.00000000 1.00000000
vn 0.00000000 0.00000000 1.00000000
vn 0.00000000 0.00000000 1.00000000
vn 0.00000000 -1.00000000 0.00000000
vn 0.00000000 -1.00000000 0.00000000
vn 0.00000000 -1.00000000 0.00000000
vn 0.00000000 -1.00000000 0.00000000
vn 0.00000000 -1.00000000 0.00000000
vn 0.00000000 -1.00000000 0.00000000
vn 0.00000000 -1.00000000 0.00000000
vn 0.00000000 -1.00000000 0.00000000
vn 1.00000000 0.00000000 0.00000000
vn 1.00000000 0.00000000 0.00000000
vn 1.00000000 0.00000000 0.00000000
vn 1.00000000 0.00000000 0.00000000
vn 0.00000000 1.00000000 0.00000000
vn 0.00000000 1.00000000 0.00000000
vn 0.00000000 1.00000000 0.00000000
vn 0.00000000 1.00000000 0.00000000
vn 0.00000000 1.00000000 0.00000000
vn 0.00000000 1.00000000 0.00000000
vn 0.00000000 1.00000000 0.00000000
vn 0.00000000 1.00000000 0.00000000
s 1
usemtl Dark_Grey
f 4/4/4 3/3/3 1/1/1
f 3/3/3 2/2/2 1/1/1
s 2
f 6/8/8 5/7/7 4/5/5
f 5/7/7 3/6/6 4/5/5
s 3
f 8/12/12 7/11/11 6/9/9
f 7/11/11 5/10/10 6/9/9
s 4
f 10/16/16 9/15/15 8/13/13
f 9/15/15 7/14/14 8/13/13
s 5
f 12/20/20 11/19/19 10/17/17
f 11/19/19 9/18/18 10/17/17
s 6
f 14/24/24 13/23/23 12/21/21
f 13/23/23 11/22/22 12/21/21
s 7
f 16/28/28 15/27/27 14/25/25
f 15/27/27 13/26/26 14/25/25
s 8
f 16/34/34 14/33/33 12/32/32
f 1/35/35 12/32/32 10/31/31
f 10/31/31 6/29/29 4/36/36
f 10/31/31 8/30/30 6/29/29
f 4/36/36 1/35/35 10/31/31
f 1/35/35 16/34/34 12/32/32
s 9
f 1/40/40 2/39/39 16/37/37
f 2/39/39 15/38/38 16/37/37
s 10
f 11/44/44 13/45/45 15/46/46
f 9/43/43 11/44/44 2/47/47
f 9/43/43 2/47/47 3/48/48
f 3/48/48 5/41/41 9/43/43
f 5/41/41 7/42/42 9/43/43
f 11/44/44 15/46/46 2/47/47

