mtllib struct_wall_curved_topper.mtl
o struct_wall_curved_topper
g struct_wall_curved_topper
v -0.02977180 0.00000000 -0.14721360
v 0.02973941 0.10000000 -0.22912374
v -0.22149951 0.10000000 -0.35713637
v -0.25278640 0.00000000 -0.26084521
v 0.14721360 0.00000000 0.02977180
v 0.22912374 0.10000000 -0.02973941
v 0.26084521 0.00000000 0.25278640
v 0.35713637 0.10000000 0.22149951
v 0.30000000 0.00000000 0.50000000
v 0.40124651 0.10000000 0.50000000
v 0.59875349 0.10000000 0.50000000
v 0.70000000 0.00000000 0.50000000
v 0.64126782 0.00000000 0.12917961
v 0.54497666 0.10000000 0.16046650
v 0.47082039 0.00000000 -0.20534230
v 0.38891024 0.10000000 -0.14583110
v 0.20534230 0.00000000 -0.47082039
v 0.14583110 0.10000000 -0.38891024
v -0.12917961 0.00000000 -0.64126782
v -0.16046650 0.10000000 -0.54497666
v -0.50000000 0.00000000 -0.70000000
v -0.50000000 0.10000000 -0.59875349
v -0.50000000 0.10000000 -0.40124651
v -0.50000000 0.00000000 -0.30000000
vt 0.94382973 0.00000000
vt 1.00000000 1.00000000
vt 0.00000000 1.00000000
vt 0.05617027 0.00000000
vt 0.94382973 0.00000000
vt 1.00000000 1.00000000
vt 0.00000000 1.00000000
vt 0.05617027 0.00000000
vt 0.94382973 0.00000000
vt 1.00000000 1.00000000
vt 0.00000000 1.00000000
vt 0.05617027 0.00000000
vt 0.94382973 0.00000000
vt 1.00000000 1.00000000
vt 0.00000000 1.00000000
vt 0.05617027 0.00000000
vt 0.00000000 0.00000000
vt 1.00000000 0.25311628
vt 1.00000000 0.74688372
vt 0.00000000 1.00000000
vt 1.00000000 0.00000000
vt 0.95781395 1.00000000
vt 0.04218605 1.00000000
vt 0.00000000 0.00000000
vt 1.00000000 0.00000000
vt 0.95781395 1.00000000
vt 0.04218605 1.00000000
vt 0.00000000 0.00000000
vt 1.00000000 0.00000000
vt 0.95781395 1.00000000
vt 0.04218605 1.00000000
vt 0.00000000 0.00000000
vt 1.00000000 0.00000000
vt 0.95781395 1.00000000
vt 0.04218605 1.00000000
vt 0.00000000 0.00000000
vt 1.00000000 0.00000000
vt 0.95781395 1.00000000
vt 0.04218605 1.00000000
vt 0.00000000 0.00000000
vt 0.00000000 0.00000000
vt 1.00000000 0.25311628
vt 1.00000000 0.74688372
vt 0.00000000 1.00000000
vt 0.39185683 0.53934466
vt 0.53934466 0.39185683
vt 0.63403768 0.20601133
vt 0.66666667 0.00000000
vt 1.00000000 0.00000000
vt 0.95105652 0.30901699
vt 0.80901699 0.58778525
vt 0.58778525 0.80901699
vt 0.30901699 0.95105652
vt 0.00000000 1.00000000
vt 0.00000000 0.66666667
vt 0.20601133 0.63403768
vt 0.94382973 0.00000000
vt 1.00000000 1.00000000
vt 0.00000000 1.00000000
vt 0.05617027 0.00000000
vt 0.00000000 0.17975549
vt 0.00000000 0.00000000
vt 0.30901699 0.04894348
vt 0.58778525 0.19098301
vt 0.80901699 0.41221475
vt 0.95105652 0.69098301
vt 1.00000000 1.00000000
vt 0.82024451 1.00000000
vt 0.78009888 0.74653051
vt 0.66359175 0.51787238
vt 0.48212762 0.33640825
vt 0.25346949 0.21990112
vn -0.32101976 0.70710678 0.63003676
vn -0.32101976 0.70710678 0.63003676
vn -0.32101976 0.70710678 0.63003676
vn -0.32101976 0.70710678 0.63003676
vn -0.50000000 0.70710678 0.50000000
vn -0.50000000 0.70710678 0.50000000
vn -0.50000000 0.70710678 0.50000000
vn -0.50000000 0.70710678 0.50000000
vn -0.63003676 0.70710678 0.32101976
vn -0.63003676 0.70710678 0.32101976
vn -0.63003676 0.70710678 0.32101976
vn -0.63003676 0.70710678 0.32101976
vn -0.69840112 0.70710678 0.11061587
vn -0.69840112 0.70710678 0.11061587
vn -0.69840112 0.70710678 0.11061587
vn -0.69840112 0.70710678 0.11061587
vn 0.00000000 0.00000000 1.00000000
vn 0.00000000 0.00000000 1.00000000
vn 0.00000000 0.00000000 1.00000000
vn 0.00000000 0.00000000 1.00000000
vn 0.69840112 0.70710678 -0.11061587
vn 0.69840112 0.70710678 -0.11061587
vn 0.69840112 0.70710678 -0.11061587
vn 0.69840112 0.70710678 -0.11061587
vn 0.63003676 0.70710678 -0.32101976
vn 0.63003676 0.70710678 -0.32101976
vn 0.63003676 0.70710678 -0.32101976
vn 0.63003676 0.70710678 -0.32101976
vn 0.50000000 0.70710678 -0.50000000
vn 0.50000000 0.70710678 -0.50000000
vn 0.50000000 0.70710678 -0.50000000
vn 0.50000000 0.70710678 -0.50000000
vn 0.32101976 0.70710678 -0.63003676
vn 0.32101976 0.70710678 -0.63003676
vn 0.32101976 0.70710678 -0.63003676
vn 0.32101976 0.70710678 -0.63003676
vn 0.11061587 0.70710678 -0.69840112
vn 0.11061587 0.70710678 -0.69840112
vn 0.11061587 0.70710678 -0.69840112
vn 0.11061587 0.70710678 -0.69840112
vn -1.00000000 0.00000000 -0.00000000
vn -1.00000000 0.00000000 -0.00000000
vn -1.00000000 0.00000000 -0.00000000
vn -1.00000000 0.00000000 -0.00000000
vn 0.00000000 -1.00000000 0.00000000
vn 0.00000000 -1.00000000 0.00000000
vn 0.00000000 -1.00000000 0.00000000
vn 0.00000000 -1.00000000 0.00000000
vn 0.00000000 -1.00000000 0.00000000
vn 0.00000000 -1.00000000 0.00000000
vn 0.00000000 -1.00000000 0.00000000
vn 0.00000000 -1.00000000 0.00000000
vn 0.00000000 -1.00000000 0.00000000
vn 0.00000000 -1.00000000 0.00000000
vn 0.00000000 -1.00000000 0.00000000
vn 0.00000000 -1.00000000 0.00000000
vn -0.11061587 0.70710678 0.69840112
vn -0.11061587 0.70710678 0.69840112
vn -0.11061587 0.70710678 0.69840112
vn -0.11061587 0.70710678 0.69840112
vn 0.00000000 1.00000000 0.00000000
vn 0.00000000 1.00000000 0.00000000
vn 0.00000000 1.00000000 0.00000000
vn 0.00000000 1.00000000 0.00000000
vn 0.00000000 1.00000000 0.00000000
vn 0.00000000 1.00000000 0.00000000
vn 0.00000000 1.00000000 0.00000000
vn 0.00000000 1.00000000 0.00000000
vn 0.00000000 1.00000000 0.00000000
vn 0.00000000 1.00000000 0.00000000
vn 0.00000000 1.00000000 0.00000000
vn 0.00000000 1.00000000 0.00000000
s 1
usemtl Grey
f 1/1/1 2/2/2 3/3/3
f 1/1/1 3/3/3 4/4/4
s 2
f 5/5/5 6/6/6 2/7/7
f 5/5/5 2/7/7 1/8/8
s 3
f 7/9/9 8/10/10 6/11/11
f 7/9/9 6/11/11 5/12/12
s 4
f 9/13/13 10/14/14 8/15/15
f 9/13/13 8/15/15 7/16/16
s 5
f 12/20/20 11/19/19 9/17/17
f 11/19/19 10/18/18 9/17/17
s 6
f 13/21/21 14/22/22 12/24/24
f 14/22/22 11/23/23 12/24/24
s 7
f 15/25/25 16/26/26 13/28/28
f 16/26/26 14/27/27 13/28/28
s 8
f 17/29/29 18/30/30 15/32/32
f 18/30/30 16/31/31 15/32/32
s 9
f 19/33/33 20/34/34 17/36/36
f 20/34/34 18/35/35 17/36/36
s 10
f 21/37/37 22/38/38 20/39/39
f 21/37/37 20/39/39 19/40/40
s 11
f 24/44/44 23/43/43 21/41/41
f 23/43/43 22/42/42 21/41/41
s 12
f 4/47/47 24/48/48 21/49/49
f 1/46/46 4/47/47 19/50/50
f 1/46/46 19/50/50 17/51/51
f 17/51/51 15/52/52 1/46/46
f 15/52/52 13/53/53 5/45/45
f 13/53/53 7/56/56 5/45/45
f 12/54/54 9/55/55 7/56/56
f 13/53/53 12/54/54 7/56/56
f 15/52/52 5/45/45 1/46/46
f 4/47/47 21/49/49 19/50/50
s 13
f 4/57/57 3/58/58 24/60/60
f 3/58/58 23/59/59 24/60/60
s 14
f 8/72/72 10/61/61 11/62/62
f 6/71/71 8/72/72 14/63/63
f 2/70/70 6/71/71 16/64/64
f 18/65/65 20/66/66 2/70/70
f 20/66/66 22/67/67 3/69/69
f 22/67/67 23/68/68 3/69/69
f 2/70/70 16/64/64 18/65/65
f 20/66/66 3/69/69 2/70/70
f 6/71/71 14/63/63 16/64/64
f 8/72/72 11/62/62 14/63/63

