mtllib struct_wall_big_door_base.mtl
o struct_wall_big_door_base
g struct_wall_big_door_base
v -0.50000000 0.00000000 -0.70000000
v -0.50000000 0.00000000 -0.30000000
v -0.15000000 0.00000000 -0.30000000
v -0.15000000 0.00000000 -0.70000000
v -0.15000000 0.20000000 -0.65000000
v -0.15000000 0.20000000 -0.35000000
v -0.15000000 0.15000000 -0.30000000
v -0.15000000 0.15000000 -0.70000000
v -0.50000000 0.20000000 -0.65000000
v -0.50000000 0.20000000 -0.35000000
v -0.50000000 0.15000000 -0.70000000
v -0.50000000 0.15000000 -0.30000000
vt 1.00000000 1.00000000
vt 0.00000000 1.00000000
vt 0.00000000 0.00000000
vt 1.00000000 0.00000000
vt 0.87500000 1.00000000
vt 0.12500000 1.00000000
vt 0.00000000 0.75000000
vt 0.00000000 0.00000000
vt 1.00000000 0.00000000
vt 1.00000000 0.75000000
vt 1.00000000 1.00000000
vt 0.00000000 1.00000000
vt 0.00000000 0.00000000
vt 1.00000000 0.00000000
vt 0.00000000 0.00000000
vt 1.00000000 0.00000000
vt 1.00000000 1.00000000
vt 0.00000000 1.00000000
vt 0.00000000 0.00000000
vt 1.00000000 0.00000000
vt 1.00000000 1.00000000
vt 0.00000000 1.00000000
vt 0.00000000 0.00000000
vt 1.00000000 0.00000000
vt 1.00000000 1.00000000
vt 0.00000000 1.00000000
vt 0.00000000 1.00000000
vt 0.00000000 0.25000000
vt 0.12500000 0.00000000
vt 0.87500000 0.00000000
vt 1.00000000 0.25000000
vt 1.00000000 1.00000000
vt 0.00000000 0.00000000
vt 1.00000000 0.00000000
vt 1.00000000 1.00000000
vt 0.00000000 1.00000000
vn -0.00000000 -1.00000000 -0.00000000
vn -0.00000000 -1.00000000 -0.00000000
vn -0.00000000 -1.00000000 -0.00000000
vn -0.00000000 -1.00000000 -0.00000000
vn 1.00000000 -0.00000000 0.00000000
vn 1.00000000 -0.00000000 0.00000000
vn 1.00000000 -0.00000000 0.00000000
vn 1.00000000 -0.00000000 0.00000000
vn 1.00000000 -0.00000000 0.00000000
vn 1.00000000 -0.00000000 0.00000000
vn 0.00000000 1.00000000 0.00000000
vn 0.00000000 1.00000000 0.00000000
vn 0.00000000 1.00000000 0.00000000
vn 0.00000000 1.00000000 0.00000000
vn 0.00000000 0.70710678 -0.70710678
vn 0.00000000 0.70710678 -0.70710678
vn 0.00000000 0.70710678 -0.70710678
vn 0.00000000 0.70710678 -0.70710678
vn 0.00000000 0.70710678 0.70710678
vn 0.00000000 0.70710678 0.70710678
vn 0.00000000 0.70710678 0.70710678
vn 0.00000000 0.70710678 0.70710678
vn 0.00000000 0.00000000 -1.00000000
vn 0.00000000 0.00000000 -1.00000000
vn 0.00000000 0.00000000 -1.00000000
vn 0.00000000 0.00000000 -1.00000000
vn -1.00000000 0.00000000 0.00000000
vn -1.00000000 0.00000000 0.00000000
vn -1.00000000 0.00000000 0.00000000
vn -1.00000000 0.00000000 0.00000000
vn -1.00000000 0.00000000 0.00000000
vn -1.00000000 0.00000000 0.00000000
vn 0.00000000 -0.00000000 1.00000000
vn 0.00000000 -0.00000000 1.00000000
vn 0.00000000 -0.00000000 1.00000000
vn 0.00000000 -0.00000000 1.00000000
s 1
usemtl Grey
f 4/4/4 3/3/3 1/1/1
f 3/3/3 2/2/2 1/1/1
s 2
f 6/6/6 7/7/7 3/8/8
f 5/5/5 3/8/8 4/9/9
f 4/9/9 8/10/10 5/5/5
f 5/5/5 6/6/6 3/8/8
s 3
f 9/11/11 10/12/12 6/13/13
f 9/11/11 6/13/13 5/14/14
s 4
f 5/15/15 8/16/16 9/18/18
f 8/16/16 11/17/17 9/18/18
s 5
f 10/19/19 12/20/20 7/21/21
f 10/19/19 7/21/21 6/22/22
s 6
f 8/23/23 4/24/24 11/26/26
f 4/24/24 1/25/25 11/26/26
s 7
f 2/27/27 12/28/28 10/29/29
f 2/27/27 9/30/30 1/32/32
f 9/30/30 11/31/31 1/32/32
f 2/27/27 10/29/29 9/30/30
s 8
f 12/33/33 2/34/34 3/35/35
f 12/33/33 3/35/35 7/36/36
o struct_wall_big_door_base_2
g struct_wall_big_door_base_2
v 1.50000000 0.15000000 -0.70000000
v 1.50000000 0.00000000 -0.70000000
v 1.15000000 0.00000000 -0.70000000
v 1.15000000 0.15000000 -0.70000000
v 1.50000000 0.20000000 -0.65000000
v 1.50000000 0.20000000 -0.35000000
v 1.50000000 0.15000000 -0.30000000
v 1.50000000 0.00000000 -0.30000000
v 1.15000000 0.20000000 -0.65000000
v 1.15000000 0.20000000 -0.35000000
v 1.15000000 0.15000000 -0.30000000
v 1.15000000 0.00000000 -0.30000000
vt 0.00000000 0.00000000
vt 1.00000000 0.00000000
vt 1.00000000 1.00000000
vt 0.00000000 1.00000000
vt 0.87500000 1.00000000
vt 0.12500000 1.00000000
vt 0.00000000 0.75000000
vt 0.00000000 0.00000000
vt 1.00000000 0.00000000
vt 1.00000000 0.75000000
vt 1.00000000 1.00000000
vt 0.00000000 1.00000000
vt 0.00000000 0.00000000
vt 1.00000000 0.00000000
vt 0.00000000 0.00000000
vt 1.00000000 0.00000000
vt 1.00000000 1.00000000
vt 0.00000000 1.00000000
vt 0.00000000 0.00000000
vt 1.00000000 0.00000000
vt 1.00000000 1.00000000
vt 0.00000000 1.00000000
vt 0.00000000 0.00000000
vt 1.00000000 0.00000000
vt 1.00000000 1.00000000
vt 0.00000000 1.00000000
vt 0.00000000 1.00000000
vt 0.00000000 0.25000000
vt 0.12500000 0.00000000
vt 0.87500000 0.00000000
vt 1.00000000 0.25000000
vt 1.00000000 1.00000000
vt 1.00000000 1.00000000
vt 0.00000000 1.00000000
vt 0.00000000 0.00000000
vt 1.00000000 0.00000000
vn -0.00000000 0.00000000 -1.00000000
vn -0.00000000 0.00000000 -1.00000000
vn -0.00000000 0.00000000 -1.00000000
vn -0.00000000 0.00000000 -1.00000000
vn 1.00000000 -0.00000000 0.00000000
vn 1.00000000 -0.00000000 0.00000000
vn 1.00000000 -0.00000000 0.00000000
vn 1.00000000 -0.00000000 0.00000000
vn 1.00000000 -0.00000000 0.00000000
vn 1.00000000 -0.00000000 0.00000000
vn 0.00000000 1.00000000 0.00000000
vn 0.00000000 1.00000000 0.00000000
vn 0.00000000 1.00000000 0.00000000
vn 0.00000000 1.00000000 0.00000000
vn 0.00000000 0.00000000 1.00000000
vn 0.00000000 0.00000000 1.00000000
vn 0.00000000 0.00000000 1.00000000
vn 0.00000000 0.00000000 1.00000000
vn 0.00000000 0.70710678 0.70710678
vn 0.00000000 0.70710678 0.70710678
vn 0.00000000 0.70710678 0.70710678
vn 0.00000000 0.70710678 0.70710678
vn 0.00000000 0.70710678 -0.70710678
vn 0.00000000 0.70710678 -0.70710678
vn 0.00000000 0.70710678 -0.70710678
vn 0.00000000 0.70710678 -0.70710678
vn -1.00000000 0.00000000 0.00000000
vn -1.00000000 0.00000000 0.00000000
vn -1.00000000 0.00000000 0.00000000
vn -1.00000000 0.00000000 0.00000000
vn -1.00000000 0.00000000 0.00000000
vn -1.00000000 0.00000000 0.00000000
vn -0.00000000 -1.00000000 -0.00000000
vn -0.00000000 -1.00000000 -0.00000000
vn -0.00000000 -1.00000000 -0.00000000
vn -0.00000000 -1.00000000 -0.00000000
s 1
usemtl Grey
f 13/37/37 14/38/38 16/40/40
f 14/38/38 15/39/39 16/40/40
s 2
f 18/42/42 19/43/43 20/44/44
f 17/41/41 20/44/44 14/45/45
f 14/45/45 13/46/46 17/41/41
f 17/41/41 18/42/42 20/44/44
s 3
f 21/47/47 22/48/48 18/49/49
f 21/47/47 18/49/49 17/50/50
s 4
f 23/51/51 24/52/52 20/53/53
f 23/51/51 20/53/53 19/54/54
s 5
f 22/55/55 23/56/56 19/57/57
f 22/55/55 19/57/57 18/58/58
s 6
f 17/59/59 13/60/60 21/62/62
f 13/60/60 16/61/61 21/62/62
s 7
f 24/63/63 23/64/64 22/65/65
f 24/63/63 21/66/66 15/68/68
f 21/66/66 16/67/67 15/68/68
f 24/63/63 22/65/65 21/66/66
s 8
f 14/72/72 20/71/71 15/69/69
f 20/71/71 24/70/70 15/69/69

