mtllib struct_wall_joint_base.mtl
o struct_wall_joint_base
g struct_wall_joint_base
v 0.30000000 0.15000000 -0.50000000
v 0.35000000 0.20000000 -0.50000000
v 0.50000000 0.20000000 -0.50000000
v 0.50000000 0.00000000 -0.50000000
v 0.30000000 0.00000000 -0.50000000
v 0.30000000 0.15000000 -0.41715729
v 0.35000000 0.20000000 -0.43786797
v 0.41715729 0.15000000 -0.30000000
v 0.43786797 0.20000000 -0.35000000
v 0.50000000 0.15000000 -0.30000000
v 0.50000000 0.20000000 -0.35000000
v 0.41715729 0.00000000 -0.30000000
v 0.50000000 0.00000000 -0.30000000
v 0.30000000 0.00000000 -0.41715729
vt 0.75000000 0.00000000
vt 1.00000000 0.25000000
vt 1.00000000 1.00000000
vt 0.00000000 1.00000000
vt 0.00000000 0.00000000
vt 0.00000000 0.00000000
vt 1.00000000 0.00000000
vt 1.00000000 1.00000000
vt 0.00000000 1.00000000
vt 0.00000000 0.00000000
vt 1.00000000 0.00000000
vt 1.00000000 1.00000000
vt 0.00000000 1.00000000
vt 0.00000000 0.00000000
vt 1.00000000 0.00000000
vt 1.00000000 1.00000000
vt 0.00000000 1.00000000
vt 0.00000000 0.00000000
vt 1.00000000 0.00000000
vt 1.00000000 1.00000000
vt 0.00000000 1.00000000
vt 0.00000000 0.00000000
vt 1.00000000 0.00000000
vt 1.00000000 1.00000000
vt 0.00000000 1.00000000
vt 0.00000000 0.00000000
vt 1.00000000 0.00000000
vt 1.00000000 1.00000000
vt 0.00000000 1.00000000
vt 0.00000000 0.41421356
vt 0.00000000 0.00000000
vt 1.00000000 0.00000000
vt 1.00000000 1.00000000
vt 0.58578644 1.00000000
vt 0.00000000 0.00000000
vt 1.00000000 0.00000000
vt 1.00000000 1.00000000
vt 0.25000000 1.00000000
vt 0.00000000 0.75000000
vt 0.00000000 0.41421356
vt 0.00000000 0.00000000
vt 1.00000000 0.00000000
vt 1.00000000 1.00000000
vt 0.58578644 1.00000000
vn -0.00000000 0.00000000 -1.00000000
vn -0.00000000 0.00000000 -1.00000000
vn -0.00000000 0.00000000 -1.00000000
vn -0.00000000 0.00000000 -1.00000000
vn -0.00000000 0.00000000 -1.00000000
vn -0.70710678 0.70710678 -0.00000000
vn -0.70710678 0.70710678 0.00000000
vn -0.70710678 0.70710678 0.00000000
vn -0.70710678 0.70710678 -0.00000000
vn -0.50000000 0.70710678 0.50000000
vn -0.50000000 0.70710678 0.50000000
vn -0.50000000 0.70710678 0.50000000
vn -0.50000000 0.70710678 0.50000000
vn 0.00000000 0.70710678 0.70710678
vn 0.00000000 0.70710678 0.70710678
vn 0.00000000 0.70710678 0.70710678
vn 0.00000000 0.70710678 0.70710678
vn 0.00000000 0.00000000 1.00000000
vn 0.00000000 0.00000000 1.00000000
vn 0.00000000 0.00000000 1.00000000
vn 0.00000000 0.00000000 1.00000000
vn -0.70710678 0.00000000 0.70710678
vn -0.70710678 0.00000000 0.70710678
vn -0.70710678 0.00000000 0.70710678
vn -0.70710678 0.00000000 0.70710678
vn -1.00000000 0.00000000 0.00000000
vn -1.00000000 0.00000000 0.00000000
vn -1.00000000 0.00000000 0.00000000
vn -1.00000000 0.00000000 0.00000000
vn -0.00000000 -1.00000000 -0.00000000
vn -0.00000000 -1.00000000 -0.00000000
vn -0.00000000 -1.00000000 -0.00000000
vn -0.00000000 -1.00000000 -0.00000000
vn -0.00000000 -1.00000000 -0.00000000
vn 1.00000000 -0.00000000 0.00000000
vn 1.00000000 -0.00000000 0.00000000
vn 1.00000000 -0.00000000 0.00000000
vn 1.00000000 -0.00000000 0.00000000
vn 1.00000000 -0.00000000 0.00000000
vn 0.00000000 1.00000000 0.00000000
vn 0.00000000 1.00000000 0.00000000
vn 0.00000000 1.00000000 0.00000000
vn 0.00000000 1.00000000 0.00000000
vn 0.00000000 1.00000000 0.00000000
s 1
usemtl Grey
f 1/1/1 2/2/2 3/3/3
f 1/1/1 3/3/3 4/4/4
f 4/4/4 5/5/5 1/1/1
s 2
f 2/6/6 1/7/7 7/9/9
f 1/7/7 6/8/8 7/9/9
s 3
f 7/10/10 6/11/11 9/13/13
f 6/11/11 8/12/12 9/13/13
s 4
f 9/14/14 8/15/15 10/16/16
f 9/14/14 10/16/16 11/17/17
s 5
f 8/18/18 12/19/19 10/21/21
f 12/19/19 13/20/20 10/21/21
s 6
f 6/22/22 14/23/23 8/25/25
f 14/23/23 12/24/24 8/25/25
s 7
f 1/26/26 5/27/27 6/29/29
f 5/27/27 14/28/28 6/29/29
s 8
f 13/31/31 12/30/30 14/34/34
f 14/34/34 5/33/33 4/32/32
f 14/34/34 4/32/32 13/31/31
s 9
f 3/37/37 11/38/38 10/39/39
f 10/39/39 13/35/35 4/36/36
f 4/36/36 3/37/37 10/39/39
s 10
f 2/43/43 7/44/44 9/40/40
f 9/40/40 11/41/41 3/42/42
f 9/40/40 3/42/42 2/43/43

