mtllib struct_wall_curved_base.mtl
o struct_wall_curved_base
g struct_wall_curved_base
v 0.64126782 0.15000000 0.12917961
v 0.59371499 0.20000000 0.14463046
v 0.43036954 0.20000000 -0.17595304
v 0.47082039 0.15000000 -0.20534230
v 0.17595304 0.20000000 -0.43036954
v 0.20534230 0.15000000 -0.47082039
v -0.14463046 0.20000000 -0.59371499
v -0.12917961 0.15000000 -0.64126782
v -0.50000000 0.20000000 -0.65000000
v -0.50000000 0.15000000 -0.70000000
v -0.50000000 0.00000000 -0.30000000
v -0.50000000 0.15000000 -0.30000000
v -0.50000000 0.20000000 -0.35000000
v -0.50000000 0.00000000 -0.70000000
v -0.25278640 0.00000000 -0.26084521
v -0.25278640 0.15000000 -0.26084521
v -0.02977180 0.00000000 -0.14721360
v -0.02977180 0.15000000 -0.14721360
v -0.23733555 0.20000000 -0.30839804
v -0.00038254 0.20000000 -0.18766445
v 0.18766445 0.20000000 0.00038254
v 0.14721360 0.15000000 0.02977180
v 0.30839804 0.20000000 0.23733555
v 0.26084521 0.15000000 0.25278640
v 0.35000000 0.20000000 0.50000000
v 0.30000000 0.15000000 0.50000000
v 0.70000000 -0.00000000 0.50000000
v 0.70000000 0.15000000 0.50000000
v 0.65000000 0.20000000 0.50000000
v 0.30000000 0.00000000 0.50000000
v 0.64126782 -0.00000000 0.12917961
v 0.26084521 0.00000000 0.25278640
v 0.14721360 0.00000000 0.02977180
v 0.47082039 -0.00000000 -0.20534230
v 0.20534230 0.00000000 -0.47082039
v -0.12917961 0.00000000 -0.64126782
vt 0.00000000 0.00000000
vt 1.00000000 0.00000000
vt 1.00000000 1.00000000
vt 0.00000000 1.00000000
vt 0.00000000 0.00000000
vt 1.00000000 0.00000000
vt 1.00000000 1.00000000
vt 0.00000000 1.00000000
vt 0.00000000 0.00000000
vt 1.00000000 0.00000000
vt 1.00000000 1.00000000
vt 0.00000000 1.00000000
vt 0.00000000 0.00000000
vt 1.00000000 0.00000000
vt 1.00000000 1.00000000
vt 0.00000000 1.00000000
vt 0.00000000 1.00000000
vt 0.00000000 0.25000000
vt 0.12500000 0.00000000
vt 0.87500000 0.00000000
vt 1.00000000 0.25000000
vt 1.00000000 1.00000000
vt 0.00000000 0.00000000
vt 1.00000000 0.00000000
vt 1.00000000 1.00000000
vt 0.00000000 1.00000000
vt 0.00000000 0.00000000
vt 1.00000000 0.00000000
vt 1.00000000 1.00000000
vt 0.00000000 1.00000000
vt 0.00000000 0.00000000
vt 1.00000000 0.00000000
vt 1.00000000 1.00000000
vt 0.00000000 1.00000000
vt 0.00000000 0.00000000
vt 1.00000000 0.00000000
vt 1.00000000 1.00000000
vt 0.00000000 1.00000000
vt 0.00000000 0.00000000
vt 1.00000000 0.00000000
vt 1.00000000 1.00000000
vt 0.00000000 1.00000000
vt 0.00000000 0.00000000
vt 1.00000000 0.00000000
vt 1.00000000 1.00000000
vt 0.00000000 1.00000000
vt 0.00000000 0.00000000
vt 0.75000000 0.00000000
vt 1.00000000 0.12500000
vt 1.00000000 0.87500000
vt 0.75000000 1.00000000
vt 0.00000000 1.00000000
vt 0.00000000 0.00000000
vt 1.00000000 0.00000000
vt 1.00000000 1.00000000
vt 0.00000000 1.00000000
vt 0.00000000 0.00000000
vt 1.00000000 0.00000000
vt 1.00000000 1.00000000
vt 0.00000000 1.00000000
vt 0.00000000 0.00000000
vt 1.00000000 0.00000000
vt 1.00000000 1.00000000
vt 0.00000000 1.00000000
vt 0.00000000 0.00000000
vt 1.00000000 0.00000000
vt 1.00000000 1.00000000
vt 0.00000000 1.00000000
vt 0.00000000 0.00000000
vt 0.30901699 0.04894348
vt 0.58778525 0.19098301
vt 0.80901699 0.41221475
vt 0.95105652 0.69098301
vt 1.00000000 1.00000000
vt 0.66666667 1.00000000
vt 0.63403768 0.79398867
vt 0.53934466 0.60814317
vt 0.39185683 0.46065534
vt 0.20601133 0.36596232
vt 0.00000000 0.33333333
vt 0.00000000 0.00000000
vt 1.00000000 0.00000000
vt 1.00000000 1.00000000
vt 0.00000000 1.00000000
vt 0.00000000 0.00000000
vt 1.00000000 0.00000000
vt 1.00000000 1.00000000
vt 0.00000000 1.00000000
vt 0.00000000 0.00000000
vt 1.00000000 0.00000000
vt 1.00000000 1.00000000
vt 0.00000000 1.00000000
vt 0.00000000 0.00000000
vt 1.00000000 0.00000000
vt 1.00000000 1.00000000
vt 0.00000000 1.00000000
vt 0.00000000 0.00000000
vt 1.00000000 0.00000000
vt 1.00000000 1.00000000
vt 0.00000000 1.00000000
vt 0.00000000 0.00000000
vt 1.00000000 0.00000000
vt 1.00000000 1.00000000
vt 0.00000000 1.00000000
vt 0.00000000 0.00000000
vt 0.30901699 0.04894348
vt 0.58778525 0.19098301
vt 0.80901699 0.41221475
vt 0.95105652 0.69098301
vt 1.00000000 1.00000000
vt 0.73913043 1.00000000
vt 0.70295482 0.77159613
vt 0.59796908 0.56555003
vt 0.43444997 0.40203092
vt 0.22840387 0.29704518
vt 0.00000000 0.26086957
vn 0.63392702 0.70271351 -0.32300195
vn 0.63392702 0.70271351 -0.32300195
vn 0.63392702 0.70271351 -0.32300195
vn 0.63392702 0.70271351 -0.32300195
vn 0.50308733 0.70271351 -0.50308733
vn 0.50308733 0.70271351 -0.50308733
vn 0.50308733 0.70271351 -0.50308733
vn 0.50308733 0.70271351 -0.50308733
vn 0.32300195 0.70271351 -0.63392702
vn 0.32300195 0.70271351 -0.63392702
vn 0.32300195 0.70271351 -0.63392702
vn 0.32300195 0.70271351 -0.63392702
vn 0.11129889 0.70271351 -0.70271351
vn 0.11129889 0.70271351 -0.70271351
vn 0.11129889 0.70271351 -0.70271351
vn 0.11129889 0.70271351 -0.70271351
vn -1.00000000 -0.00000000 0.00000000
vn -1.00000000 -0.00000000 0.00000000
vn -1.00000000 -0.00000000 0.00000000
vn -1.00000000 -0.00000000 0.00000000
vn -1.00000000 -0.00000000 0.00000000
vn -1.00000000 -0.00000000 0.00000000
vn -0.15643447 0.00000000 0.98768834
vn -0.15643447 0.00000000 0.98768834
vn -0.15643447 0.00000000 0.98768834
vn -0.15643447 0.00000000 0.98768834
vn -0.45399050 0.00000000 0.89100652
vn -0.45399050 0.00000000 0.89100652
vn -0.45399050 0.00000000 0.89100652
vn -0.45399050 0.00000000 0.89100652
vn -0.32300195 0.70271351 0.63392702
vn -0.32300195 0.70271351 0.63392702
vn -0.32300195 0.70271351 0.63392702
vn -0.32300195 0.70271351 0.63392702
vn -0.50308733 0.70271351 0.50308733
vn -0.50308733 0.70271351 0.50308733
vn -0.50308733 0.70271351 0.50308733
vn -0.50308733 0.70271351 0.50308733
vn -0.63392702 0.70271351 0.32300195
vn -0.63392702 0.70271351 0.32300195
vn -0.63392702 0.70271351 0.32300195
vn -0.63392702 0.70271351 0.32300195
vn -0.70271351 0.70271351 0.11129889
vn -0.70271351 0.70271351 0.11129889
vn -0.70271351 0.70271351 0.11129889
vn -0.70271351 0.70271351 0.11129889
vn 0.00000000 -0.00000000 1.00000000
vn 0.00000000 -0.00000000 1.00000000
vn 0.00000000 -0.00000000 1.00000000
vn 0.00000000 -0.00000000 1.00000000
vn 0.00000000 -0.00000000 1.00000000
vn 0.00000000 -0.00000000 1.00000000
vn 0.98768834 -0.00000000 -0.15643447
vn 0.98768834 -0.00000000 -0.15643447
vn 0.98768834 -0.00000000 -0.15643447
vn 0.98768834 -0.00000000 -0.15643447
vn -0.98768834 0.00000000 0.15643447
vn -0.98768834 0.00000000 0.15643447
vn -0.98768834 0.00000000 0.15643447
vn -0.98768834 0.00000000 0.15643447
vn -0.89100652 0.00000000 0.45399050
vn -0.89100652 0.00000000 0.45399050
vn -0.89100652 0.00000000 0.45399050
vn -0.89100652 0.00000000 0.45399050
vn -0.70710678 0.00000000 0.70710678
vn -0.70710678 0.00000000 0.70710678
vn -0.70710678 0.00000000 0.70710678
vn -0.70710678 0.00000000 0.70710678
vn -0.00000000 -1.00000000 -0.00000000
vn -0.00000000 -1.00000000 -0.00000000
vn -0.00000000 -1.00000000 -0.00000000
vn -0.00000000 -1.00000000 -0.00000000
vn -0.00000000 -1.00000000 -0.00000000
vn -0.00000000 -1.00000000 -0.00000000
vn -0.00000000 -1.00000000 -0.00000000
vn -0.00000000 -1.00000000 -0.00000000
vn -0.00000000 -1.00000000 -0.00000000
vn -0.00000000 -1.00000000 -0.00000000
vn -0.00000000 -1.00000000 -0.00000000
vn -0.00000000 -1.00000000 -0.00000000
vn -0.11129889 0.70271351 0.70271351
vn -0.11129889 0.70271351 0.70271351
vn -0.11129889 0.70271351 0.70271351
vn -0.11129889 0.70271351 0.70271351
vn 0.15643447 0.00000000 -0.98768834
vn 0.15643447 0.00000000 -0.98768834
vn 0.15643447 0.00000000 -0.98768834
vn 0.15643447 0.00000000 -0.98768834
vn 0.45399050 -0.00000000 -0.89100652
vn 0.45399050 -0.00000000 -0.89100652
vn 0.45399050 -0.00000000 -0.89100652
vn 0.45399050 -0.00000000 -0.89100652
vn 0.70710678 -0.00000000 -0.70710678
vn 0.70710678 -0.00000000 -0.70710678
vn 0.70710678 -0.00000000 -0.70710678
vn 0.70710678 -0.00000000 -0.70710678
vn 0.89100652 -0.00000000 -0.45399050
vn 0.89100652 -0.00000000 -0.45399050
vn 0.89100652 -0.00000000 -0.45399050
vn 0.89100652 -0.00000000 -0.45399050
vn 0.70271351 0.70271351 -0.11129889
vn 0.70271351 0.70271351 -0.11129889
vn 0.70271351 0.70271351 -0.11129889
vn 0.70271351 0.70271351 -0.11129889
vn 0.00000000 1.00000000 0.00000000
vn 0.00000000 1.00000000 0.00000000
vn 0.00000000 1.00000000 0.00000000
vn 0.00000000 1.00000000 0.00000000
vn 0.00000000 1.00000000 0.00000000
vn 0.00000000 1.00000000 0.00000000
vn 0.00000000 1.00000000 0.00000000
vn 0.00000000 1.00000000 0.00000000
vn 0.00000000 1.00000000 0.00000000
vn 0.00000000 1.00000000 0.00000000
vn 0.00000000 1.00000000 0.00000000
vn 0.00000000 1.00000000 0.00000000
s 1
usemtl Grey
f 4/4/4 3/3/3 1/1/1
f 3/3/3 2/2/2 1/1/1
s 2
f 6/8/8 5/7/7 4/5/5
f 5/7/7 3/6/6 4/5/5
s 3
f 8/12/12 7/11/11 6/9/9
f 7/11/11 5/10/10 6/9/9
s 4
f 10/16/16 9/15/15 8/13/13
f 9/15/15 7/14/14 8/13/13
s 5
f 9/20/20 10/21/21 14/22/22
f 11/17/17 13/19/19 14/22/22
f 11/17/17 12/18/18 13/19/19
f 13/19/19 9/20/20 14/22/22
s 6
f 12/23/23 11/24/24 16/26/26
f 11/24/24 15/25/25 16/26/26
s 7
f 16/27/27 15/28/28 18/30/30
f 15/28/28 17/29/29 18/30/30
s 8
f 18/34/34 20/33/33 19/32/32
f 18/34/34 19/32/32 16/31/31
s 9
f 22/38/38 21/37/37 20/36/36
f 22/38/38 20/36/36 18/35/35
s 10
f 24/42/42 23/41/41 21/40/40
f 24/42/42 21/40/40 22/39/39
s 11
f 26/46/46 25/45/45 23/44/44
f 26/46/46 23/44/44 24/43/43
s 12
f 27/47/47 28/48/48 29/49/49
f 27/47/47 25/50/50 30/52/52
f 25/50/50 26/51/51 30/52/52
f 27/47/47 29/49/49 25/50/50
s 13
f 28/53/53 27/54/54 1/56/56
f 27/54/54 31/55/55 1/56/56
s 14
f 24/57/57 32/58/58 26/60/60
f 32/58/58 30/59/59 26/60/60
s 15
f 22/61/61 33/62/62 24/64/64
f 33/62/62 32/63/63 24/64/64
s 16
f 18/65/65 17/66/66 22/68/68
f 17/66/66 33/67/67 22/68/68
s 17
f 15/76/76 11/75/75 14/74/74
f 17/77/77 15/76/76 36/73/73
f 17/77/77 36/73/73 35/72/72
f 35/72/72 34/71/71 17/77/77
f 34/71/71 31/70/70 33/78/78
f 31/70/70 32/79/79 33/78/78
f 27/69/69 30/80/80 32/79/79
f 31/70/70 27/69/69 32/79/79
f 34/71/71 33/78/78 17/77/77
f 15/76/76 14/74/74 36/73/73
s 18
f 16/84/84 19/83/83 12/81/81
f 19/83/83 13/82/82 12/81/81
s 19
f 8/85/85 36/86/86 14/87/87
f 8/85/85 14/87/87 10/88/88
s 20
f 6/89/89 35/90/90 8/92/92
f 35/90/90 36/91/91 8/92/92
s 21
f 4/93/93 34/94/94 6/96/96
f 34/94/94 35/95/95 6/96/96
s 22
f 1/97/97 31/98/98 4/100/100
f 31/98/98 34/99/99 4/100/100
s 23
f 1/104/104 2/103/103 28/101/101
f 2/103/103 29/102/102 28/101/101
s 24
f 9/110/110 13/111/111 19/112/112
f 7/109/109 19/112/112 20/113/113
f 5/108/108 20/113/113 21/114/114
f 3/107/107 21/114/114 23/115/115
f 29/105/105 2/106/106 23/115/115
f 23/115/115 25/116/116 29/105/105
f 2/106/106 3/107/107 23/115/115
f 3/107/107 5/108/108 21/114/114
f 5/108/108 7/109/109 20/113/113
f 7/109/109 9/110/110 19/112/112

