mtllib struct_wall_big_door_top.mtl
o struct_wall_big_door_top
g struct_wall_big_door_top
v 1.15000000 0.80000000 -0.70000000
v 1.15000000 0.80000000 -0.30000000
v 1.50000000 0.80000000 -0.30000000
v 1.50000000 0.80000000 -0.70000000
v 1.50000000 1.00000000 -0.30000000
v 1.50000000 1.00000000 -0.70000000
v 1.15000000 1.00000000 -0.70000000
v 1.15000000 1.00000000 -0.30000000
vt 1.00000000 1.00000000
vt 0.00000000 1.00000000
vt 0.00000000 0.00000000
vt 1.00000000 0.00000000
vt 0.00000000 0.00000000
vt 1.00000000 0.00000000
vt 1.00000000 1.00000000
vt 0.00000000 1.00000000
vt 1.00000000 1.00000000
vt 0.00000000 1.00000000
vt 0.00000000 0.00000000
vt 1.00000000 0.00000000
vt 0.00000000 0.00000000
vt 1.00000000 0.00000000
vt 1.00000000 1.00000000
vt 0.00000000 1.00000000
vt 0.00000000 0.00000000
vt 1.00000000 0.00000000
vt 1.00000000 1.00000000
vt 0.00000000 1.00000000
vt 0.00000000 0.00000000
vt 1.00000000 0.00000000
vt 1.00000000 1.00000000
vt 0.00000000 1.00000000
vn 0.00000000 -1.00000000 0.00000000
vn 0.00000000 -1.00000000 0.00000000
vn 0.00000000 -1.00000000 0.00000000
vn 0.00000000 -1.00000000 0.00000000
vn 1.00000000 -0.00000000 0.00000000
vn 1.00000000 -0.00000000 0.00000000
vn 1.00000000 -0.00000000 0.00000000
vn 1.00000000 -0.00000000 0.00000000
vn -0.00000000 1.00000000 -0.00000000
vn -0.00000000 1.00000000 -0.00000000
vn -0.00000000 1.00000000 -0.00000000
vn -0.00000000 1.00000000 -0.00000000
vn 0.00000000 0.00000000 -1.00000000
vn 0.00000000 0.00000000 -1.00000000
vn 0.00000000 0.00000000 -1.00000000
vn 0.00000000 0.00000000 -1.00000000
vn -1.00000000 0.00000000 0.00000000
vn -1.00000000 0.00000000 0.00000000
vn -1.00000000 0.00000000 0.00000000
vn -1.00000000 0.00000000 0.00000000
vn 0.00000000 0.00000000 1.00000000
vn 0.00000000 0.00000000 1.00000000
vn 0.00000000 0.00000000 1.00000000
vn 0.00000000 0.00000000 1.00000000
s 1
usemtl Grey
f 4/4/4 3/3/3 1/1/1
f 3/3/3 2/2/2 1/1/1
s 2
f 4/8/8 6/7/7 5/6/6
f 4/8/8 5/6/6 3/5/5
s 3
f 7/9/9 8/10/10 5/11/11
f 7/9/9 5/11/11 6/12/12
s 4
f 1/16/16 7/15/15 4/13/13
f 7/15/15 6/14/14 4/13/13
s 5
f 2/20/20 8/19/19 7/18/18
f 2/20/20 7/18/18 1/17/17
s 6
f 3/24/24 5/23/23 2/21/21
f 5/23/23 8/22/22 2/21/21
o struct_wall_big_door_top_2
g struct_wall_big_door_top_2
v -0.50000000 0.80000000 -0.70000000
v -0.50000000 0.80000000 -0.30000000
v -0.15000000 0.80000000 -0.30000000
v -0.15000000 0.80000000 -0.70000000
v -0.15000000 1.00000000 -0.30000000
v -0.15000000 1.00000000 -0.70000000
v -0.50000000 1.00000000 -0.70000000
v -0.50000000 1.00000000 -0.30000000
vt 1.00000000 1.00000000
vt 0.00000000 1.00000000
vt 0.00000000 0.00000000
vt 1.00000000 0.00000000
vt 0.00000000 0.00000000
vt 1.00000000 0.00000000
vt 1.00000000 1.00000000
vt 0.00000000 1.00000000
vt 1.00000000 1.00000000
vt 0.00000000 1.00000000
vt 0.00000000 0.00000000
vt 1.00000000 0.00000000
vt 0.00000000 0.00000000
vt 1.00000000 0.00000000
vt 1.00000000 1.00000000
vt 0.00000000 1.00000000
vt 0.00000000 0.00000000
vt 1.00000000 0.00000000
vt 1.00000000 1.00000000
vt 0.00000000 1.00000000
vt 0.00000000 0.00000000
vt 1.00000000 0.00000000
vt 1.00000000 1.00000000
vt 0.00000000 1.00000000
vn 0.00000000 -1.00000000 0.00000000
vn 0.00000000 -1.00000000 0.00000000
vn 0.00000000 -1.00000000 0.00000000
vn 0.00000000 -1.00000000 0.00000000
vn 1.00000000 -0.00000000 0.00000000
vn 1.00000000 -0.00000000 0.00000000
vn 1.00000000 -0.00000000 0.00000000
vn 1.00000000 -0.00000000 0.00000000
vn -0.00000000 1.00000000 -0.00000000
vn -0.00000000 1.00000000 -0.00000000
vn -0.00000000 1.00000000 -0.00000000
vn -0.00000000 1.00000000 -0.00000000
vn -0.00000000 0.00000000 -1.00000000
vn -0.00000000 0.00000000 -1.00000000
vn -0.00000000 0.00000000 -1.00000000
vn -0.00000000 0.00000000 -1.00000000
vn -1.00000000 0.00000000 0.00000000
vn -1.00000000 0.00000000 0.00000000
vn -1.00000000 0.00000000 0.00000000
vn -1.00000000 0.00000000 0.00000000
vn 0.00000000 0.00000000 1.00000000
vn 0.00000000 0.00000000 1.00000000
vn 0.00000000 0.00000000 1.00000000
vn 0.00000000 0.00000000 1.00000000
s 1
usemtl Grey
f 12/28/28 11/27/27 9/25/25
f 11/27/27 10/26/26 9/25/25
s 2
f 12/32/32 14/31/31 13/30/30
f 12/32/32 13/30/30 11/29/29
s 3
f 15/33/33 16/34/34 13/35/35
f 15/33/33 13/35/35 14/36/36
s 4
f 9/40/40 15/39/39 14/38/38
f 9/40/40 14/38/38 12/37/37
s 5
f 10/44/44 16/43/43 15/42/42
f 10/44/44 15/42/42 9/41/41
s 6
f 11/48/48 13/47/47 10/45/45
f 13/47/47 16/46/46 10/45/45

