mtllib struct_wall_cell_door_main.mtl
o struct_wall_cell_door_main
g struct_wall_cell_door_main
v 0.25000000 0.00000000 -0.40000000
v 0.30000000 0.00000000 -0.35000000
v 0.30000000 0.95000000 -0.35000000
v 0.25000000 0.90000000 -0.40000000
v 0.50000000 0.00000000 -0.65000000
v 0.30000000 0.00000000 -0.65000000
v 0.25000000 0.00000000 -0.60000000
v 0.50000000 0.00000000 -0.35000000
v 0.50000000 1.00000000 -0.35000000
v 0.50000000 1.00000000 -0.65000000
v -0.50000000 1.00000000 -0.35000000
v -0.50000000 1.00000000 -0.65000000
v -0.50000000 0.00000000 -0.65000000
v -0.50000000 0.00000000 -0.35000000
v -0.25000000 0.00000000 -0.40000000
v -0.25000000 0.00000000 -0.60000000
v -0.30000000 0.00000000 -0.65000000
v -0.30000000 0.00000000 -0.35000000
v -0.25000000 0.90000000 -0.40000000
v -0.30000000 0.95000000 -0.35000000
v -0.25000000 0.90000000 -0.60000000
v 0.25000000 0.90000000 -0.60000000
v 0.30000000 0.95000000 -0.65000000
v -0.30000000 0.95000000 -0.65000000
vt 0.00000000 1.00000000
vt 0.00000000 0.00000000
vt 1.00000000 0.00000000
vt 0.94736842 1.00000000
vt 1.00000000 0.00000000
vt 1.00000000 0.80000000
vt 0.83333333 1.00000000
vt 0.16666667 1.00000000
vt 0.00000000 0.80000000
vt 0.00000000 0.00000000
vt 0.00000000 0.00000000
vt 1.00000000 0.00000000
vt 1.00000000 1.00000000
vt 0.00000000 1.00000000
vt 0.00000000 1.00000000
vt 0.00000000 0.00000000
vt 1.00000000 0.00000000
vt 1.00000000 1.00000000
vt 0.00000000 0.00000000
vt 1.00000000 0.00000000
vt 1.00000000 1.00000000
vt 0.00000000 1.00000000
vt 0.16666667 0.00000000
vt 0.83333333 0.00000000
vt 1.00000000 0.20000000
vt 1.00000000 1.00000000
vt 0.00000000 1.00000000
vt 0.00000000 0.20000000
vt 0.00000000 1.00000000
vt 0.00000000 0.00000000
vt 0.94736842 0.00000000
vt 1.00000000 1.00000000
vt 1.00000000 1.00000000
vt 0.00000000 1.00000000
vt 0.00000000 0.00000000
vt 1.00000000 0.00000000
vt 1.00000000 1.00000000
vt 0.00000000 1.00000000
vt 0.00000000 0.00000000
vt 1.00000000 0.00000000
vt 0.00000000 1.00000000
vt 0.08333333 0.00000000
vt 0.91666667 0.00000000
vt 1.00000000 1.00000000
vt 0.00000000 1.00000000
vt 0.05263158 0.00000000
vt 1.00000000 0.00000000
vt 1.00000000 1.00000000
vt 0.95000000 0.80000000
vt 0.95000000 0.20000000
vt 0.00000000 0.20000000
vt 0.00000000 0.00000000
vt 1.00000000 0.00000000
vt 1.00000000 1.00000000
vt 0.00000000 1.00000000
vt 0.00000000 0.80000000
vt 0.05263158 1.00000000
vt 0.00000000 0.00000000
vt 1.00000000 0.00000000
vt 1.00000000 1.00000000
vt 1.00000000 1.00000000
vt 0.00000000 1.00000000
vt 0.00000000 0.00000000
vt 1.00000000 0.00000000
vt 0.00000000 1.00000000
vt 0.08333333 0.00000000
vt 0.91666667 0.00000000
vt 1.00000000 1.00000000
vt 0.00000000 1.00000000
vt 0.00000000 0.80000000
vt 0.95000000 0.80000000
vt 0.95000000 0.20000000
vt 0.00000000 0.20000000
vt 0.00000000 0.00000000
vt 1.00000000 0.00000000
vt 1.00000000 1.00000000
vn -0.70710678 0.00000000 0.70710678
vn -0.70710678 0.00000000 0.70710678
vn -0.70710678 0.00000000 0.70710678
vn -0.70710678 0.00000000 0.70710678
vn 0.00000000 -1.00000000 0.00000000
vn 0.00000000 -1.00000000 0.00000000
vn 0.00000000 -1.00000000 0.00000000
vn 0.00000000 -1.00000000 0.00000000
vn 0.00000000 -1.00000000 0.00000000
vn 0.00000000 -1.00000000 0.00000000
vn 1.00000000 0.00000000 0.00000000
vn 1.00000000 0.00000000 0.00000000
vn 1.00000000 0.00000000 0.00000000
vn 1.00000000 0.00000000 0.00000000
vn 0.00000000 1.00000000 0.00000000
vn 0.00000000 1.00000000 0.00000000
vn 0.00000000 1.00000000 0.00000000
vn 0.00000000 1.00000000 0.00000000
vn -1.00000000 0.00000000 0.00000000
vn -1.00000000 0.00000000 0.00000000
vn -1.00000000 0.00000000 0.00000000
vn -1.00000000 0.00000000 0.00000000
vn 0.00000000 -1.00000000 0.00000000
vn 0.00000000 -1.00000000 0.00000000
vn 0.00000000 -1.00000000 0.00000000
vn 0.00000000 -1.00000000 0.00000000
vn 0.00000000 -1.00000000 0.00000000
vn 0.00000000 -1.00000000 0.00000000
vn 0.70710678 0.00000000 0.70710678
vn 0.70710678 0.00000000 0.70710678
vn 0.70710678 0.00000000 0.70710678
vn 0.70710678 0.00000000 0.70710678
vn 1.00000000 0.00000000 0.00000000
vn 1.00000000 0.00000000 0.00000000
vn 1.00000000 0.00000000 0.00000000
vn 1.00000000 0.00000000 0.00000000
vn 0.00000000 -1.00000000 0.00000000
vn 0.00000000 -1.00000000 0.00000000
vn 0.00000000 -1.00000000 0.00000000
vn 0.00000000 -1.00000000 0.00000000
vn 0.00000000 -0.70710678 -0.70710678
vn 0.00000000 -0.70710678 -0.70710678
vn 0.00000000 -0.70710678 -0.70710678
vn 0.00000000 -0.70710678 -0.70710678
vn 0.70710678 0.00000000 -0.70710678
vn 0.70710678 0.00000000 -0.70710678
vn 0.70710678 0.00000000 -0.70710678
vn 0.70710678 0.00000000 -0.70710678
vn 0.00000000 0.00000000 -1.00000000
vn 0.00000000 0.00000000 -1.00000000
vn 0.00000000 0.00000000 -1.00000000
vn 0.00000000 0.00000000 -1.00000000
vn 0.00000000 0.00000000 -1.00000000
vn 0.00000000 0.00000000 -1.00000000
vn 0.00000000 0.00000000 -1.00000000
vn 0.00000000 0.00000000 -1.00000000
vn -0.70710678 0.00000000 -0.70710678
vn -0.70710678 0.00000000 -0.70710678
vn -0.70710678 0.00000000 -0.70710678
vn -0.70710678 0.00000000 -0.70710678
vn -1.00000000 0.00000000 0.00000000
vn -1.00000000 0.00000000 0.00000000
vn -1.00000000 0.00000000 0.00000000
vn -1.00000000 0.00000000 0.00000000
vn 0.00000000 -0.70710678 0.70710678
vn 0.00000000 -0.70710678 0.70710678
vn 0.00000000 -0.70710678 0.70710678
vn 0.00000000 -0.70710678 0.70710678
vn 0.00000000 0.00000000 1.00000000
vn 0.00000000 0.00000000 1.00000000
vn 0.00000000 0.00000000 1.00000000
vn 0.00000000 0.00000000 1.00000000
vn 0.00000000 0.00000000 1.00000000
vn 0.00000000 0.00000000 1.00000000
vn 0.00000000 0.00000000 1.00000000
vn 0.00000000 0.00000000 1.00000000
s 1
usemtl Dark_Grey
f 1/1/1 2/2/2 4/4/4
f 2/2/2 3/3/3 4/4/4
s 2
f 7/7/7 6/6/6 5/5/5
f 8/10/10 1/8/8 5/5/5
f 8/10/10 2/9/9 1/8/8
f 1/8/8 7/7/7 5/5/5
s 3
f 5/14/14 10/13/13 8/11/11
f 10/13/13 9/12/12 8/11/11
s 4
f 11/15/15 9/16/16 10/17/17
f 11/15/15 10/17/17 12/18/18
s 5
f 14/22/22 11/21/21 13/19/19
f 11/21/21 12/20/20 13/19/19
s 6
f 17/25/25 16/24/24 15/23/23
f 14/27/27 13/26/26 15/23/23
f 15/23/23 18/28/28 14/27/27
f 13/26/26 17/25/25 15/23/23
s 7
f 18/29/29 15/30/30 19/31/31
f 18/29/29 19/31/31 20/32/32
s 8
f 15/36/36 16/35/35 19/33/33
f 16/35/35 21/34/34 19/33/33
s 9
f 19/40/40 21/39/39 22/38/38
f 19/40/40 22/38/38 4/37/37
s 10
f 23/41/41 22/42/42 21/43/43
f 23/41/41 21/43/43 24/44/44
s 11
f 24/45/45 21/46/46 17/48/48
f 21/46/46 16/47/47 17/48/48
s 12
f 5/52/52 6/51/51 23/50/50
f 10/53/53 23/50/50 24/49/49
f 24/49/49 13/55/55 12/54/54
f 24/49/49 17/56/56 13/55/55
f 12/54/54 10/53/53 24/49/49
f 10/53/53 5/52/52 23/50/50
s 13
f 22/57/57 23/58/58 6/59/59
f 22/57/57 6/59/59 7/60/60
s 14
f 4/61/61 22/62/62 1/64/64
f 22/62/62 7/63/63 1/64/64
s 15
f 20/65/65 19/66/66 3/68/68
f 19/66/66 4/67/67 3/68/68
s 16
f 3/71/71 2/70/70 8/69/69
f 20/72/72 3/71/71 9/76/76
f 9/76/76 11/75/75 20/72/72
f 11/75/75 14/74/74 20/72/72
f 14/74/74 18/73/73 20/72/72
f 3/71/71 8/69/69 9/76/76

