mtllib struct_block_tapered.mtl
o struct_block_tapered
g struct_block_tapered
v -0.50000000 1.00000000 -0.50000000
v -0.08578644 1.00000000 -0.50000000
v -0.08578644 0.00000000 -0.50000000
v -0.50000000 0.00000000 -0.50000000
v 0.50000000 1.00000000 0.50000000
v 0.50000000 1.00000000 0.08578644
v -0.50000000 1.00000000 0.50000000
v 0.50000000 0.00000000 0.50000000
v 0.50000000 0.00000000 0.08578644
v -0.50000000 0.00000000 0.50000000
vt 0.00000000 1.00000000
vt 0.00000000 0.00000000
vt 1.00000000 0.00000000
vt 1.00000000 1.00000000
vt 0.00000000 0.00000000
vt 0.41421356 0.00000000
vt 1.00000000 0.58578644
vt 1.00000000 1.00000000
vt 0.00000000 1.00000000
vt 0.00000000 1.00000000
vt 0.00000000 0.00000000
vt 1.00000000 0.00000000
vt 1.00000000 1.00000000
vt 0.00000000 1.00000000
vt 0.00000000 0.00000000
vt 1.00000000 0.00000000
vt 1.00000000 1.00000000
vt 0.00000000 1.00000000
vt 0.00000000 0.00000000
vt 1.00000000 0.00000000
vt 1.00000000 1.00000000
vt 0.00000000 0.00000000
vt 0.41421356 0.00000000
vt 1.00000000 0.58578644
vt 1.00000000 1.00000000
vt 0.00000000 1.00000000
vt 0.00000000 1.00000000
vt 0.00000000 0.00000000
vt 1.00000000 0.00000000
vt 1.00000000 1.00000000
vn 0.00000000 0.00000000 -1.00000000
vn 0.00000000 0.00000000 -1.00000000
vn 0.00000000 0.00000000 -1.00000000
vn 0.00000000 0.00000000 -1.00000000
vn 0.00000000 1.00000000 0.00000000
vn 0.00000000 1.00000000 0.00000000
vn 0.00000000 1.00000000 0.00000000
vn 0.00000000 1.00000000 0.00000000
vn 0.00000000 1.00000000 0.00000000
vn 1.00000000 0.00000000 0.00000000
vn 1.00000000 0.00000000 0.00000000
vn 1.00000000 0.00000000 0.00000000
vn 1.00000000 0.00000000 0.00000000
vn 0.00000000 0.00000000 1.00000000
vn 0.00000000 0.00000000 1.00000000
vn 0.00000000 0.00000000 1.00000000
vn 0.00000000 0.00000000 1.00000000
vn -1.00000000 0.00000000 0.00000000
vn -1.00000000 0.00000000 0.00000000
vn -1.00000000 0.00000000 0.00000000
vn -1.00000000 0.00000000 0.00000000
vn 0.00000000 -1.00000000 0.00000000
vn 0.00000000 -1.00000000 0.00000000
vn 0.00000000 -1.00000000 0.00000000
vn 0.00000000 -1.00000000 0.00000000
vn 0.00000000 -1.00000000 0.00000000
vn 0.70710678 0.00000000 -0.70710678
vn 0.70710678 0.00000000 -0.70710678
vn 0.70710678 0.00000000 -0.70710678
vn 0.70710678 0.00000000 -0.70710678
s 1
usemtl Dark_Grey
f 1/1/1 2/2/2 4/4/4
f 2/2/2 3/3/3 4/4/4
s 2
f 5/5/5 6/6/6 2/7/7
f 2/7/7 1/8/8 7/9/9
f 5/5/5 2/7/7 7/9/9
s 3
f 6/10/10 5/11/11 9/13/13
f 5/11/11 8/12/12 9/13/13
s 4
f 5/14/14 7/15/15 8/17/17
f 7/15/15 10/16/16 8/17/17
s 5
f 7/18/18 1/19/19 10/21/21
f 1/19/19 4/20/20 10/21/21
s 6
f 3/24/24 9/23/23 8/22/22
f 10/26/26 3/24/24 8/22/22
f 10/26/26 4/25/25 3/24/24
s 7
f 2/27/27 6/28/28 3/30/30
f 6/28/28 9/29/29 3/30/30

