mtllib struct_large_steps_pillar_topper.mtl
o struct_large_steps_pillar_topper
g struct_large_steps_pillar_topper
v 0.95000000 0.20000000 -0.42071068
v 0.97071068 0.20000000 -0.40000000
v 1.12928932 0.20000000 -0.40000000
v 1.15000000 0.20000000 -0.42071068
v 1.15000000 0.20000000 -0.57928932
v 1.12928932 0.20000000 -0.60000000
v 0.97071068 0.20000000 -0.60000000
v 0.95000000 0.20000000 -0.57928932
v 1.05000000 0.20000000 -0.50000000
v 0.95000000 0.15000000 -0.35000000
v 0.90000000 0.15000000 -0.40000000
v 0.95000000 0.00000000 -0.35000000
v 0.90000000 0.00000000 -0.40000000
v 0.90000000 0.00000000 -0.60000000
v 0.90000000 0.15000000 -0.60000000
v 0.95000000 0.00000000 -0.65000000
v 0.95000000 0.15000000 -0.65000000
v 1.15000000 0.00000000 -0.65000000
v 1.15000000 0.15000000 -0.65000000
v 1.20000000 0.00000000 -0.60000000
v 1.20000000 0.15000000 -0.60000000
v 1.20000000 0.00000000 -0.40000000
v 1.20000000 0.15000000 -0.40000000
v 1.15000000 0.00000000 -0.35000000
v 1.15000000 0.15000000 -0.35000000
v 1.05000000 0.00000000 -0.50000000
vt 0.10355339 1.00000000
vt 0.00000000 0.89644661
vt 0.00000000 0.10355339
vt 0.10355339 0.00000000
vt 0.89644661 0.00000000
vt 1.00000000 0.10355339
vt 1.00000000 0.89644661
vt 0.89644661 1.00000000
vt 0.50000000 0.50000000
vt 1.00000000 0.00000000
vt 0.70710678 1.00000000
vt 0.29289322 1.00000000
vt 0.00000000 0.00000000
vt 1.00000000 1.00000000
vt 0.00000000 1.00000000
vt 0.00000000 0.00000000
vt 1.00000000 0.00000000
vt 1.00000000 1.00000000
vt 0.00000000 1.00000000
vt 0.00000000 0.00000000
vt 1.00000000 0.00000000
vt 1.00000000 1.00000000
vt 0.00000000 1.00000000
vt 0.00000000 0.00000000
vt 1.00000000 0.00000000
vt 1.00000000 1.00000000
vt 0.00000000 1.00000000
vt 0.00000000 0.00000000
vt 1.00000000 0.00000000
vt 1.00000000 1.00000000
vt 0.00000000 1.00000000
vt 0.00000000 0.00000000
vt 1.00000000 0.00000000
vt 1.00000000 1.00000000
vt 0.00000000 1.00000000
vt 0.00000000 0.00000000
vt 1.00000000 0.00000000
vt 1.00000000 1.00000000
vt 0.00000000 1.00000000
vt 0.00000000 0.00000000
vt 1.00000000 0.00000000
vt 1.00000000 1.00000000
vt 0.00000000 1.00000000
vt 0.00000000 0.00000000
vt 1.00000000 0.00000000
vt 0.16666667 0.00000000
vt 0.83333333 0.00000000
vt 1.00000000 0.16666667
vt 1.00000000 0.83333333
vt 0.83333333 1.00000000
vt 0.16666667 1.00000000
vt 0.00000000 0.83333333
vt 0.00000000 0.16666667
vt 0.50000000 0.50000000
vt 1.00000000 0.00000000
vt 0.89644661 1.00000000
vt 0.10355339 1.00000000
vt 0.00000000 0.00000000
vt 1.00000000 0.00000000
vt 0.70710678 1.00000000
vt 0.29289322 1.00000000
vt 0.00000000 0.00000000
vt 1.00000000 0.00000000
vt 0.89644661 1.00000000
vt 0.10355339 1.00000000
vt 0.00000000 0.00000000
vt 1.00000000 0.00000000
vt 0.70710678 1.00000000
vt 0.29289322 1.00000000
vt 0.00000000 0.00000000
vt 1.00000000 0.00000000
vt 0.89644661 1.00000000
vt 0.10355339 1.00000000
vt 0.00000000 0.00000000
vt 1.00000000 0.00000000
vt 0.70710678 1.00000000
vt 0.29289322 1.00000000
vt 0.00000000 0.00000000
vt 1.00000000 0.00000000
vt 0.89644661 1.00000000
vt 0.10355339 1.00000000
vt 0.00000000 0.00000000
vn 0.00000000 1.00000000 0.00000000
vn 0.00000000 1.00000000 0.00000000
vn 0.00000000 1.00000000 0.00000000
vn 0.00000000 1.00000000 0.00000000
vn 0.00000000 1.00000000 0.00000000
vn 0.00000000 1.00000000 0.00000000
vn 0.00000000 1.00000000 0.00000000
vn 0.00000000 1.00000000 0.00000000
vn 0.00000000 1.00000000 0.00000000
vn -0.50000000 0.70710678 0.50000000
vn -0.50000000 0.70710678 0.50000000
vn -0.50000000 0.70710678 0.50000000
vn -0.50000000 0.70710678 0.50000000
vn -0.70710678 -0.00000000 0.70710678
vn -0.70710678 -0.00000000 0.70710678
vn -0.70710678 -0.00000000 0.70710678
vn -0.70710678 -0.00000000 0.70710678
vn -1.00000000 0.00000000 0.00000000
vn -1.00000000 0.00000000 0.00000000
vn -1.00000000 0.00000000 0.00000000
vn -1.00000000 0.00000000 0.00000000
vn -0.70710678 0.00000000 -0.70710678
vn -0.70710678 0.00000000 -0.70710678
vn -0.70710678 0.00000000 -0.70710678
vn -0.70710678 0.00000000 -0.70710678
vn 0.00000000 0.00000000 -1.00000000
vn 0.00000000 0.00000000 -1.00000000
vn 0.00000000 0.00000000 -1.00000000
vn 0.00000000 0.00000000 -1.00000000
vn 0.70710678 0.00000000 -0.70710678
vn 0.70710678 0.00000000 -0.70710678
vn 0.70710678 0.00000000 -0.70710678
vn 0.70710678 0.00000000 -0.70710678
vn 1.00000000 0.00000000 0.00000000
vn 1.00000000 0.00000000 0.00000000
vn 1.00000000 0.00000000 0.00000000
vn 1.00000000 0.00000000 0.00000000
vn 0.70710678 -0.00000000 0.70710678
vn 0.70710678 -0.00000000 0.70710678
vn 0.70710678 -0.00000000 0.70710678
vn 0.70710678 -0.00000000 0.70710678
vn 0.00000000 -0.00000000 1.00000000
vn 0.00000000 -0.00000000 1.00000000
vn 0.00000000 -0.00000000 1.00000000
vn 0.00000000 -0.00000000 1.00000000
vn -0.00000000 -1.00000000 -0.00000000
vn -0.00000000 -1.00000000 -0.00000000
vn -0.00000000 -1.00000000 -0.00000000
vn -0.00000000 -1.00000000 -0.00000000
vn -0.00000000 -1.00000000 -0.00000000
vn -0.00000000 -1.00000000 -0.00000000
vn -0.00000000 -1.00000000 -0.00000000
vn -0.00000000 -1.00000000 -0.00000000
vn -0.00000000 -1.00000000 -0.00000000
vn -0.70710678 0.70710678 0.00000000
vn -0.70710678 0.70710678 0.00000000
vn -0.70710678 0.70710678 0.00000000
vn -0.70710678 0.70710678 0.00000000
vn -0.50000000 0.70710678 -0.50000000
vn -0.50000000 0.70710678 -0.50000000
vn -0.50000000 0.70710678 -0.50000000
vn -0.50000000 0.70710678 -0.50000000
vn 0.00000000 0.70710678 -0.70710678
vn 0.00000000 0.70710678 -0.70710678
vn 0.00000000 0.70710678 -0.70710678
vn 0.00000000 0.70710678 -0.70710678
vn 0.50000000 0.70710678 -0.50000000
vn 0.50000000 0.70710678 -0.50000000
vn 0.50000000 0.70710678 -0.50000000
vn 0.50000000 0.70710678 -0.50000000
vn 0.70710678 0.70710678 0.00000000
vn 0.70710678 0.70710678 0.00000000
vn 0.70710678 0.70710678 0.00000000
vn 0.70710678 0.70710678 0.00000000
vn 0.50000000 0.70710678 0.50000000
vn 0.50000000 0.70710678 0.50000000
vn 0.50000000 0.70710678 0.50000000
vn 0.50000000 0.70710678 0.50000000
vn 0.00000000 0.70710678 0.70710678
vn 0.00000000 0.70710678 0.70710678
vn 0.00000000 0.70710678 0.70710678
vn 0.00000000 0.70710678 0.70710678
s 1
usemtl Dark_Grey
f 1/1/1 2/2/2 9/9/9
f 7/7/7 8/8/8 9/9/9
f 6/6/6 7/7/7 9/9/9
f 5/5/5 6/6/6 9/9/9
f 4/4/4 5/5/5 9/9/9
f 3/3/3 4/4/4 9/9/9
f 2/2/2 3/3/3 9/9/9
f 8/8/8 1/1/1 9/9/9
s 2
f 10/10/10 2/11/11 11/13/13
f 2/11/11 1/12/12 11/13/13
s 3
f 11/17/17 13/16/16 12/15/15
f 11/17/17 12/15/15 10/14/14
s 4
f 15/21/21 14/20/20 11/18/18
f 14/20/20 13/19/19 11/18/18
s 5
f 17/25/25 16/24/24 15/22/22
f 16/24/24 14/23/23 15/22/22
s 6
f 19/29/29 18/28/28 17/26/26
f 18/28/28 16/27/27 17/26/26
s 7
f 21/33/33 20/32/32 19/30/30
f 20/32/32 18/31/31 19/30/30
s 8
f 23/37/37 22/36/36 21/34/34
f 22/36/36 20/35/35 21/34/34
s 9
f 25/41/41 24/40/40 23/38/38
f 24/40/40 22/39/39 23/38/38
s 10
f 10/45/45 12/44/44 24/43/43
f 10/45/45 24/43/43 25/42/42
s 11
f 24/53/53 12/52/52 26/54/54
f 20/47/47 22/46/46 26/54/54
f 18/48/48 20/47/47 26/54/54
f 16/49/49 18/48/48 26/54/54
f 14/50/50 16/49/49 26/54/54
f 13/51/51 14/50/50 26/54/54
f 12/52/52 13/51/51 26/54/54
f 22/46/46 24/53/53 26/54/54
s 12
f 11/55/55 1/56/56 8/57/57
f 11/55/55 8/57/57 15/58/58
s 13
f 15/59/59 8/60/60 7/61/61
f 15/59/59 7/61/61 17/62/62
s 14
f 17/63/63 7/64/64 6/65/65
f 17/63/63 6/65/65 19/66/66
s 15
f 19/67/67 6/68/68 21/70/70
f 6/68/68 5/69/69 21/70/70
s 16
f 21/71/71 5/72/72 23/74/74
f 5/72/72 4/73/73 23/74/74
s 17
f 23/75/75 4/76/76 25/78/78
f 4/76/76 3/77/77 25/78/78
s 18
f 25/79/79 3/80/80 10/82/82
f 3/80/80 2/81/81 10/82/82
v 0.10000000 0.15000000 -0.40000000
v 0.10000000 0.00000000 -0.40000000
v 0.05000000 0.00000000 -0.35000000
v 0.05000000 0.15000000 -0.35000000
v -0.15000000 0.00000000 -0.35000000
v -0.15000000 0.15000000 -0.35000000
v -0.20000000 0.00000000 -0.40000000
v -0.20000000 0.15000000 -0.40000000
v -0.20000000 0.00000000 -0.60000000
v -0.20000000 0.15000000 -0.60000000
v -0.15000000 0.00000000 -0.65000000
v -0.15000000 0.15000000 -0.65000000
v 0.05000000 0.00000000 -0.65000000
v 0.05000000 0.15000000 -0.65000000
v 0.10000000 0.00000000 -0.60000000
v 0.10000000 0.15000000 -0.60000000
v 0.02928932 0.20000000 -0.60000000
v 0.05000000 0.20000000 -0.57928932
v 0.05000000 0.20000000 -0.42071068
v 0.02928932 0.20000000 -0.40000000
v -0.12928932 0.20000000 -0.60000000
v -0.15000000 0.20000000 -0.57928932
v -0.15000000 0.20000000 -0.42071068
v -0.12928932 0.20000000 -0.40000000
v -0.05000000 0.20000000 -0.50000000
v -0.05000000 0.00000000 -0.50000000
vt 1.00000000 1.00000000
vt 0.00000000 1.00000000
vt 0.00000000 0.00000000
vt 1.00000000 0.00000000
vt 1.00000000 1.00000000
vt 0.00000000 1.00000000
vt 0.00000000 0.00000000
vt 1.00000000 0.00000000
vt 1.00000000 1.00000000
vt 0.00000000 1.00000000
vt 0.00000000 0.00000000
vt 1.00000000 0.00000000
vt 1.00000000 1.00000000
vt 0.00000000 1.00000000
vt 0.00000000 0.00000000
vt 1.00000000 0.00000000
vt 1.00000000 1.00000000
vt 0.00000000 1.00000000
vt 0.00000000 0.00000000
vt 1.00000000 0.00000000
vt 1.00000000 1.00000000
vt 0.00000000 1.00000000
vt 0.00000000 0.00000000
vt 1.00000000 0.00000000
vt 1.00000000 1.00000000
vt 0.00000000 1.00000000
vt 0.00000000 0.00000000
vt 1.00000000 0.00000000
vt 1.00000000 0.00000000
vt 0.70710678 1.00000000
vt 0.29289322 1.00000000
vt 0.00000000 0.00000000
vt 1.00000000 0.00000000
vt 0.89644661 1.00000000
vt 0.10355339 1.00000000
vt 0.00000000 0.00000000
vt 0.00000000 0.10355339
vt 0.10355339 0.00000000
vt 0.89644661 0.00000000
vt 1.00000000 0.10355339
vt 1.00000000 0.89644661
vt 0.89644661 1.00000000
vt 0.10355339 1.00000000
vt 0.00000000 0.89644661
vt 0.50000000 0.50000000
vt 1.00000000 0.00000000
vt 0.89644661 1.00000000
vt 0.10355339 1.00000000
vt 0.00000000 0.00000000
vt 1.00000000 0.00000000
vt 0.70710678 1.00000000
vt 0.29289322 1.00000000
vt 0.00000000 0.00000000
vt 1.00000000 0.00000000
vt 0.89644661 1.00000000
vt 0.10355339 1.00000000
vt 0.00000000 0.00000000
vt 1.00000000 0.00000000
vt 0.70710678 1.00000000
vt 0.29289322 1.00000000
vt 0.00000000 0.00000000
vt 1.00000000 0.00000000
vt 0.89644661 1.00000000
vt 0.10355339 1.00000000
vt 0.00000000 0.00000000
vt 1.00000000 0.00000000
vt 0.70710678 1.00000000
vt 0.29289322 1.00000000
vt 0.00000000 0.00000000
vt 1.00000000 1.00000000
vt 0.00000000 1.00000000
vt 0.00000000 0.00000000
vt 1.00000000 0.00000000
vt 0.16666667 0.00000000
vt 0.83333333 0.00000000
vt 1.00000000 0.16666667
vt 1.00000000 0.83333333
vt 0.83333333 1.00000000
vt 0.16666667 1.00000000
vt 0.00000000 0.83333333
vt 0.00000000 0.16666667
vt 0.50000000 0.50000000
vn 0.70710678 -0.00000000 0.70710678
vn 0.70710678 -0.00000000 0.70710678
vn 0.70710678 -0.00000000 0.70710678
vn 0.70710678 -0.00000000 0.70710678
vn 0.00000000 -0.00000000 1.00000000
vn 0.00000000 -0.00000000 1.00000000
vn 0.00000000 -0.00000000 1.00000000
vn 0.00000000 -0.00000000 1.00000000
vn -0.70710678 -0.00000000 0.70710678
vn -0.70710678 -0.00000000 0.70710678
vn -0.70710678 -0.00000000 0.70710678
vn -0.70710678 -0.00000000 0.70710678
vn -1.00000000 0.00000000 0.00000000
vn -1.00000000 0.00000000 0.00000000
vn -1.00000000 0.00000000 0.00000000
vn -1.00000000 0.00000000 0.00000000
vn -0.70710678 0.00000000 -0.70710678
vn -0.70710678 0.00000000 -0.70710678
vn -0.70710678 0.00000000 -0.70710678
vn -0.70710678 0.00000000 -0.70710678
vn 0.00000000 0.00000000 -1.00000000
vn 0.00000000 0.00000000 -1.00000000
vn 0.00000000 0.00000000 -1.00000000
vn 0.00000000 0.00000000 -1.00000000
vn 0.70710678 0.00000000 -0.70710678
vn 0.70710678 0.00000000 -0.70710678
vn 0.70710678 0.00000000 -0.70710678
vn 0.70710678 0.00000000 -0.70710678
vn 0.50000000 0.70710678 -0.50000000
vn 0.50000000 0.70710678 -0.50000000
vn 0.50000000 0.70710678 -0.50000000
vn 0.50000000 0.70710678 -0.50000000
vn 0.70710678 0.70710678 0.00000000
vn 0.70710678 0.70710678 0.00000000
vn 0.70710678 0.70710678 0.00000000
vn 0.70710678 0.70710678 0.00000000
vn 0.00000000 1.00000000 0.00000000
vn 0.00000000 1.00000000 0.00000000
vn 0.00000000 1.00000000 0.00000000
vn 0.00000000 1.00000000 0.00000000
vn 0.00000000 1.00000000 0.00000000
vn 0.00000000 1.00000000 0.00000000
vn 0.00000000 1.00000000 0.00000000
vn 0.00000000 1.00000000 0.00000000
vn 0.00000000 1.00000000 0.00000000
vn 0.00000000 0.70710678 -0.70710678
vn 0.00000000 0.70710678 -0.70710678
vn 0.00000000 0.70710678 -0.70710678
vn 0.00000000 0.70710678 -0.70710678
vn -0.50000000 0.70710678 -0.50000000
vn -0.50000000 0.70710678 -0.50000000
vn -0.50000000 0.70710678 -0.50000000
vn -0.50000000 0.70710678 -0.50000000
vn -0.70710678 0.70710678 0.00000000
vn -0.70710678 0.70710678 0.00000000
vn -0.70710678 0.70710678 0.00000000
vn -0.70710678 0.70710678 0.00000000
vn -0.50000000 0.70710678 0.50000000
vn -0.50000000 0.70710678 0.50000000
vn -0.50000000 0.70710678 0.50000000
vn -0.50000000 0.70710678 0.50000000
vn 0.00000000 0.70710678 0.70710678
vn 0.00000000 0.70710678 0.70710678
vn 0.00000000 0.70710678 0.70710678
vn 0.00000000 0.70710678 0.70710678
vn 0.50000000 0.70710678 0.50000000
vn 0.50000000 0.70710678 0.50000000
vn 0.50000000 0.70710678 0.50000000
vn 0.50000000 0.70710678 0.50000000
vn 1.00000000 0.00000000 0.00000000
vn 1.00000000 0.00000000 0.00000000
vn 1.00000000 0.00000000 0.00000000
vn 1.00000000 0.00000000 0.00000000
vn -0.00000000 -1.00000000 -0.00000000
vn -0.00000000 -1.00000000 -0.00000000
vn -0.00000000 -1.00000000 -0.00000000
vn -0.00000000 -1.00000000 -0.00000000
vn -0.00000000 -1.00000000 -0.00000000
vn -0.00000000 -1.00000000 -0.00000000
vn -0.00000000 -1.00000000 -0.00000000
vn -0.00000000 -1.00000000 -0.00000000
vn -0.00000000 -1.00000000 -0.00000000
s 1
usemtl Dark_Grey
f 30/86/86 29/85/85 27/83/83
f 29/85/85 28/84/84 27/83/83
s 2
f 32/90/90 31/89/89 29/88/88
f 32/90/90 29/88/88 30/87/87
s 3
f 34/94/94 33/93/93 31/92/92
f 34/94/94 31/92/92 32/91/91
s 4
f 36/98/98 35/97/97 34/95/95
f 35/97/97 33/96/96 34/95/95
s 5
f 38/102/102 37/101/101 36/99/99
f 37/101/101 35/100/100 36/99/99
s 6
f 40/106/106 39/105/105 38/103/103
f 39/105/105 37/104/104 38/103/103
s 7
f 42/110/110 41/109/109 39/108/108
f 42/110/110 39/108/108 40/107/107
s 8
f 40/111/111 43/112/112 42/114/114
f 43/112/112 44/113/113 42/114/114
s 9
f 42/115/115 44/116/116 27/118/118
f 44/116/116 45/117/117 27/118/118
s 10
f 46/119/119 45/120/120 51/127/127
f 49/125/125 50/126/126 51/127/127
f 48/124/124 49/125/125 51/127/127
f 47/123/123 48/124/124 51/127/127
f 43/122/122 47/123/123 51/127/127
f 44/121/121 43/122/122 51/127/127
f 45/120/120 44/121/121 51/127/127
f 50/126/126 46/119/119 51/127/127
s 11
f 38/128/128 47/129/129 43/130/130
f 38/128/128 43/130/130 40/131/131
s 12
f 36/132/132 48/133/133 47/134/134
f 36/132/132 47/134/134 38/135/135
s 13
f 34/136/136 49/137/137 48/138/138
f 34/136/136 48/138/138 36/139/139
s 14
f 32/140/140 50/141/141 34/143/143
f 50/141/141 49/142/142 34/143/143
s 15
f 30/144/144 46/145/145 32/147/147
f 46/145/145 50/146/146 32/147/147
s 16
f 27/148/148 45/149/149 30/151/151
f 45/149/149 46/150/150 30/151/151
s 17
f 27/155/155 28/154/154 42/152/152
f 28/154/154 41/153/153 42/152/152
s 18
f 29/163/163 31/162/162 52/164/164
f 41/157/157 28/156/156 52/164/164
f 39/158/158 41/157/157 52/164/164
f 37/159/159 39/158/158 52/164/164
f 35/160/160 37/159/159 52/164/164
f 33/161/161 35/160/160 52/164/164
f 31/162/162 33/161/161 52/164/164
f 28/156/156 29/163/163 52/164/164

