mtllib struct_pillar_corner_top.mtl
o struct_pillar_corner_top
g struct_pillar_corner_top
v 0.85000000 1.00000000 -0.15000000
v 0.85000000 0.75000000 -0.15000000
v 0.85000000 0.75000000 -0.85000000
v 0.85000000 1.00000000 -0.85000000
v 0.15000000 1.00000000 -0.15000000
v 0.15000000 0.75000000 -0.15000000
v 0.15000000 0.75000000 -0.85000000
v 0.15000000 1.00000000 -0.85000000
v 0.20000000 0.70000000 -0.20000000
v 0.20000000 0.70000000 -0.80000000
v 0.80000000 0.70000000 -0.80000000
v 0.80000000 0.70000000 -0.20000000
vt 0.00000000 0.00000000
vt 1.00000000 0.00000000
vt 1.00000000 1.00000000
vt 0.00000000 1.00000000
vt 0.00000000 0.00000000
vt 1.00000000 0.00000000
vt 1.00000000 1.00000000
vt 0.00000000 1.00000000
vt 0.00000000 0.00000000
vt 1.00000000 0.00000000
vt 1.00000000 1.00000000
vt 0.00000000 1.00000000
vt 0.00000000 1.00000000
vt 0.07142857 0.00000000
vt 0.92857143 0.00000000
vt 1.00000000 1.00000000
vt 0.00000000 1.00000000
vt 0.07142857 0.00000000
vt 0.92857143 0.00000000
vt 1.00000000 1.00000000
vt 1.00000000 1.00000000
vt 0.00000000 1.00000000
vt 0.00000000 0.00000000
vt 1.00000000 0.00000000
vt 0.07142857 1.00000000
vt 0.00000000 0.00000000
vt 1.00000000 0.00000000
vt 0.92857143 1.00000000
vt 1.00000000 1.00000000
vt 0.00000000 1.00000000
vt 0.00000000 0.00000000
vt 1.00000000 0.00000000
vt 0.00000000 0.00000000
vt 1.00000000 0.00000000
vt 1.00000000 1.00000000
vt 0.00000000 1.00000000
vt 0.07142857 1.00000000
vt 0.00000000 0.00000000
vt 1.00000000 0.00000000
vt 0.92857143 1.00000000
vn 1.00000000 0.00000000 0.00000000
vn 1.00000000 0.00000000 0.00000000
vn 1.00000000 0.00000000 0.00000000
vn 1.00000000 0.00000000 0.00000000
vn 0.00000000 0.00000000 1.00000000
vn 0.00000000 0.00000000 1.00000000
vn 0.00000000 0.00000000 1.00000000
vn 0.00000000 0.00000000 1.00000000
vn -1.00000000 0.00000000 0.00000000
vn -1.00000000 0.00000000 0.00000000
vn -1.00000000 0.00000000 0.00000000
vn -1.00000000 0.00000000 0.00000000
vn -0.70710678 -0.70710678 0.00000000
vn -0.70710678 -0.70710678 0.00000000
vn -0.70710678 -0.70710678 0.00000000
vn -0.70710678 -0.70710678 0.00000000
vn 0.00000000 -0.70710678 -0.70710678
vn 0.00000000 -0.70710678 -0.70710678
vn 0.00000000 -0.70710678 -0.70710678
vn 0.00000000 -0.70710678 -0.70710678
vn 0.00000000 -1.00000000 0.00000000
vn 0.00000000 -1.00000000 0.00000000
vn 0.00000000 -1.00000000 0.00000000
vn 0.00000000 -1.00000000 0.00000000
vn 0.00000000 -0.70710678 0.70710678
vn 0.00000000 -0.70710678 0.70710678
vn 0.00000000 -0.70710678 0.70710678
vn 0.00000000 -0.70710678 0.70710678
vn 0.00000000 1.00000000 0.00000000
vn 0.00000000 1.00000000 0.00000000
vn 0.00000000 1.00000000 0.00000000
vn 0.00000000 1.00000000 0.00000000
vn 0.00000000 0.00000000 -1.00000000
vn 0.00000000 0.00000000 -1.00000000
vn 0.00000000 0.00000000 -1.00000000
vn 0.00000000 0.00000000 -1.00000000
vn 0.70710678 -0.70710678 0.00000000
vn 0.70710678 -0.70710678 0.00000000
vn 0.70710678 -0.70710678 0.00000000
vn 0.70710678 -0.70710678 0.00000000
s 1
usemtl Grey
f 1/1/1 2/2/2 4/4/4
f 2/2/2 3/3/3 4/4/4
s 2
f 5/5/5 6/6/6 1/8/8
f 6/6/6 2/7/7 1/8/8
s 3
f 8/12/12 7/11/11 5/9/9
f 7/11/11 6/10/10 5/9/9
s 4
f 7/16/16 10/15/15 9/14/14
f 7/16/16 9/14/14 6/13/13
s 5
f 3/20/20 11/19/19 7/17/17
f 11/19/19 10/18/18 7/17/17
s 6
f 11/21/21 12/22/22 10/24/24
f 12/22/22 9/23/23 10/24/24
s 7
f 12/28/28 2/27/27 9/25/25
f 2/27/27 6/26/26 9/25/25
s 8
f 8/32/32 5/31/31 1/30/30
f 8/32/32 1/30/30 4/29/29
s 9
f 4/36/36 3/35/35 8/33/33
f 3/35/35 7/34/34 8/33/33
s 10
f 11/40/40 3/39/39 2/38/38
f 11/40/40 2/38/38 12/37/37

