mtllib struct_large_curved_wall.mtl
o struct_large_curved_wall
g struct_large_curved_wall
v 0.53808539 0.00000000 -0.53808539
v 0.53808539 1.00000000 -0.53808539
v 0.16649185 1.00000000 -0.80806390
v 0.16649185 0.00000000 -0.80806390
v 0.80806390 0.00000000 -0.16649185
v 0.80806390 1.00000000 -0.16649185
v 0.95000000 0.00000000 0.27034256
v 0.95000000 1.00000000 0.27034256
v 0.95000000 0.00000000 0.50000000
v 0.95000000 1.00000000 0.50000000
v 1.15000000 0.00000000 0.50000000
v 1.15000000 1.00000000 0.50000000
v 1.15000000 0.00000000 0.23866567
v 1.15000000 1.00000000 0.23866567
v 0.98848650 0.00000000 -0.25842175
v 0.98848650 1.00000000 -0.25842175
v 0.68126958 0.00000000 -0.68126958
v 0.68126958 1.00000000 -0.68126958
v 0.25842175 0.00000000 -0.98848650
v 0.25842175 1.00000000 -0.98848650
v -0.23866567 0.00000000 -1.15000000
v -0.23866567 1.00000000 -1.15000000
v -0.50000000 0.00000000 -1.15000000
v -0.50000000 1.00000000 -1.15000000
v -0.50000000 0.00000000 -0.95000000
v -0.50000000 1.00000000 -0.95000000
v -0.27034256 0.00000000 -0.95000000
v -0.27034256 1.00000000 -0.95000000
vt 0.00000000 0.00000000
vt 1.00000000 0.00000000
vt 1.00000000 1.00000000
vt 0.00000000 1.00000000
vt 0.00000000 0.00000000
vt 1.00000000 0.00000000
vt 1.00000000 1.00000000
vt 0.00000000 1.00000000
vt 0.00000000 0.00000000
vt 1.00000000 0.00000000
vt 1.00000000 1.00000000
vt 0.00000000 1.00000000
vt 0.00000000 0.00000000
vt 1.00000000 0.00000000
vt 1.00000000 1.00000000
vt 0.00000000 1.00000000
vt 0.00000000 0.00000000
vt 1.00000000 0.00000000
vt 1.00000000 1.00000000
vt 0.00000000 1.00000000
vt 0.00000000 0.00000000
vt 1.00000000 0.00000000
vt 1.00000000 1.00000000
vt 0.00000000 1.00000000
vt 0.00000000 0.00000000
vt 1.00000000 0.00000000
vt 1.00000000 1.00000000
vt 0.00000000 1.00000000
vt 0.00000000 0.00000000
vt 1.00000000 0.00000000
vt 1.00000000 1.00000000
vt 0.00000000 1.00000000
vt 0.00000000 0.00000000
vt 1.00000000 0.00000000
vt 1.00000000 1.00000000
vt 0.00000000 1.00000000
vt 0.00000000 0.00000000
vt 1.00000000 0.00000000
vt 1.00000000 1.00000000
vt 0.00000000 1.00000000
vt 0.00000000 0.00000000
vt 1.00000000 0.00000000
vt 1.00000000 1.00000000
vt 0.00000000 1.00000000
vt 0.00000000 0.00000000
vt 1.00000000 0.00000000
vt 1.00000000 1.00000000
vt 0.00000000 1.00000000
vt 0.00000000 0.00000000
vt 1.00000000 0.00000000
vt 1.00000000 1.00000000
vt 0.00000000 1.00000000
vt 0.40393445 0.79276600
vt 0.62914266 0.62914266
vt 0.79276600 0.40393445
vt 0.87878788 0.13918633
vt 0.87878788 0.00000000
vt 1.00000000 0.00000000
vt 1.00000000 0.15838444
vt 0.90211303 0.45964955
vt 0.71592096 0.71592096
vt 0.45964955 0.90211303
vt 0.15838444 1.00000000
vt 0.00000000 1.00000000
vt 0.00000000 0.87878788
vt 0.13918633 0.87878788
vt 0.00000000 0.00000000
vt 1.00000000 0.00000000
vt 1.00000000 1.00000000
vt 0.00000000 1.00000000
vt 0.40393445 0.79276600
vt 0.62914266 0.62914266
vt 0.79276600 0.40393445
vt 0.87878788 0.13918633
vt 0.87878788 0.00000000
vt 1.00000000 0.00000000
vt 1.00000000 0.15838444
vt 0.90211303 0.45964955
vt 0.71592096 0.71592096
vt 0.45964955 0.90211303
vt 0.15838444 1.00000000
vt 0.00000000 1.00000000
vt 0.00000000 0.87878788
vt 0.13918633 0.87878788
vn -0.58778525 0.00000000 0.80901699
vn -0.58778525 0.00000000 0.80901699
vn -0.58778525 0.00000000 0.80901699
vn -0.58778525 0.00000000 0.80901699
vn -0.80901699 0.00000000 0.58778525
vn -0.80901699 0.00000000 0.58778525
vn -0.80901699 0.00000000 0.58778525
vn -0.80901699 0.00000000 0.58778525
vn -0.95105652 0.00000000 0.30901699
vn -0.95105652 0.00000000 0.30901699
vn -0.95105652 0.00000000 0.30901699
vn -0.95105652 0.00000000 0.30901699
vn -1.00000000 0.00000000 0.00000000
vn -1.00000000 0.00000000 0.00000000
vn -1.00000000 0.00000000 0.00000000
vn -1.00000000 0.00000000 0.00000000
vn 0.00000000 0.00000000 1.00000000
vn 0.00000000 0.00000000 1.00000000
vn 0.00000000 0.00000000 1.00000000
vn 0.00000000 0.00000000 1.00000000
vn 1.00000000 0.00000000 0.00000000
vn 1.00000000 0.00000000 0.00000000
vn 1.00000000 0.00000000 0.00000000
vn 1.00000000 0.00000000 0.00000000
vn 0.95105652 0.00000000 -0.30901699
vn 0.95105652 0.00000000 -0.30901699
vn 0.95105652 0.00000000 -0.30901699
vn 0.95105652 0.00000000 -0.30901699
vn 0.80901699 0.00000000 -0.58778525
vn 0.80901699 0.00000000 -0.58778525
vn 0.80901699 0.00000000 -0.58778525
vn 0.80901699 0.00000000 -0.58778525
vn 0.58778525 0.00000000 -0.80901699
vn 0.58778525 0.00000000 -0.80901699
vn 0.58778525 0.00000000 -0.80901699
vn 0.58778525 0.00000000 -0.80901699
vn 0.30901699 0.00000000 -0.95105652
vn 0.30901699 0.00000000 -0.95105652
vn 0.30901699 0.00000000 -0.95105652
vn 0.30901699 0.00000000 -0.95105652
vn 0.00000000 0.00000000 -1.00000000
vn 0.00000000 0.00000000 -1.00000000
vn 0.00000000 0.00000000 -1.00000000
vn 0.00000000 0.00000000 -1.00000000
vn -1.00000000 0.00000000 0.00000000
vn -1.00000000 0.00000000 0.00000000
vn -1.00000000 0.00000000 0.00000000
vn -1.00000000 0.00000000 0.00000000
vn 0.00000000 0.00000000 1.00000000
vn 0.00000000 0.00000000 1.00000000
vn 0.00000000 0.00000000 1.00000000
vn 0.00000000 0.00000000 1.00000000
vn 0.00000000 -1.00000000 0.00000000
vn 0.00000000 -1.00000000 0.00000000
vn 0.00000000 -1.00000000 0.00000000
vn 0.00000000 -1.00000000 0.00000000
vn 0.00000000 -1.00000000 0.00000000
vn 0.00000000 -1.00000000 0.00000000
vn 0.00000000 -1.00000000 0.00000000
vn 0.00000000 -1.00000000 0.00000000
vn 0.00000000 -1.00000000 0.00000000
vn 0.00000000 -1.00000000 0.00000000
vn 0.00000000 -1.00000000 0.00000000
vn 0.00000000 -1.00000000 0.00000000
vn 0.00000000 -1.00000000 0.00000000
vn 0.00000000 -1.00000000 0.00000000
vn -0.30901699 0.00000000 0.95105652
vn -0.30901699 0.00000000 0.95105652
vn -0.30901699 0.00000000 0.95105652
vn -0.30901699 0.00000000 0.95105652
vn 0.00000000 1.00000000 0.00000000
vn 0.00000000 1.00000000 0.00000000
vn 0.00000000 1.00000000 0.00000000
vn 0.00000000 1.00000000 0.00000000
vn 0.00000000 1.00000000 0.00000000
vn 0.00000000 1.00000000 0.00000000
vn 0.00000000 1.00000000 0.00000000
vn 0.00000000 1.00000000 0.00000000
vn 0.00000000 1.00000000 0.00000000
vn 0.00000000 1.00000000 0.00000000
vn 0.00000000 1.00000000 0.00000000
vn 0.00000000 1.00000000 0.00000000
vn 0.00000000 1.00000000 0.00000000
vn 0.00000000 1.00000000 0.00000000
s 1
usemtl Grey
f 1/1/1 2/2/2 4/4/4
f 2/2/2 3/3/3 4/4/4
s 2
f 5/5/5 6/6/6 1/8/8
f 6/6/6 2/7/7 1/8/8
s 3
f 7/9/9 8/10/10 5/12/12
f 8/10/10 6/11/11 5/12/12
s 4
f 9/13/13 10/14/14 7/16/16
f 10/14/14 8/15/15 7/16/16
s 5
f 11/17/17 12/18/18 9/20/20
f 12/18/18 10/19/19 9/20/20
s 6
f 13/21/21 14/22/22 11/24/24
f 14/22/22 12/23/23 11/24/24
s 7
f 15/25/25 16/26/26 13/28/28
f 16/26/26 14/27/27 13/28/28
s 8
f 17/29/29 18/30/30 15/32/32
f 18/30/30 16/31/31 15/32/32
s 9
f 19/33/33 20/34/34 17/36/36
f 20/34/34 18/35/35 17/36/36
s 10
f 21/37/37 22/38/38 19/40/40
f 22/38/38 20/39/39 19/40/40
s 11
f 23/41/41 24/42/42 21/44/44
f 24/42/42 22/43/43 21/44/44
s 12
f 25/45/45 26/46/46 23/48/48
f 26/46/46 24/47/47 23/48/48
s 13
f 27/49/49 28/50/50 25/52/52
f 28/50/50 26/51/51 25/52/52
s 14
f 11/64/64 9/65/65 7/66/66
f 13/63/63 7/66/66 5/53/53
f 15/62/62 5/53/53 1/54/54
f 17/61/61 1/54/54 4/55/55
f 4/55/55 21/59/59 19/60/60
f 27/56/56 23/58/58 21/59/59
f 27/56/56 25/57/57 23/58/58
f 4/55/55 27/56/56 21/59/59
f 19/60/60 17/61/61 4/55/55
f 17/61/61 15/62/62 1/54/54
f 15/62/62 13/63/63 5/53/53
f 13/63/63 11/64/64 7/66/66
s 15
f 4/67/67 3/68/68 27/70/70
f 3/68/68 28/69/69 27/70/70
s 16
f 8/84/84 10/83/83 12/82/82
f 6/71/71 8/84/84 14/81/81
f 2/72/72 6/71/71 16/80/80
f 3/73/73 2/72/72 18/79/79
f 20/78/78 22/77/77 3/73/73
f 22/77/77 24/76/76 28/74/74
f 24/76/76 26/75/75 28/74/74
f 3/73/73 18/79/79 20/78/78
f 22/77/77 28/74/74 3/73/73
f 2/72/72 16/80/80 18/79/79
f 6/71/71 14/81/81 16/80/80
f 8/84/84 12/82/82 14/81/81
o struct_large_curved_wall_2
g struct_large_curved_wall_2
v -0.18426044 0.00000000 0.33912266
v -0.18426044 1.00000000 0.33912266
v -0.24942767 1.00000000 0.24942767
v -0.24942767 0.00000000 0.24942767
v -0.15000000 0.00000000 0.44456545
v -0.15000000 1.00000000 0.44456545
v -0.15000000 0.00000000 0.50000000
v -0.15000000 1.00000000 0.50000000
v 0.05000000 0.00000000 0.50000000
v 0.05000000 1.00000000 0.50000000
v 0.05000000 0.00000000 0.41288856
v 0.05000000 1.00000000 0.41288856
v -0.00383783 0.00000000 0.24719275
v -0.00383783 1.00000000 0.24719275
v -0.10624347 0.00000000 0.10624347
v -0.10624347 1.00000000 0.10624347
v -0.24719275 0.00000000 0.00383783
v -0.24719275 1.00000000 0.00383783
v -0.41288856 0.00000000 -0.05000000
v -0.41288856 1.00000000 -0.05000000
v -0.50000000 0.00000000 -0.05000000
v -0.50000000 1.00000000 -0.05000000
v -0.50000000 0.00000000 0.15000000
v -0.50000000 1.00000000 0.15000000
v -0.44456545 0.00000000 0.15000000
v -0.44456545 1.00000000 0.15000000
v -0.33912266 0.00000000 0.18426044
v -0.33912266 1.00000000 0.18426044
vt 0.00000000 0.00000000
vt 1.00000000 0.00000000
vt 1.00000000 1.00000000
vt 0.00000000 1.00000000
vt 0.00000000 0.00000000
vt 1.00000000 0.00000000
vt 1.00000000 1.00000000
vt 0.00000000 1.00000000
vt 0.00000000 0.00000000
vt 1.00000000 0.00000000
vt 1.00000000 1.00000000
vt 0.00000000 1.00000000
vt 0.00000000 0.00000000
vt 1.00000000 0.00000000
vt 1.00000000 1.00000000
vt 0.00000000 1.00000000
vt 0.00000000 0.00000000
vt 1.00000000 0.00000000
vt 1.00000000 1.00000000
vt 0.00000000 1.00000000
vt 0.00000000 0.00000000
vt 1.00000000 0.00000000
vt 1.00000000 1.00000000
vt 0.00000000 1.00000000
vt 0.00000000 0.00000000
vt 1.00000000 0.00000000
vt 1.00000000 1.00000000
vt 0.00000000 1.00000000
vt 0.00000000 0.00000000
vt 1.00000000 0.00000000
vt 1.00000000 1.00000000
vt 0.00000000 1.00000000
vt 0.00000000 0.00000000
vt 1.00000000 0.00000000
vt 1.00000000 1.00000000
vt 0.00000000 1.00000000
vt 0.00000000 0.00000000
vt 1.00000000 0.00000000
vt 1.00000000 1.00000000
vt 0.00000000 1.00000000
vt 0.00000000 0.00000000
vt 1.00000000 0.00000000
vt 1.00000000 1.00000000
vt 0.00000000 1.00000000
vt 0.00000000 0.00000000
vt 1.00000000 0.00000000
vt 1.00000000 1.00000000
vt 0.00000000 1.00000000
vt 0.00000000 0.00000000
vt 1.00000000 0.00000000
vt 1.00000000 1.00000000
vt 0.00000000 1.00000000
vt 0.29250426 0.57407193
vt 0.45558606 0.45558606
vt 0.57407193 0.29250426
vt 0.63636364 0.10079010
vt 0.63636364 0.00000000
vt 1.00000000 0.00000000
vt 1.00000000 0.15838444
vt 0.90211303 0.45964955
vt 0.71592096 0.71592096
vt 0.45964955 0.90211303
vt 0.15838444 1.00000000
vt 0.00000000 1.00000000
vt 0.00000000 0.63636364
vt 0.10079010 0.63636364
vt 0.00000000 0.00000000
vt 1.00000000 0.00000000
vt 1.00000000 1.00000000
vt 0.00000000 1.00000000
vt 0.29250426 0.57407193
vt 0.45558606 0.45558606
vt 0.57407193 0.29250426
vt 0.63636364 0.10079010
vt 0.63636364 0.00000000
vt 1.00000000 0.00000000
vt 1.00000000 0.15838444
vt 0.90211303 0.45964955
vt 0.71592096 0.71592096
vt 0.45964955 0.90211303
vt 0.15838444 1.00000000
vt 0.00000000 1.00000000
vt 0.00000000 0.63636364
vt 0.10079010 0.63636364
vn -0.80901699 0.00000000 0.58778525
vn -0.80901699 0.00000000 0.58778525
vn -0.80901699 0.00000000 0.58778525
vn -0.80901699 0.00000000 0.58778525
vn -0.95105652 0.00000000 0.30901699
vn -0.95105652 0.00000000 0.30901699
vn -0.95105652 0.00000000 0.30901699
vn -0.95105652 0.00000000 0.30901699
vn -1.00000000 0.00000000 0.00000000
vn -1.00000000 0.00000000 0.00000000
vn -1.00000000 0.00000000 0.00000000
vn -1.00000000 0.00000000 0.00000000
vn 0.00000000 0.00000000 1.00000000
vn 0.00000000 0.00000000 1.00000000
vn 0.00000000 0.00000000 1.00000000
vn 0.00000000 0.00000000 1.00000000
vn 1.00000000 0.00000000 0.00000000
vn 1.00000000 0.00000000 0.00000000
vn 1.00000000 0.00000000 0.00000000
vn 1.00000000 0.00000000 0.00000000
vn 0.95105652 0.00000000 -0.30901699
vn 0.95105652 0.00000000 -0.30901699
vn 0.95105652 0.00000000 -0.30901699
vn 0.95105652 0.00000000 -0.30901699
vn 0.80901699 0.00000000 -0.58778525
vn 0.80901699 0.00000000 -0.58778525
vn 0.80901699 0.00000000 -0.58778525
vn 0.80901699 0.00000000 -0.58778525
vn 0.58778525 0.00000000 -0.80901699
vn 0.58778525 0.00000000 -0.80901699
vn 0.58778525 0.00000000 -0.80901699
vn 0.58778525 0.00000000 -0.80901699
vn 0.30901699 0.00000000 -0.95105652
vn 0.30901699 0.00000000 -0.95105652
vn 0.30901699 0.00000000 -0.95105652
vn 0.30901699 0.00000000 -0.95105652
vn 0.00000000 0.00000000 -1.00000000
vn 0.00000000 0.00000000 -1.00000000
vn 0.00000000 0.00000000 -1.00000000
vn 0.00000000 0.00000000 -1.00000000
vn -1.00000000 0.00000000 0.00000000
vn -1.00000000 0.00000000 0.00000000
vn -1.00000000 0.00000000 0.00000000
vn -1.00000000 0.00000000 0.00000000
vn 0.00000000 0.00000000 1.00000000
vn 0.00000000 0.00000000 1.00000000
vn 0.00000000 0.00000000 1.00000000
vn 0.00000000 0.00000000 1.00000000
vn -0.30901699 0.00000000 0.95105652
vn -0.30901699 0.00000000 0.95105652
vn -0.30901699 0.00000000 0.95105652
vn -0.30901699 0.00000000 0.95105652
vn 0.00000000 -1.00000000 0.00000000
vn 0.00000000 -1.00000000 0.00000000
vn 0.00000000 -1.00000000 0.00000000
vn 0.00000000 -1.00000000 0.00000000
vn 0.00000000 -1.00000000 0.00000000
vn 0.00000000 -1.00000000 0.00000000
vn 0.00000000 -1.00000000 0.00000000
vn 0.00000000 -1.00000000 0.00000000
vn 0.00000000 -1.00000000 0.00000000
vn 0.00000000 -1.00000000 0.00000000
vn 0.00000000 -1.00000000 0.00000000
vn 0.00000000 -1.00000000 0.00000000
vn 0.00000000 -1.00000000 0.00000000
vn 0.00000000 -1.00000000 0.00000000
vn -0.58778525 0.00000000 0.80901699
vn -0.58778525 0.00000000 0.80901699
vn -0.58778525 0.00000000 0.80901699
vn -0.58778525 0.00000000 0.80901699
vn 0.00000000 1.00000000 0.00000000
vn 0.00000000 1.00000000 0.00000000
vn 0.00000000 1.00000000 0.00000000
vn 0.00000000 1.00000000 0.00000000
vn 0.00000000 1.00000000 0.00000000
vn 0.00000000 1.00000000 0.00000000
vn 0.00000000 1.00000000 0.00000000
vn 0.00000000 1.00000000 0.00000000
vn 0.00000000 1.00000000 0.00000000
vn 0.00000000 1.00000000 0.00000000
vn 0.00000000 1.00000000 0.00000000
vn 0.00000000 1.00000000 0.00000000
vn 0.00000000 1.00000000 0.00000000
vn 0.00000000 1.00000000 0.00000000
s 1
usemtl Grey
f 29/85/85 30/86/86 32/88/88
f 30/86/86 31/87/87 32/88/88
s 2
f 33/89/89 34/90/90 29/92/92
f 34/90/90 30/91/91 29/92/92
s 3
f 35/93/93 36/94/94 33/96/96
f 36/94/94 34/95/95 33/96/96
s 4
f 37/97/97 38/98/98 35/100/100
f 38/98/98 36/99/99 35/100/100
s 5
f 39/101/101 40/102/102 37/104/104
f 40/102/102 38/103/103 37/104/104
s 6
f 41/105/105 42/106/106 39/108/108
f 42/106/106 40/107/107 39/108/108
s 7
f 43/109/109 44/110/110 41/112/112
f 44/110/110 42/111/111 41/112/112
s 8
f 45/113/113 46/114/114 43/116/116
f 46/114/114 44/115/115 43/116/116
s 9
f 47/117/117 48/118/118 45/120/120
f 48/118/118 46/119/119 45/120/120
s 10
f 49/121/121 50/122/122 47/124/124
f 50/122/122 48/123/123 47/124/124
s 11
f 51/125/125 52/126/126 49/128/128
f 52/126/126 50/127/127 49/128/128
s 12
f 53/129/129 54/130/130 51/132/132
f 54/130/130 52/131/131 51/132/132
s 13
f 55/133/133 56/134/134 53/136/136
f 56/134/134 54/135/135 53/136/136
s 14
f 53/140/140 51/141/141 49/142/142
f 55/139/139 53/140/140 47/143/143
f 32/138/138 55/139/139 45/144/144
f 29/137/137 32/138/138 43/145/145
f 29/137/137 41/146/146 39/147/147
f 39/147/147 37/148/148 33/150/150
f 37/148/148 35/149/149 33/150/150
f 29/137/137 43/145/145 41/146/146
f 39/147/147 33/150/150 29/137/137
f 32/138/138 45/144/144 43/145/145
f 55/139/139 47/143/143 45/144/144
f 53/140/140 49/142/142 47/143/143
s 15
f 32/151/151 31/152/152 55/154/154
f 31/152/152 56/153/153 55/154/154
s 16
f 50/160/160 52/159/159 54/158/158
f 48/161/161 54/158/158 56/157/157
f 46/162/162 56/157/157 31/156/156
f 44/163/163 31/156/156 30/155/155
f 40/165/165 42/164/164 30/155/155
f 34/168/168 38/166/166 40/165/165
f 34/168/168 36/167/167 38/166/166
f 30/155/155 34/168/168 40/165/165
f 42/164/164 44/163/163 30/155/155
f 44/163/163 46/162/162 31/156/156
f 46/162/162 48/161/161 56/157/157
f 48/161/161 50/160/160 54/158/158

