mtllib struct_wall_tapered_base.mtl
o struct_wall_tapered_base
g struct_wall_tapered_base
v -0.16862915 0.15000000 -0.30000000
v -0.16862915 0.00000000 -0.30000000
v 0.30000000 0.00000000 0.16862915
v 0.30000000 0.15000000 0.16862915
v -0.50000000 0.15000000 -0.30000000
v -0.50000000 0.00000000 -0.30000000
v -0.50000000 0.15000000 -0.38695652
v -0.50000000 0.00000000 -0.38695652
v -0.50000000 0.20000000 -0.40626050
v -0.50000000 0.20000000 -0.65000000
v -0.50000000 0.15000000 -0.70000000
v -0.50000000 0.00000000 -0.70000000
v -0.00294373 0.15000000 -0.70000000
v -0.00294373 0.00000000 -0.70000000
v 0.70000000 0.15000000 0.00294373
v 0.70000000 0.00000000 0.00294373
v 0.70000000 0.15000000 0.50000000
v 0.70000000 0.00000000 0.50000000
v 0.65000000 0.20000000 0.50000000
v 0.35000000 0.20000000 0.50000000
v 0.30000000 0.15000000 0.50000000
v 0.30000000 0.00000000 0.50000000
v 0.35000000 0.20000000 0.14791847
v 0.65000000 0.20000000 0.02365440
v -0.02365440 0.20000000 -0.65000000
v -0.50000000 0.20000000 -0.35000000
v -0.14791847 0.20000000 -0.35000000
vt 0.00000000 0.00000000
vt 1.00000000 0.00000000
vt 1.00000000 1.00000000
vt 0.00000000 1.00000000
vt 0.00000000 0.00000000
vt 1.00000000 0.00000000
vt 1.00000000 1.00000000
vt 0.00000000 1.00000000
vt 0.00000000 0.00000000
vt 1.00000000 0.00000000
vt 1.00000000 1.00000000
vt 0.00000000 1.00000000
vt 0.00000000 1.00000000
vt 0.00000000 0.25000000
vt 0.06166548 0.00000000
vt 0.84027778 0.00000000
vt 1.00000000 0.25000000
vt 1.00000000 1.00000000
vt 0.00000000 0.00000000
vt 1.00000000 0.00000000
vt 1.00000000 1.00000000
vt 0.00000000 1.00000000
vt 0.00000000 0.00000000
vt 1.00000000 0.00000000
vt 1.00000000 1.00000000
vt 0.00000000 1.00000000
vt 0.00000000 0.00000000
vt 1.00000000 0.00000000
vt 1.00000000 1.00000000
vt 0.00000000 1.00000000
vt 0.00000000 0.00000000
vt 0.75000000 0.00000000
vt 1.00000000 0.12500000
vt 1.00000000 0.87500000
vt 0.75000000 1.00000000
vt 0.00000000 1.00000000
vt 1.00000000 0.00000000
vt 1.00000000 1.00000000
vt 0.00000000 1.00000000
vt 0.00000000 0.00000000
vt 1.00000000 0.00000000
vt 1.00000000 1.00000000
vt 0.00000000 1.00000000
vt 0.00000000 0.00000000
vt 1.00000000 0.00000000
vt 1.00000000 1.00000000
vt 0.00000000 1.00000000
vt 0.00000000 0.00000000
vt 1.00000000 0.00000000
vt 1.00000000 1.00000000
vt 0.00000000 1.00000000
vt 0.00000000 0.00000000
vt 0.00000000 0.26086957
vt 0.00000000 0.00000000
vt 0.41421356 0.00000000
vt 1.00000000 0.58578644
vt 1.00000000 1.00000000
vt 0.78805261 1.00000000
vt 0.73913043 1.00000000
vt 0.73913043 0.69384215
vt 0.30615785 0.26086957
vt 0.00000000 1.00000000
vt 0.00000000 0.00000000
vt 1.00000000 0.00000000
vt 1.00000000 1.00000000
vt 1.00000000 0.00000000
vt 1.00000000 1.00000000
vt 0.00000000 1.00000000
vt 0.00000000 0.00000000
vt 1.00000000 0.00000000
vt 1.00000000 1.00000000
vt 0.00000000 1.00000000
vt 0.00000000 0.00000000
vt 0.00000000 0.00000000
vt 1.00000000 0.00000000
vt 1.00000000 1.00000000
vt 0.00000000 1.00000000
vt 0.27614237 0.33333333
vt 0.00000000 0.33333333
vt 0.00000000 0.00000000
vt 0.41421356 0.00000000
vt 1.00000000 0.58578644
vt 1.00000000 1.00000000
vt 0.73913043 1.00000000
vt 0.66666667 1.00000000
vt 0.66666667 0.72385763
vn -0.70710678 0.00000000 0.70710678
vn -0.70710678 0.00000000 0.70710678
vn -0.70710678 0.00000000 0.70710678
vn -0.70710678 0.00000000 0.70710678
vn -0.00000000 -0.00000000 1.00000000
vn -0.00000000 -0.00000000 1.00000000
vn -0.00000000 -0.00000000 1.00000000
vn -0.00000000 -0.00000000 1.00000000
vn -1.00000000 0.00000000 0.00000000
vn -1.00000000 0.00000000 0.00000000
vn -1.00000000 0.00000000 0.00000000
vn -1.00000000 0.00000000 0.00000000
vn -1.00000000 0.00000000 -0.00000000
vn -1.00000000 0.00000000 -0.00000000
vn -1.00000000 0.00000000 -0.00000000
vn -1.00000000 0.00000000 -0.00000000
vn 0.00000000 0.00000000 -1.00000000
vn 0.00000000 0.00000000 -1.00000000
vn 0.00000000 0.00000000 -1.00000000
vn 0.00000000 0.00000000 -1.00000000
vn 0.70710678 -0.00000000 -0.70710678
vn 0.70710678 -0.00000000 -0.70710678
vn 0.70710678 -0.00000000 -0.70710678
vn 0.70710678 -0.00000000 -0.70710678
vn 1.00000000 -0.00000000 -0.00000000
vn 1.00000000 -0.00000000 -0.00000000
vn 1.00000000 -0.00000000 -0.00000000
vn 1.00000000 -0.00000000 -0.00000000
vn 0.00000000 -0.00000000 1.00000000
vn 0.00000000 -0.00000000 1.00000000
vn 0.00000000 -0.00000000 1.00000000
vn 0.00000000 -0.00000000 1.00000000
vn 0.00000000 -0.00000000 1.00000000
vn 0.00000000 -0.00000000 1.00000000
vn -0.70710678 0.70710678 0.00000000
vn -0.70710678 0.70710678 0.00000000
vn -0.70710678 0.70710678 0.00000000
vn -0.70710678 0.70710678 0.00000000
vn 0.70710678 0.70710678 0.00000000
vn 0.70710678 0.70710678 0.00000000
vn 0.70710678 0.70710678 0.00000000
vn 0.70710678 0.70710678 0.00000000
vn 0.50000000 0.70710678 -0.50000000
vn 0.50000000 0.70710678 -0.50000000
vn 0.50000000 0.70710678 -0.50000000
vn 0.50000000 0.70710678 -0.50000000
vn 0.00000000 0.70710678 -0.70710678
vn 0.00000000 0.70710678 -0.70710678
vn 0.00000000 0.70710678 -0.70710678
vn 0.00000000 0.70710678 -0.70710678
vn 0.00000000 1.00000000 0.00000000
vn 0.00000000 1.00000000 0.00000000
vn 0.00000000 1.00000000 0.00000000
vn 0.00000000 1.00000000 0.00000000
vn 0.00000000 1.00000000 0.00000000
vn 0.00000000 1.00000000 0.00000000
vn 0.00000000 1.00000000 0.00000000
vn 0.00000000 1.00000000 0.00000000
vn 0.00000000 1.00000000 0.00000000
vn -1.00000000 -0.00000000 -0.00000000
vn 0.00000000 0.70710678 0.70710678
vn 0.00000000 0.70710678 0.70710678
vn 0.00000000 0.70710678 0.70710678
vn 0.00000000 0.70710678 0.70710678
vn -0.50000000 0.70710678 0.50000000
vn -0.50000000 0.70710678 0.50000000
vn -0.50000000 0.70710678 0.50000000
vn -0.50000000 0.70710678 0.50000000
vn -1.00000000 0.00000000 0.00000000
vn -1.00000000 0.00000000 0.00000000
vn -1.00000000 0.00000000 0.00000000
vn -1.00000000 0.00000000 0.00000000
vn -0.00000000 -1.00000000 -0.00000000
vn -0.00000000 -1.00000000 -0.00000000
vn -0.00000000 -1.00000000 -0.00000000
vn -0.00000000 -1.00000000 -0.00000000
vn -0.00000000 -1.00000000 -0.00000000
vn -0.00000000 -1.00000000 -0.00000000
vn -0.00000000 -1.00000000 -0.00000000
vn -0.00000000 -1.00000000 -0.00000000
vn -0.00000000 -1.00000000 -0.00000000
s 1
usemtl Grey
f 1/1/1 2/2/2 4/4/4
f 2/2/2 3/3/3 4/4/4
s 2
f 5/5/5 6/6/6 2/7/7
f 5/5/5 2/7/7 1/8/8
s 3
f 7/9/9 8/10/10 5/12/12
f 8/13/10 10/16/14 12/18/16
f 10/16/14 11/17/15 12/18/16
f 8/10/10 6/11/11 5/12/12
f 26/65/60 7/63/9 5/62/12
f 26/65/60 9/64/13 7/63/9
f 8/13/10 7/14/9 10/16/14
f 7/14/9 9/15/13 10/16/14
s 4
f 13/19/17 14/20/18 11/22/20
f 14/20/18 12/21/19 11/22/20
s 5
f 15/23/21 16/24/22 13/26/24
f 16/24/22 14/25/23 13/26/24
s 6
f 17/27/25 18/28/26 15/30/28
f 18/28/26 16/29/27 15/30/28
s 7
f 20/34/32 21/35/33 22/36/34
f 18/31/29 19/33/31 22/36/34
f 18/31/29 17/32/30 19/33/31
f 19/33/31 20/34/32 22/36/34
s 8
f 4/40/38 21/39/37 20/38/36
f 4/40/38 20/38/36 23/37/35
s 9
f 17/44/42 15/43/41 24/42/40
f 17/44/42 24/42/40 19/41/39
s 10
f 15/48/46 13/47/45 24/45/43
f 13/47/45 25/46/44 24/45/43
s 11
f 13/52/50 11/51/49 25/49/47
f 11/51/49 10/50/48 25/49/47
s 12
f 23/61/59 20/53/51 19/54/52
f 27/60/58 23/61/59 24/55/53
f 9/58/56 26/59/57 27/60/58
f 25/56/54 10/57/55 9/58/56
f 27/60/58 25/56/54 9/58/56
f 27/60/58 24/55/53 25/56/54
f 23/61/59 19/54/52 24/55/53
s 13
f 5/69/64 1/68/63 26/66/61
f 1/68/63 27/67/62 26/66/61
s 14
f 1/73/68 4/72/67 23/71/66
f 1/73/68 23/71/66 27/70/65
s 15
f 4/74/69 3/75/70 21/77/72
f 3/75/70 22/76/71 21/77/72
s 16
f 2/86/81 6/85/80 8/84/79
f 2/86/81 14/82/77 16/81/76
f 16/81/76 18/80/75 3/78/73
f 18/80/75 22/79/74 3/78/73
f 16/81/76 3/78/73 2/86/81
f 2/86/81 12/83/78 14/82/77
f 2/86/81 8/84/79 12/83/78

