mtllib struct_wall_joint_main.mtl
o struct_wall_joint_main
g struct_wall_joint_main
v 0.43786797 1.00000000 -0.35000000
v 0.50000000 1.00000000 -0.35000000
v 0.50000000 1.00000000 -0.50000000
v 0.35000000 1.00000000 -0.50000000
v 0.35000000 1.00000000 -0.43786797
v 0.43786797 0.00000000 -0.35000000
v 0.50000000 0.00000000 -0.35000000
v 0.50000000 0.00000000 -0.50000000
v 0.35000000 0.00000000 -0.50000000
v 0.35000000 0.00000000 -0.43786797
vt 0.00000000 0.41421356
vt 0.00000000 0.00000000
vt 1.00000000 0.00000000
vt 1.00000000 1.00000000
vt 0.58578644 1.00000000
vt 0.00000000 0.00000000
vt 1.00000000 0.00000000
vt 1.00000000 1.00000000
vt 0.00000000 1.00000000
vt 0.00000000 0.41421356
vt 0.00000000 0.00000000
vt 1.00000000 0.00000000
vt 1.00000000 1.00000000
vt 0.58578644 1.00000000
vt 0.00000000 0.00000000
vt 1.00000000 0.00000000
vt 1.00000000 1.00000000
vt 0.00000000 1.00000000
vt 0.00000000 0.00000000
vt 1.00000000 0.00000000
vt 1.00000000 1.00000000
vt 0.00000000 1.00000000
vt 0.00000000 0.00000000
vt 1.00000000 0.00000000
vt 1.00000000 1.00000000
vt 0.00000000 1.00000000
vt 0.00000000 0.00000000
vt 1.00000000 0.00000000
vt 1.00000000 1.00000000
vt 0.00000000 1.00000000
vn 0.00000000 1.00000000 0.00000000
vn 0.00000000 1.00000000 0.00000000
vn 0.00000000 1.00000000 0.00000000
vn 0.00000000 1.00000000 0.00000000
vn 0.00000000 1.00000000 0.00000000
vn 0.00000000 0.00000000 1.00000000
vn 0.00000000 0.00000000 1.00000000
vn 0.00000000 0.00000000 1.00000000
vn 0.00000000 0.00000000 1.00000000
vn 0.00000000 -1.00000000 0.00000000
vn 0.00000000 -1.00000000 0.00000000
vn 0.00000000 -1.00000000 0.00000000
vn 0.00000000 -1.00000000 0.00000000
vn 0.00000000 -1.00000000 0.00000000
vn -0.70710678 0.00000000 0.70710678
vn -0.70710678 0.00000000 0.70710678
vn -0.70710678 0.00000000 0.70710678
vn -0.70710678 0.00000000 0.70710678
vn -1.00000000 0.00000000 -0.00000000
vn -1.00000000 0.00000000 -0.00000000
vn -1.00000000 0.00000000 -0.00000000
vn -1.00000000 0.00000000 -0.00000000
vn 0.00000000 0.00000000 -1.00000000
vn 0.00000000 0.00000000 -1.00000000
vn 0.00000000 0.00000000 -1.00000000
vn 0.00000000 0.00000000 -1.00000000
vn 1.00000000 0.00000000 0.00000000
vn 1.00000000 0.00000000 0.00000000
vn 1.00000000 0.00000000 0.00000000
vn 1.00000000 0.00000000 0.00000000
s 1
usemtl Dark_Grey
f 5/5/5 1/1/1 2/2/2
f 2/2/2 3/3/3 5/5/5
f 3/3/3 4/4/4 5/5/5
s 2
f 7/9/9 2/8/8 6/6/6
f 2/8/8 1/7/7 6/6/6
s 3
f 7/11/11 6/10/10 10/14/14
f 10/14/14 9/13/13 8/12/12
f 10/14/14 8/12/12 7/11/11
s 4
f 6/18/18 1/17/17 10/15/15
f 1/17/17 5/16/16 10/15/15
s 5
f 10/22/22 5/21/21 9/19/19
f 5/21/21 4/20/20 9/19/19
s 6
f 9/26/26 4/25/25 8/23/23
f 4/25/25 3/24/24 8/23/23
s 7
f 8/30/30 3/29/29 7/27/27
f 3/29/29 2/28/28 7/27/27

