mtllib struct_floor_cracked_4.mtl
o struct_floor_cracked_4
g struct_floor_cracked_4
v 0.50000000 0.00000000 -0.50000000
v 0.50000000 0.00000000 0.50000000
v 0.50000000 -0.20000000 0.50000000
v 0.50000000 -0.20000000 -0.50000000
v -0.25000000 0.00000000 0.00000000
v -0.00000000 0.00000000 -0.15000000
v 0.20000000 0.00000000 -0.10000000
v 0.05000000 0.00000000 0.20000000
v 0.20000000 0.00000000 0.50000000
v -0.50000000 0.00000000 -0.50000000
v -0.50000000 0.00000000 -0.20000000
v -0.00000000 -0.20000000 -0.15000000
v -0.25000000 -0.20000000 0.00000000
v -0.50000000 -0.20000000 -0.20000000
v -0.50000000 -0.20000000 -0.50000000
v 0.20000000 -0.20000000 0.50000000
v 0.05000000 -0.20000000 0.20000000
v 0.20000000 -0.20000000 -0.10000000
vt 0.00000000 1.00000000
vt 0.00000000 0.00000000
vt 1.00000000 0.00000000
vt 1.00000000 1.00000000
vt 0.75000000 0.50000000
vt 0.50000000 0.35000000
vt 0.30000000 0.40000000
vt 0.45000000 0.70000000
vt 0.30000000 1.00000000
vt 0.00000000 1.00000000
vt 0.00000000 0.00000000
vt 1.00000000 0.00000000
vt 1.00000000 0.30000000
vt 1.00000000 1.00000000
vt 0.00000000 1.00000000
vt 0.00000000 0.00000000
vt 1.00000000 0.00000000
vt 1.00000000 1.00000000
vt 0.00000000 1.00000000
vt 0.00000000 0.00000000
vt 1.00000000 0.00000000
vt 0.00000000 1.00000000
vt 0.00000000 0.00000000
vt 1.00000000 0.00000000
vt 1.00000000 1.00000000
vt 1.00000000 1.00000000
vt 0.00000000 1.00000000
vt 0.00000000 0.00000000
vt 1.00000000 0.00000000
vt 1.00000000 1.00000000
vt 0.00000000 1.00000000
vt 0.00000000 0.00000000
vt 1.00000000 0.00000000
vt 1.00000000 1.00000000
vt 0.00000000 1.00000000
vt 0.00000000 0.00000000
vt 1.00000000 0.00000000
vt 0.00000000 1.00000000
vt 0.00000000 0.00000000
vt 1.00000000 0.00000000
vt 1.00000000 1.00000000
vt 0.00000000 1.00000000
vt 0.00000000 0.00000000
vt 1.00000000 0.00000000
vt 1.00000000 0.30000000
vt 0.75000000 0.50000000
vt 0.50000000 0.35000000
vt 0.30000000 0.40000000
vt 0.45000000 0.70000000
vt 0.30000000 1.00000000
vt 1.00000000 0.00000000
vt 1.00000000 1.00000000
vt 0.00000000 1.00000000
vt 0.00000000 0.00000000
vn 1.00000000 0.00000000 0.00000000
vn 1.00000000 0.00000000 0.00000000
vn 1.00000000 0.00000000 0.00000000
vn 1.00000000 0.00000000 0.00000000
vn 0.00000000 1.00000000 0.00000000
vn 0.00000000 1.00000000 0.00000000
vn 0.00000000 1.00000000 0.00000000
vn 0.00000000 1.00000000 0.00000000
vn 0.00000000 1.00000000 0.00000000
vn 0.00000000 1.00000000 0.00000000
vn 0.00000000 1.00000000 0.00000000
vn 0.00000000 1.00000000 0.00000000
vn 0.00000000 1.00000000 0.00000000
vn 0.51449576 0.00000000 0.85749293
vn 0.51449576 0.00000000 0.85749293
vn 0.51449576 0.00000000 0.85749293
vn 0.51449576 0.00000000 0.85749293
vn -0.62469505 0.00000000 0.78086881
vn -0.62469505 0.00000000 0.78086881
vn -0.62469505 -0.00000000 0.78086881
vn -0.62469505 -0.00000000 0.78086881
vn -1.00000000 0.00000000 0.00000000
vn -1.00000000 0.00000000 0.00000000
vn -1.00000000 0.00000000 0.00000000
vn -1.00000000 0.00000000 0.00000000
vn -0.89442719 0.00000000 0.44721360
vn -0.89442719 0.00000000 0.44721360
vn -0.89442719 0.00000000 0.44721360
vn -0.89442719 0.00000000 0.44721360
vn -0.89442719 0.00000000 -0.44721360
vn -0.89442719 0.00000000 -0.44721360
vn -0.89442719 0.00000000 -0.44721360
vn -0.89442719 0.00000000 -0.44721360
vn -0.24253563 0.00000000 0.97014250
vn -0.24253563 0.00000000 0.97014250
vn -0.24253563 0.00000000 0.97014250
vn -0.24253563 0.00000000 0.97014250
vn 0.00000000 0.00000000 -1.00000000
vn 0.00000000 0.00000000 -1.00000000
vn 0.00000000 0.00000000 -1.00000000
vn 0.00000000 0.00000000 -1.00000000
vn 0.00000000 -1.00000000 0.00000000
vn 0.00000000 -1.00000000 0.00000000
vn 0.00000000 -1.00000000 0.00000000
vn 0.00000000 -1.00000000 0.00000000
vn 0.00000000 -1.00000000 0.00000000
vn 0.00000000 -1.00000000 0.00000000
vn 0.00000000 -1.00000000 0.00000000
vn 0.00000000 -1.00000000 0.00000000
vn 0.00000000 -1.00000000 0.00000000
vn 0.00000000 0.00000000 1.00000000
vn 0.00000000 0.00000000 1.00000000
vn 0.00000000 0.00000000 1.00000000
vn 0.00000000 0.00000000 1.00000000
s 1
usemtl Dark_Grey
f 1/1/1 2/2/2 4/4/4
f 2/2/2 3/3/3 4/4/4
s 2
f 11/13/13 5/5/5 6/6/6
f 6/6/6 1/11/11 10/12/12
f 7/7/7 2/10/10 1/11/11
f 8/8/8 9/9/9 2/10/10
f 7/7/7 8/8/8 2/10/10
f 6/6/6 7/7/7 1/11/11
f 10/12/12 11/13/13 6/6/6
s 3
f 12/14/14 6/15/15 13/17/17
f 6/15/15 5/16/16 13/17/17
s 4
f 13/18/18 5/19/19 14/21/21
f 5/19/19 11/20/20 14/21/21
s 5
f 11/22/22 10/23/23 14/25/25
f 10/23/23 15/24/24 14/25/25
s 6
f 16/26/26 9/27/27 8/28/28
f 16/26/26 8/28/28 17/29/29
s 7
f 17/30/30 8/31/31 18/33/33
f 8/31/31 7/32/32 18/33/33
s 8
f 18/34/34 7/35/35 12/37/37
f 7/35/35 6/36/36 12/37/37
s 9
f 10/38/38 1/39/39 15/41/41
f 1/39/39 4/40/40 15/41/41
s 10
f 12/47/47 13/46/46 14/45/45
f 12/47/47 15/44/44 4/43/43
f 4/43/43 3/42/42 18/48/48
f 3/42/42 17/49/49 18/48/48
f 3/42/42 16/50/50 17/49/49
f 4/43/43 18/48/48 12/47/47
f 12/47/47 14/45/45 15/44/44
s 11
f 16/51/51 3/52/52 9/54/54
f 3/52/52 2/53/53 9/54/54

