mtllib struct_wall_straight_topper.mtl
o struct_wall_straight_topper
g struct_wall_straight_topper
v -0.50000000 0.00000000 -0.70000000
v 0.50000000 0.00000000 -0.70000000
v 0.50000000 0.00000000 -0.30000000
v -0.50000000 0.00000000 -0.30000000
v -0.50000000 0.10000000 -0.60000000
v 0.50000000 0.10000000 -0.60000000
v -0.50000000 0.10000000 -0.40000000
v 0.50000000 0.10000000 -0.40000000
vt 1.00000000 0.00000000
vt 1.00000000 1.00000000
vt 0.00000000 1.00000000
vt 0.00000000 0.00000000
vt 1.00000000 0.00000000
vt 1.00000000 1.00000000
vt 0.00000000 1.00000000
vt 0.00000000 0.00000000
vt 1.00000000 1.00000000
vt 0.00000000 1.00000000
vt 0.00000000 0.00000000
vt 1.00000000 0.00000000
vt 0.00000000 0.00000000
vt 1.00000000 0.25000000
vt 1.00000000 0.75000000
vt 0.00000000 1.00000000
vt 1.00000000 0.00000000
vt 1.00000000 1.00000000
vt 0.00000000 1.00000000
vt 0.00000000 0.00000000
vt 0.00000000 0.00000000
vt 1.00000000 0.25000000
vt 1.00000000 0.75000000
vt 0.00000000 1.00000000
vn 0.00000000 -1.00000000 0.00000000
vn 0.00000000 -1.00000000 0.00000000
vn 0.00000000 -1.00000000 0.00000000
vn 0.00000000 -1.00000000 0.00000000
vn 0.00000000 0.70710678 -0.70710678
vn 0.00000000 0.70710678 -0.70710678
vn 0.00000000 0.70710678 -0.70710678
vn 0.00000000 0.70710678 -0.70710678
vn 0.00000000 1.00000000 0.00000000
vn 0.00000000 1.00000000 0.00000000
vn 0.00000000 1.00000000 0.00000000
vn 0.00000000 1.00000000 0.00000000
vn -1.00000000 0.00000000 0.00000000
vn -1.00000000 0.00000000 0.00000000
vn -1.00000000 0.00000000 0.00000000
vn -1.00000000 0.00000000 0.00000000
vn 0.00000000 0.70710678 0.70710678
vn 0.00000000 0.70710678 0.70710678
vn 0.00000000 0.70710678 0.70710678
vn 0.00000000 0.70710678 0.70710678
vn 1.00000000 0.00000000 0.00000000
vn 1.00000000 0.00000000 0.00000000
vn 1.00000000 0.00000000 0.00000000
vn 1.00000000 0.00000000 0.00000000
s 1
usemtl Grey
f 1/1/1 2/2/2 3/3/3
f 1/1/1 3/3/3 4/4/4
s 2
f 1/5/5 5/6/6 6/7/7
f 1/5/5 6/7/7 2/8/8
s 3
f 5/9/9 7/10/10 8/11/11
f 5/9/9 8/11/11 6/12/12
s 4
f 4/16/16 7/15/15 1/13/13
f 7/15/15 5/14/14 1/13/13
s 5
f 7/17/17 4/18/18 3/19/19
f 7/17/17 3/19/19 8/20/20
s 6
f 2/24/24 6/23/23 3/21/21
f 6/23/23 8/22/22 3/21/21

