mtllib struct_block_curved_subtract.mtl
o struct_block_curved_subtract
g struct_block_curved_subtract
v -0.19098301 1.00000000 -0.45105652
v 0.08778525 1.00000000 -0.30901699
v 0.08778525 0.00000000 -0.30901699
v -0.19098301 0.00000000 -0.45105652
v 0.30901699 0.00000000 -0.08778525
v 0.45105652 0.00000000 0.19098301
v 0.50000000 0.00000000 0.50000000
v 0.50000000 0.00000000 -0.50000000
v -0.50000000 0.00000000 -0.50000000
v 0.30901699 1.00000000 -0.08778525
v 0.45105652 1.00000000 0.19098301
v 0.50000000 1.00000000 0.50000000
v 0.50000000 1.00000000 -0.50000000
v -0.50000000 1.00000000 -0.50000000
vt 0.00000000 1.00000000
vt 0.00000000 0.00000000
vt 1.00000000 0.00000000
vt 1.00000000 1.00000000
vt 0.95105652 0.69098301
vt 0.80901699 0.41221475
vt 0.58778525 0.19098301
vt 0.30901699 0.04894348
vt 0.00000000 0.00000000
vt 1.00000000 0.00000000
vt 1.00000000 1.00000000
vt 0.00000000 1.00000000
vt 0.00000000 0.00000000
vt 1.00000000 0.00000000
vt 1.00000000 1.00000000
vt 0.00000000 1.00000000
vt 0.00000000 0.00000000
vt 1.00000000 0.00000000
vt 1.00000000 1.00000000
vt 1.00000000 1.00000000
vt 0.00000000 1.00000000
vt 0.00000000 0.00000000
vt 1.00000000 0.00000000
vt 1.00000000 1.00000000
vt 0.00000000 1.00000000
vt 0.00000000 0.00000000
vt 1.00000000 0.00000000
vt 0.00000000 1.00000000
vt 0.00000000 0.00000000
vt 1.00000000 0.00000000
vt 1.00000000 1.00000000
vt 0.95105652 0.69098301
vt 0.80901699 0.41221475
vt 0.58778525 0.19098301
vt 0.30901699 0.04894348
vt 0.00000000 0.00000000
vt 1.00000000 0.00000000
vt 1.00000000 1.00000000
vt 0.00000000 1.00000000
vt 0.00000000 0.00000000
vt 1.00000000 0.00000000
vt 1.00000000 1.00000000
vn -0.45399050 0.00000000 0.89100652
vn -0.45399050 0.00000000 0.89100652
vn -0.45399050 0.00000000 0.89100652
vn -0.45399050 0.00000000 0.89100652
vn 0.00000000 -1.00000000 0.00000000
vn 0.00000000 -1.00000000 0.00000000
vn 0.00000000 -1.00000000 0.00000000
vn 0.00000000 -1.00000000 0.00000000
vn 0.00000000 -1.00000000 0.00000000
vn 0.00000000 -1.00000000 0.00000000
vn 0.00000000 -1.00000000 0.00000000
vn -0.89100652 0.00000000 0.45399050
vn -0.89100652 0.00000000 0.45399050
vn -0.89100652 0.00000000 0.45399050
vn -0.89100652 0.00000000 0.45399050
vn -0.98768834 0.00000000 0.15643447
vn -0.98768834 0.00000000 0.15643447
vn -0.98768834 0.00000000 0.15643447
vn -0.98768834 0.00000000 0.15643447
vn 1.00000000 0.00000000 0.00000000
vn 1.00000000 0.00000000 0.00000000
vn 1.00000000 0.00000000 0.00000000
vn 1.00000000 0.00000000 0.00000000
vn 0.00000000 0.00000000 -1.00000000
vn 0.00000000 0.00000000 -1.00000000
vn 0.00000000 0.00000000 -1.00000000
vn 0.00000000 0.00000000 -1.00000000
vn -0.15643447 0.00000000 0.98768834
vn -0.15643447 0.00000000 0.98768834
vn -0.15643447 0.00000000 0.98768834
vn -0.15643447 0.00000000 0.98768834
vn 0.00000000 1.00000000 0.00000000
vn 0.00000000 1.00000000 0.00000000
vn 0.00000000 1.00000000 0.00000000
vn 0.00000000 1.00000000 0.00000000
vn 0.00000000 1.00000000 0.00000000
vn 0.00000000 1.00000000 0.00000000
vn 0.00000000 1.00000000 0.00000000
vn -0.70710678 0.00000000 0.70710678
vn -0.70710678 0.00000000 0.70710678
vn -0.70710678 0.00000000 0.70710678
vn -0.70710678 0.00000000 0.70710678
s 1
usemtl Dark_Grey
f 4/4/4 3/3/3 1/1/1
f 3/3/3 2/2/2 1/1/1
s 2
f 8/10/10 7/9/9 6/8/8
f 9/11/11 8/10/10 4/5/5
f 8/10/10 3/6/6 4/5/5
f 8/10/10 5/7/7 3/6/6
f 8/10/10 6/8/8 5/7/7
s 3
f 5/15/15 6/14/14 10/12/12
f 6/14/14 11/13/13 10/12/12
s 4
f 6/19/19 7/18/18 11/16/16
f 7/18/18 12/17/17 11/16/16
s 5
f 8/20/20 13/21/21 7/23/23
f 13/21/21 12/22/22 7/23/23
s 6
f 9/24/24 14/25/25 8/27/27
f 14/25/25 13/26/26 8/27/27
s 7
f 9/31/31 4/30/30 14/28/28
f 4/30/30 1/29/29 14/28/28
s 8
f 11/35/35 12/36/36 13/37/37
f 1/32/32 13/37/37 14/38/38
f 1/32/32 2/33/33 13/37/37
f 2/33/33 10/34/34 13/37/37
f 10/34/34 11/35/35 13/37/37
s 9
f 3/42/42 5/41/41 2/39/39
f 5/41/41 10/40/40 2/39/39

