mtllib struct_wall_sewer_main.mtl
o struct_wall_sewer_main
g struct_wall_sewer_main
v -0.50000000 0.00000000 -0.35000000
v -0.25000000 0.00000000 -0.35000000
v -0.25000000 0.00000000 -0.65000000
v -0.50000000 0.00000000 -0.65000000
v -0.21650635 0.12500000 -0.65000000
v -0.12500000 0.21650635 -0.65000000
v -0.00000000 0.25000000 -0.65000000
v 0.12500000 0.21650635 -0.65000000
v 0.21650635 0.12500000 -0.65000000
v 0.25000000 0.00000000 -0.65000000
v 0.50000000 0.00000000 -0.65000000
v 0.50000000 1.00000000 -0.65000000
v -0.50000000 1.00000000 -0.65000000
v -0.00000000 0.25000000 -0.35000000
v 0.12500000 0.21650635 -0.35000000
v 0.21650635 0.12500000 -0.35000000
v 0.25000000 0.00000000 -0.35000000
v 0.50000000 0.00000000 -0.35000000
v 0.50000000 1.00000000 -0.35000000
v -0.50000000 1.00000000 -0.35000000
v -0.21650635 0.12500000 -0.35000000
v -0.12500000 0.21650635 -0.35000000
vt 0.00000000 0.00000000
vt 1.00000000 0.00000000
vt 1.00000000 1.00000000
vt 0.00000000 1.00000000
vt 0.28349365 0.12500000
vt 0.37500000 0.21650635
vt 0.50000000 0.25000000
vt 0.62500000 0.21650635
vt 0.71650635 0.12500000
vt 0.75000000 0.00000000
vt 1.00000000 0.00000000
vt 1.00000000 1.00000000
vt 0.00000000 1.00000000
vt 0.00000000 0.00000000
vt 0.25000000 0.00000000
vt 0.00000000 0.00000000
vt 1.00000000 0.00000000
vt 1.00000000 1.00000000
vt 0.00000000 1.00000000
vt 0.00000000 0.00000000
vt 1.00000000 0.00000000
vt 1.00000000 1.00000000
vt 0.00000000 1.00000000
vt 0.00000000 0.00000000
vt 1.00000000 0.00000000
vt 1.00000000 1.00000000
vt 0.00000000 1.00000000
vt 1.00000000 1.00000000
vt 0.00000000 1.00000000
vt 0.00000000 0.00000000
vt 1.00000000 0.00000000
vt 0.00000000 0.00000000
vt 1.00000000 0.00000000
vt 1.00000000 1.00000000
vt 0.00000000 1.00000000
vt 1.00000000 1.00000000
vt 0.00000000 1.00000000
vt 0.00000000 0.00000000
vt 1.00000000 0.00000000
vt 0.00000000 0.00000000
vt 1.00000000 0.00000000
vt 1.00000000 1.00000000
vt 0.00000000 1.00000000
vt 0.00000000 0.00000000
vt 1.00000000 0.00000000
vt 1.00000000 1.00000000
vt 0.00000000 1.00000000
vt 0.00000000 0.00000000
vt 1.00000000 0.00000000
vt 1.00000000 1.00000000
vt 0.00000000 1.00000000
vt 0.28349365 0.12500000
vt 0.37500000 0.21650635
vt 0.50000000 0.25000000
vt 0.62500000 0.21650635
vt 0.71650635 0.12500000
vt 0.75000000 0.00000000
vt 1.00000000 0.00000000
vt 1.00000000 1.00000000
vt 0.00000000 1.00000000
vt 0.00000000 0.00000000
vt 0.25000000 0.00000000
vt 0.00000000 0.00000000
vt 1.00000000 0.00000000
vt 1.00000000 1.00000000
vt 0.00000000 1.00000000
vn 0.00000000 -1.00000000 0.00000000
vn 0.00000000 -1.00000000 0.00000000
vn 0.00000000 -1.00000000 0.00000000
vn 0.00000000 -1.00000000 0.00000000
vn 0.00000000 0.00000000 -1.00000000
vn 0.00000000 0.00000000 -1.00000000
vn 0.00000000 0.00000000 -1.00000000
vn 0.00000000 0.00000000 -1.00000000
vn 0.00000000 0.00000000 -1.00000000
vn 0.00000000 0.00000000 -1.00000000
vn 0.00000000 0.00000000 -1.00000000
vn 0.00000000 0.00000000 -1.00000000
vn 0.00000000 0.00000000 -1.00000000
vn 0.00000000 0.00000000 -1.00000000
vn 0.00000000 0.00000000 -1.00000000
vn -0.25881905 -0.96592583 -0.00000000
vn -0.25881905 -0.96592583 -0.00000000
vn -0.25881905 -0.96592583 -0.00000000
vn -0.25881905 -0.96592583 -0.00000000
vn -0.70710678 -0.70710678 0.00000000
vn -0.70710678 -0.70710678 0.00000000
vn -0.70710678 -0.70710678 0.00000000
vn -0.70710678 -0.70710678 0.00000000
vn -0.96592583 -0.25881905 -0.00000000
vn -0.96592583 -0.25881905 -0.00000000
vn -0.96592583 -0.25881905 0.00000000
vn -0.96592583 -0.25881905 0.00000000
vn 0.00000000 -1.00000000 0.00000000
vn 0.00000000 -1.00000000 0.00000000
vn 0.00000000 -1.00000000 0.00000000
vn 0.00000000 -1.00000000 0.00000000
vn 1.00000000 0.00000000 0.00000000
vn 1.00000000 0.00000000 0.00000000
vn 1.00000000 0.00000000 0.00000000
vn 1.00000000 0.00000000 0.00000000
vn 0.00000000 1.00000000 0.00000000
vn 0.00000000 1.00000000 0.00000000
vn 0.00000000 1.00000000 0.00000000
vn 0.00000000 1.00000000 0.00000000
vn 0.70710678 -0.70710678 -0.00000000
vn 0.70710678 -0.70710678 -0.00000000
vn 0.70710678 -0.70710678 -0.00000000
vn 0.70710678 -0.70710678 -0.00000000
vn 0.25881905 -0.96592583 -0.00000000
vn 0.25881905 -0.96592583 -0.00000000
vn 0.25881905 -0.96592583 -0.00000000
vn 0.25881905 -0.96592583 -0.00000000
vn -1.00000000 0.00000000 0.00000000
vn -1.00000000 0.00000000 0.00000000
vn -1.00000000 0.00000000 0.00000000
vn -1.00000000 0.00000000 0.00000000
vn 0.00000000 0.00000000 1.00000000
vn 0.00000000 0.00000000 1.00000000
vn 0.00000000 0.00000000 1.00000000
vn 0.00000000 0.00000000 1.00000000
vn 0.00000000 0.00000000 1.00000000
vn 0.00000000 0.00000000 1.00000000
vn 0.00000000 0.00000000 1.00000000
vn 0.00000000 0.00000000 1.00000000
vn 0.00000000 0.00000000 1.00000000
vn 0.00000000 0.00000000 1.00000000
vn 0.00000000 0.00000000 1.00000000
vn 0.96592583 -0.25881905 0.00000000
vn 0.96592583 -0.25881905 0.00000000
vn 0.96592583 -0.25881905 0.00000000
vn 0.96592583 -0.25881905 0.00000000
s 1
usemtl Dark_Grey
f 4/4/4 3/3/3 2/2/2
f 4/4/4 2/2/2 1/1/1
s 2
f 5/5/5 3/15/15 4/14/14
f 6/6/6 5/5/5 13/13/13
f 13/13/13 9/9/9 8/8/8
f 12/12/12 11/11/11 9/9/9
f 11/11/11 10/10/10 9/9/9
f 8/8/8 7/7/7 13/13/13
f 13/13/13 12/12/12 9/9/9
f 7/7/7 6/6/6 13/13/13
f 5/5/5 4/14/14 13/13/13
s 3
usemtl Grey
f 14/16/16 7/17/17 8/18/18
f 14/16/16 8/18/18 15/19/19
s 4
f 15/20/20 8/21/21 9/22/22
f 15/20/20 9/22/22 16/23/23
s 5
f 16/24/24 9/25/25 10/26/26
f 16/24/24 10/26/26 17/27/27
s 6
usemtl Dark_Grey
f 18/31/31 17/30/30 11/28/28
f 17/30/30 10/29/29 11/28/28
s 7
f 11/35/35 12/34/34 18/32/32
f 12/34/34 19/33/33 18/32/32
s 8
f 12/36/36 13/37/37 19/39/39
f 13/37/37 20/38/38 19/39/39
s 9
usemtl Grey
f 21/40/40 5/41/41 6/42/42
f 21/40/40 6/42/42 22/43/43
s 10
f 22/44/44 6/45/45 7/46/46
f 22/44/44 7/46/46 14/47/47
s 11
usemtl Dark_Grey
f 1/48/48 20/49/49 4/51/51
f 20/49/49 13/50/50 4/51/51
s 12
f 1/61/61 2/62/62 21/52/52
f 20/60/60 21/52/52 22/53/53
f 15/55/55 16/56/56 20/60/60
f 16/56/56 18/58/58 19/59/59
f 16/56/56 17/57/57 18/58/58
f 20/60/60 14/54/54 15/55/55
f 20/60/60 22/53/53 14/54/54
f 16/56/56 19/59/59 20/60/60
f 20/60/60 1/61/61 21/52/52
s 13
usemtl Grey
f 2/63/63 3/64/64 5/65/65
f 2/63/63 5/65/65 21/66/66
o struct_wall_sewer_main_2
g struct_wall_sewer_main_2
v -0.25000000 -0.00000000 -0.28125000
v -0.25000000 -0.00000000 -0.71875000
v -0.22411810 0.00000000 -0.75000000
v -0.15000000 0.00000000 -0.75000000
v -0.15000000 0.00000000 -0.25000000
v -0.22411810 0.00000000 -0.25000000
v -0.21650635 0.12500000 -0.71875000
v -0.21650635 0.12500000 -0.28125000
v -0.12500000 0.21650635 -0.71875000
v -0.12500000 0.21650635 -0.28125000
v -0.00000000 0.25000000 -0.71875000
v -0.00000000 0.25000000 -0.28125000
v 0.12500000 0.21650635 -0.71875000
v 0.12500000 0.21650635 -0.28125000
v 0.21650635 0.12500000 -0.71875000
v 0.21650635 0.12500000 -0.28125000
v 0.25000000 0.00000000 -0.71875000
v 0.25000000 0.00000000 -0.28125000
v 0.15000000 0.00000000 -0.75000000
v 0.22411810 0.00000000 -0.75000000
v 0.22411810 -0.00000000 -0.25000000
v 0.15000000 0.00000000 -0.25000000
v 0.12990381 0.07500000 -0.25000000
v 0.12990381 0.07500000 -0.75000000
v 0.07500000 0.12990381 -0.25000000
v 0.07500000 0.12990381 -0.75000000
v 0.00000000 0.15000000 -0.25000000
v 0.00000000 0.15000000 -0.75000000
v -0.07500000 0.12990381 -0.25000000
v -0.07500000 0.12990381 -0.75000000
v -0.12990381 0.07500000 -0.25000000
v -0.12990381 0.07500000 -0.75000000
v 0.19409196 0.11205905 -0.25000000
v 0.19409196 0.11205905 -0.75000000
v 0.11205905 0.19409196 -0.25000000
v 0.11205905 0.19409196 -0.75000000
v -0.00000000 0.22411810 -0.25000000
v -0.00000000 0.22411810 -0.75000000
v -0.11205905 0.19409196 -0.25000000
v -0.11205905 0.19409196 -0.75000000
v -0.19409196 0.11205905 -0.25000000
v -0.19409196 0.11205905 -0.75000000
vt 0.06250000 0.00000000
vt 0.93750000 0.00000000
vt 1.00000000 0.25881905
vt 1.00000000 1.00000000
vt 0.00000000 1.00000000
vt 0.00000000 0.25881905
vt 0.00000000 0.00000000
vt 1.00000000 0.00000000
vt 1.00000000 1.00000000
vt 0.00000000 1.00000000
vt 0.00000000 0.00000000
vt 1.00000000 0.00000000
vt 1.00000000 1.00000000
vt 0.00000000 1.00000000
vt 0.00000000 0.00000000
vt 1.00000000 0.00000000
vt 1.00000000 1.00000000
vt 0.00000000 1.00000000
vt 0.00000000 0.00000000
vt 1.00000000 0.00000000
vt 1.00000000 1.00000000
vt 0.00000000 1.00000000
vt 0.00000000 0.00000000
vt 1.00000000 0.00000000
vt 1.00000000 1.00000000
vt 0.00000000 1.00000000
vt 0.00000000 0.00000000
vt 1.00000000 0.00000000
vt 1.00000000 1.00000000
vt 0.00000000 1.00000000
vt 1.00000000 0.00000000
vt 1.00000000 0.74118095
vt 0.93750000 1.00000000
vt 0.06250000 1.00000000
vt 0.00000000 0.74118095
vt 0.00000000 0.00000000
vt 1.00000000 1.00000000
vt 0.00000000 1.00000000
vt 0.00000000 0.00000000
vt 1.00000000 0.00000000
vt 1.00000000 1.00000000
vt 0.00000000 1.00000000
vt 0.00000000 0.00000000
vt 1.00000000 0.00000000
vt 1.00000000 1.00000000
vt 0.00000000 1.00000000
vt 0.00000000 0.00000000
vt 1.00000000 0.00000000
vt 1.00000000 1.00000000
vt 0.00000000 1.00000000
vt 0.00000000 0.00000000
vt 1.00000000 0.00000000
vt 1.00000000 1.00000000
vt 0.00000000 1.00000000
vt 0.00000000 0.00000000
vt 1.00000000 0.00000000
vt 0.00000000 1.00000000
vt 0.05176381 0.00000000
vt 0.94823619 0.00000000
vt 1.00000000 1.00000000
vt 0.05176381 1.00000000
vt 0.00000000 0.00000000
vt 1.00000000 0.00000000
vt 0.94823619 1.00000000
vt 0.00000000 1.00000000
vt 0.05176381 0.00000000
vt 0.94823619 0.00000000
vt 1.00000000 1.00000000
vt 0.05176381 1.00000000
vt 0.00000000 0.00000000
vt 1.00000000 0.00000000
vt 0.94823619 1.00000000
vt 0.00000000 1.00000000
vt 0.05176381 0.00000000
vt 0.94823619 0.00000000
vt 1.00000000 1.00000000
vt 0.05176381 1.00000000
vt 0.00000000 0.00000000
vt 1.00000000 0.00000000
vt 0.94823619 1.00000000
vt 0.00000000 1.00000000
vt 0.05176381 0.00000000
vt 0.94823619 0.00000000
vt 1.00000000 1.00000000
vt 0.05176381 1.00000000
vt 0.00000000 0.00000000
vt 1.00000000 0.00000000
vt 0.94823619 1.00000000
vt 0.00000000 1.00000000
vt 0.05176381 0.00000000
vt 0.94823619 0.00000000
vt 1.00000000 1.00000000
vt 0.05176381 1.00000000
vt 0.00000000 0.00000000
vt 1.00000000 0.00000000
vt 0.94823619 1.00000000
vt 0.00000000 1.00000000
vt 0.05176381 0.00000000
vt 0.94823619 0.00000000
vt 1.00000000 1.00000000
vt 0.00000000 0.16535500
vt 0.00000000 0.00000000
vt 0.50000000 0.06698730
vt 0.86602540 0.25000000
vt 1.00000000 0.50000000
vt 0.86602540 0.75000000
vt 0.50000000 0.93301270
vt 0.00000000 1.00000000
vt 0.00000000 0.83464500
vt 0.33464500 0.78981107
vt 0.57962214 0.66732250
vt 0.66929000 0.50000000
vt 0.57962214 0.33267750
vt 0.33464500 0.21018893
vt 1.00000000 1.00000000
vt 0.00000000 1.00000000
vt 0.00000000 0.00000000
vt 1.00000000 0.00000000
vt 0.86602540 0.75000000
vt 0.50000000 0.93301270
vt 0.00000000 1.00000000
vt 0.00000000 0.83464500
vt 0.33464500 0.78981107
vt 0.57962214 0.66732250
vt 0.66929000 0.50000000
vt 0.57962214 0.33267750
vt 0.33464500 0.21018893
vt 0.00000000 0.16535500
vt 0.00000000 0.00000000
vt 0.50000000 0.06698730
vt 0.86602540 0.25000000
vt 1.00000000 0.50000000
vt 0.05176381 1.00000000
vt 0.00000000 0.00000000
vt 1.00000000 0.00000000
vt 0.94823619 1.00000000
vn -0.00000000 -1.00000000 -0.00000000
vn -0.00000000 -1.00000000 -0.00000000
vn -0.00000000 -1.00000000 -0.00000000
vn -0.00000000 -1.00000000 -0.00000000
vn -0.00000000 -1.00000000 -0.00000000
vn -0.00000000 -1.00000000 -0.00000000
vn -0.96592583 0.25881905 0.00000000
vn -0.96592583 0.25881905 0.00000000
vn -0.96592583 0.25881905 0.00000000
vn -0.96592583 0.25881905 0.00000000
vn -0.70710678 0.70710678 0.00000000
vn -0.70710678 0.70710678 0.00000000
vn -0.70710678 0.70710678 0.00000000
vn -0.70710678 0.70710678 0.00000000
vn -0.25881905 0.96592583 0.00000000
vn -0.25881905 0.96592583 0.00000000
vn -0.25881905 0.96592583 0.00000000
vn -0.25881905 0.96592583 0.00000000
vn 0.25881905 0.96592583 0.00000000
vn 0.25881905 0.96592583 0.00000000
vn 0.25881905 0.96592583 0.00000000
vn 0.25881905 0.96592583 0.00000000
vn 0.70710678 0.70710678 0.00000000
vn 0.70710678 0.70710678 0.00000000
vn 0.70710678 0.70710678 0.00000000
vn 0.70710678 0.70710678 0.00000000
vn 0.96592583 0.25881905 0.00000000
vn 0.96592583 0.25881905 0.00000000
vn 0.96592583 0.25881905 0.00000000
vn 0.96592583 0.25881905 0.00000000
vn -0.00000000 -1.00000000 -0.00000000
vn -0.00000000 -1.00000000 -0.00000000
vn -0.00000000 -1.00000000 -0.00000000
vn -0.00000000 -1.00000000 -0.00000000
vn -0.00000000 -1.00000000 -0.00000000
vn -0.00000000 -1.00000000 -0.00000000
vn -0.96592583 -0.25881905 0.00000000
vn -0.96592583 -0.25881905 0.00000000
vn -0.96592583 -0.25881905 0.00000000
vn -0.96592583 -0.25881905 0.00000000
vn -0.70710678 -0.70710678 -0.00000000
vn -0.70710678 -0.70710678 -0.00000000
vn -0.70710678 -0.70710678 -0.00000000
vn -0.70710678 -0.70710678 -0.00000000
vn -0.25881905 -0.96592583 -0.00000000
vn -0.25881905 -0.96592583 -0.00000000
vn -0.25881905 -0.96592583 -0.00000000
vn -0.25881905 -0.96592583 -0.00000000
vn 0.25881905 -0.96592583 -0.00000000
vn 0.25881905 -0.96592583 -0.00000000
vn 0.25881905 -0.96592583 -0.00000000
vn 0.25881905 -0.96592583 -0.00000000
vn 0.70710678 -0.70710678 -0.00000000
vn 0.70710678 -0.70710678 -0.00000000
vn 0.70710678 -0.70710678 -0.00000000
vn 0.70710678 -0.70710678 -0.00000000
vn 0.75426135 0.20210372 0.62469505
vn 0.75426135 0.20210372 0.62469505
vn 0.75426135 0.20210372 0.62469505
vn 0.75426135 0.20210372 0.62469505
vn 0.75426135 0.20210372 -0.62469505
vn 0.75426135 0.20210372 -0.62469505
vn 0.75426135 0.20210372 -0.62469505
vn 0.75426135 0.20210372 -0.62469505
vn 0.55215763 0.55215763 0.62469505
vn 0.55215763 0.55215763 0.62469505
vn 0.55215763 0.55215763 0.62469505
vn 0.55215763 0.55215763 0.62469505
vn 0.55215763 0.55215763 -0.62469505
vn 0.55215763 0.55215763 -0.62469505
vn 0.55215763 0.55215763 -0.62469505
vn 0.55215763 0.55215763 -0.62469505
vn 0.20210372 0.75426135 0.62469505
vn 0.20210372 0.75426135 0.62469505
vn 0.20210372 0.75426135 0.62469505
vn 0.20210372 0.75426135 0.62469505
vn 0.20210372 0.75426135 -0.62469505
vn 0.20210372 0.75426135 -0.62469505
vn 0.20210372 0.75426135 -0.62469505
vn 0.20210372 0.75426135 -0.62469505
vn -0.20210372 0.75426135 0.62469505
vn -0.20210372 0.75426135 0.62469505
vn -0.20210372 0.75426135 0.62469505
vn -0.20210372 0.75426135 0.62469505
vn -0.20210372 0.75426135 -0.62469505
vn -0.20210372 0.75426135 -0.62469505
vn -0.20210372 0.75426135 -0.62469505
vn -0.20210372 0.75426135 -0.62469505
vn -0.55215763 0.55215763 0.62469505
vn -0.55215763 0.55215763 0.62469505
vn -0.55215763 0.55215763 0.62469505
vn -0.55215763 0.55215763 0.62469505
vn -0.55215763 0.55215763 -0.62469505
vn -0.55215763 0.55215763 -0.62469505
vn -0.55215763 0.55215763 -0.62469505
vn -0.55215763 0.55215763 -0.62469505
vn -0.75426135 0.20210372 0.62469505
vn -0.75426135 0.20210372 0.62469505
vn -0.75426135 0.20210372 0.62469505
vn -0.75426135 0.20210372 0.62469505
vn 0.00000000 0.00000000 1.00000000
vn 0.00000000 0.00000000 1.00000000
vn 0.00000000 0.00000000 1.00000000
vn 0.00000000 0.00000000 1.00000000
vn 0.00000000 0.00000000 1.00000000
vn 0.00000000 0.00000000 1.00000000
vn 0.00000000 0.00000000 1.00000000
vn 0.00000000 0.00000000 1.00000000
vn 0.00000000 0.00000000 1.00000000
vn 0.00000000 0.00000000 1.00000000
vn 0.00000000 0.00000000 1.00000000
vn 0.00000000 0.00000000 1.00000000
vn 0.00000000 0.00000000 1.00000000
vn 0.00000000 0.00000000 1.00000000
vn 0.96592583 -0.25881905 -0.00000000
vn 0.96592583 -0.25881905 -0.00000000
vn 0.96592583 -0.25881905 -0.00000000
vn 0.96592583 -0.25881905 -0.00000000
vn 0.00000000 0.00000000 -1.00000000
vn 0.00000000 0.00000000 -1.00000000
vn 0.00000000 0.00000000 -1.00000000
vn 0.00000000 0.00000000 -1.00000000
vn 0.00000000 0.00000000 -1.00000000
vn 0.00000000 0.00000000 -1.00000000
vn 0.00000000 0.00000000 -1.00000000
vn 0.00000000 0.00000000 -1.00000000
vn 0.00000000 0.00000000 -1.00000000
vn 0.00000000 0.00000000 -1.00000000
vn 0.00000000 0.00000000 -1.00000000
vn 0.00000000 0.00000000 -1.00000000
vn 0.00000000 0.00000000 -1.00000000
vn 0.00000000 0.00000000 -1.00000000
vn -0.75426135 0.20210372 -0.62469505
vn -0.75426135 0.20210372 -0.62469505
vn -0.75426135 0.20210372 -0.62469505
vn -0.75426135 0.20210372 -0.62469505
s 1
usemtl Grey
f 24/68/68 25/69/69 26/70/70
f 23/67/67 26/70/70 27/71/71
f 27/71/71 28/72/72 23/67/67
f 23/67/67 24/68/68 26/70/70
s 2
f 30/76/76 29/75/75 23/73/73
f 29/75/75 24/74/74 23/73/73
s 3
f 32/80/80 31/79/79 30/77/77
f 31/79/79 29/78/78 30/77/77
s 4
f 34/84/84 33/83/83 32/81/81
f 33/83/83 31/82/82 32/81/81
s 5
f 36/88/88 35/87/87 34/85/85
f 35/87/87 33/86/86 34/85/85
s 6
f 38/92/92 37/91/91 36/89/89
f 37/91/91 35/90/90 36/89/89
s 7
f 40/96/96 39/95/95 38/93/93
f 39/95/95 37/94/94 38/93/93
s 8
f 41/97/97 42/98/98 39/99/99
f 41/97/97 40/100/100 44/102/102
f 40/100/100 43/101/101 44/102/102
f 41/97/97 39/99/99 40/100/100
s 9
f 41/103/103 44/104/104 46/106/106
f 44/104/104 45/105/105 46/106/106
s 10
f 46/107/107 45/108/108 48/110/110
f 45/108/108 47/109/109 48/110/110
s 11
f 48/111/111 47/112/112 50/114/114
f 47/112/112 49/113/113 50/114/114
s 12
f 50/115/115 49/116/116 52/118/118
f 49/116/116 51/117/117 52/118/118
s 13
f 52/119/119 51/120/120 54/122/122
f 51/120/120 53/121/121 54/122/122
s 14
f 38/123/123 55/124/124 43/125/125
f 38/123/123 43/125/125 40/126/126
s 15
f 56/127/127 37/128/128 39/129/129
f 56/127/127 39/129/129 42/130/130
s 16
f 36/131/131 57/132/132 55/133/133
f 36/131/131 55/133/133 38/134/134
s 17
f 58/135/135 35/136/136 37/137/137
f 58/135/135 37/137/137 56/138/138
s 18
f 34/139/139 59/140/140 57/141/141
f 34/139/139 57/141/141 36/142/142
s 19
f 60/143/143 33/144/144 35/145/145
f 60/143/143 35/145/145 58/146/146
s 20
f 32/147/147 61/148/148 59/149/149
f 32/147/147 59/149/149 34/150/150
s 21
f 62/151/151 31/152/152 33/153/153
f 62/151/151 33/153/153 60/154/154
s 22
f 30/155/155 63/156/156 61/157/157
f 30/155/155 61/157/157 32/158/158
s 23
f 64/159/159 29/160/160 31/161/161
f 64/159/159 31/161/161 62/162/162
s 24
f 23/163/163 28/164/164 63/165/165
f 23/163/163 63/165/165 30/166/166
s 25
f 45/180/180 44/167/167 43/168/168
f 47/179/179 45/180/180 55/169/169
f 49/178/178 47/179/179 57/170/170
f 51/177/177 49/178/178 59/171/171
f 53/176/176 51/177/177 61/172/172
f 63/173/173 28/174/174 53/176/176
f 53/176/176 61/172/172 63/173/173
f 28/174/174 27/175/175 53/176/176
f 51/177/177 59/171/171 61/172/172
f 49/178/178 57/170/170 59/171/171
f 47/179/179 55/169/169 57/170/170
f 45/180/180 43/168/168 55/169/169
s 26
f 54/181/181 53/182/182 26/184/184
f 53/182/182 27/183/183 26/184/184
s 27
f 42/187/187 41/188/188 46/189/189
f 56/186/186 46/189/189 48/190/190
f 58/185/185 48/190/190 50/191/191
f 60/198/198 50/191/191 52/192/192
f 62/197/197 52/192/192 54/193/193
f 54/193/193 25/195/195 64/196/196
f 54/193/193 26/194/194 25/195/195
f 64/196/196 62/197/197 54/193/193
f 62/197/197 60/198/198 52/192/192
f 60/198/198 58/185/185 50/191/191
f 58/185/185 56/186/186 48/190/190
f 56/186/186 42/187/187 46/189/189
s 28
f 25/199/199 24/200/200 29/201/201
f 25/199/199 29/201/201 64/202/202

