mtllib struct_wall_cracked_2.mtl
o struct_wall_cracked_2
g struct_wall_cracked_2
v 0.02500000 0.52500000 -0.50000000
v 0.02500000 0.52500000 -0.35000000
v 0.05000000 0.35000000 -0.35000000
v 0.07500000 0.35000000 -0.50000000
v 0.10000000 0.35000000 -0.65000000
v 0.02500000 0.52500000 -0.65000000
v -0.02500000 0.70000000 -0.50000000
v -0.00000000 0.70000000 -0.35000000
v -0.05000000 0.70000000 -0.65000000
v 0.30000000 0.45000000 -0.35000000
v 0.35000000 0.45000000 -0.65000000
v 0.50000000 0.30000000 -0.35000000
v 0.50000000 0.30000000 -0.65000000
v 0.50000000 0.00000000 -0.65000000
v 0.50000000 0.00000000 -0.35000000
v -0.50000000 0.00000000 -0.65000000
v -0.50000000 0.00000000 -0.35000000
v -0.50000000 1.00000000 -0.65000000
v -0.50000000 1.00000000 -0.35000000
v -0.30000000 1.00000000 -0.65000000
v -0.30000000 1.00000000 -0.35000000
v -0.30000000 1.00000000 -0.50000000
v -0.20000000 0.80000000 -0.35000000
v -0.22500000 0.80000000 -0.50000000
v -0.25000000 0.80000000 -0.65000000
vt 0.50000000 0.50000000
vt 0.00000000 0.50000000
vt 0.00000000 0.00000000
vt 0.50000000 0.00000000
vt 1.00000000 0.00000000
vt 1.00000000 0.50000000
vt 0.50000000 1.00000000
vt 0.00000000 1.00000000
vt 1.00000000 1.00000000
vt 0.00000000 0.00000000
vt 1.00000000 0.00000000
vt 1.00000000 1.00000000
vt 0.00000000 1.00000000
vt 0.50000000 1.00000000
vt 0.00000000 0.00000000
vt 1.00000000 0.00000000
vt 1.00000000 1.00000000
vt 0.00000000 1.00000000
vt 1.00000000 1.00000000
vt 0.00000000 1.00000000
vt 0.00000000 0.00000000
vt 1.00000000 0.00000000
vt 0.00000000 1.00000000
vt 0.00000000 0.00000000
vt 1.00000000 0.00000000
vt 1.00000000 1.00000000
vt 0.00000000 0.00000000
vt 1.00000000 0.00000000
vt 1.00000000 1.00000000
vt 0.00000000 1.00000000
vt 0.00000000 1.00000000
vt 0.00000000 0.00000000
vt 1.00000000 0.00000000
vt 1.00000000 1.00000000
vt 0.50000000 1.00000000
vt 0.50000000 1.00000000
vt 0.00000000 1.00000000
vt 0.00000000 0.00000000
vt 0.50000000 0.00000000
vt 1.00000000 0.00000000
vt 1.00000000 1.00000000
vt 0.00000000 1.00000000
vt 0.00000000 0.00000000
vt 1.00000000 0.00000000
vt 1.00000000 0.20000000
vt 0.80000000 0.30000000
vt 0.70000000 0.50000000
vt 0.35000000 0.55000000
vt 0.45000000 0.80000000
vt 0.30000000 1.00000000
vt 0.52500000 0.52500000
vt 0.00000000 0.00000000
vt 1.00000000 0.00000000
vt 1.00000000 1.00000000
vt 0.00000000 1.00000000
vt 0.50000000 0.00000000
vt 0.50000000 1.00000000
vt 0.45000000 0.15000000
vt 0.35000000 0.40000000
vt 0.70000000 0.55000000
vt 0.80000000 0.75000000
vt 1.00000000 0.80000000
vt 1.00000000 1.00000000
vt 0.00000000 1.00000000
vt 0.00000000 0.00000000
vt 0.30000000 0.00000000
vt 0.52500000 0.47500000
vn 0.96152395 0.27472113 0.00000000
vn 0.98994949 0.14142136 0.00000000
vn 0.97674419 0.13953488 0.16279070
vn 0.94941017 0.27126005 0.15823503
vn 0.90854623 0.38937695 0.15142437
vn 0.91914503 0.39391930 0.00000000
vn 0.94941017 0.27126005 -0.15823503
vn 0.97674419 0.13953488 -0.16279070
vn 0.90854623 0.38937695 -0.15142437
vn -0.37068124 0.92670309 -0.06178021
vn -0.37068124 0.92670309 -0.06178021
vn -0.37068124 0.92670309 -0.06178021
vn -0.37068124 0.92670309 -0.06178021
vn -0.37068124 0.92670309 -0.06178021
vn 0.60000000 0.80000000 0.00000000
vn 0.70710678 0.70710678 0.00000000
vn 0.70224688 0.70224688 0.11704115
vn 0.59702231 0.79602975 0.09950372
vn 1.00000000 0.00000000 0.00000000
vn 1.00000000 0.00000000 0.00000000
vn 1.00000000 0.00000000 0.00000000
vn 1.00000000 0.00000000 0.00000000
vn 0.00000000 -1.00000000 0.00000000
vn 0.00000000 -1.00000000 0.00000000
vn 0.00000000 -1.00000000 0.00000000
vn 0.00000000 -1.00000000 0.00000000
vn -1.00000000 0.00000000 0.00000000
vn -1.00000000 0.00000000 0.00000000
vn -1.00000000 0.00000000 0.00000000
vn -1.00000000 0.00000000 0.00000000
vn 0.00000000 1.00000000 0.00000000
vn 0.00000000 1.00000000 0.00000000
vn 0.00000000 1.00000000 0.00000000
vn 0.00000000 1.00000000 0.00000000
vn 0.00000000 1.00000000 0.00000000
vn 0.93632918 0.35112344 0.00000000
vn 0.89442719 0.44721360 0.00000000
vn 0.88465174 0.44232587 -0.14744196
vn 0.92513201 0.34692451 -0.15418867
vn 0.95770426 0.23942607 -0.15961738
vn 0.97014250 0.24253563 0.00000000
vn 0.00000000 0.00000000 1.00000000
vn 0.00000000 0.00000000 1.00000000
vn 0.00000000 0.00000000 1.00000000
vn 0.00000000 0.00000000 1.00000000
vn 0.00000000 0.00000000 1.00000000
vn 0.00000000 0.00000000 1.00000000
vn 0.00000000 0.00000000 1.00000000
vn 0.00000000 0.00000000 1.00000000
vn 0.00000000 0.00000000 1.00000000
vn 0.00000000 0.00000000 1.00000000
vn 0.44597649 0.89195298 -0.07432941
vn 0.44597649 0.89195298 -0.07432941
vn 0.44597649 0.89195298 -0.07432941
vn 0.44597649 0.89195298 -0.07432941
vn 0.44597649 0.89195298 -0.07432941
vn 0.44597649 0.89195298 -0.07432941
vn 0.00000000 0.00000000 -1.00000000
vn 0.00000000 0.00000000 -1.00000000
vn 0.00000000 0.00000000 -1.00000000
vn 0.00000000 0.00000000 -1.00000000
vn 0.00000000 0.00000000 -1.00000000
vn 0.00000000 0.00000000 -1.00000000
vn 0.00000000 0.00000000 -1.00000000
vn 0.00000000 0.00000000 -1.00000000
vn 0.00000000 0.00000000 -1.00000000
vn 0.00000000 0.00000000 -1.00000000
s 1
usemtl Dark_Grey
f 2/2/2 3/3/3 1/1/1
f 6/6/6 7/7/7 1/1/1
f 6/6/6 9/9/9 7/7/7
f 4/4/4 5/5/5 6/6/6
f 7/7/7 8/8/8 1/1/1
f 4/4/4 6/6/6 1/1/1
f 3/3/3 4/4/4 1/1/1
f 8/8/8 2/2/2 1/1/1
s 2
f 4/14/14 3/13/13 10/10/10
f 10/10/10 11/11/11 4/14/14
f 11/11/11 5/12/12 4/14/14
s 3
f 12/15/15 13/16/16 11/17/17
f 12/15/15 11/17/17 10/18/18
s 4
f 12/22/22 15/21/21 13/19/19
f 15/21/21 14/20/20 13/19/19
s 5
f 15/26/26 17/25/25 14/23/23
f 17/25/25 16/24/24 14/23/23
s 6
f 17/30/30 19/29/29 16/27/27
f 19/29/29 18/28/28 16/27/27
s 7
f 19/33/33 21/34/34 22/35/35
f 22/35/35 20/31/31 18/32/32
f 18/32/32 19/33/33 22/35/35
s 8
f 22/36/36 21/37/37 24/39/39
f 21/37/37 23/38/38 24/39/39
f 25/40/40 20/41/41 22/36/36
f 24/39/39 25/40/40 22/36/36
s 9
f 2/51/51 8/47/47 23/46/46
f 3/48/48 23/46/46 19/44/44
f 3/48/48 19/44/44 17/43/43
f 17/43/43 15/42/42 3/48/48
f 15/42/42 12/50/50 3/48/48
f 12/50/50 10/49/49 3/48/48
f 23/46/46 21/45/45 19/44/44
f 3/48/48 2/51/51 23/46/46
s 10
f 23/55/55 8/52/52 7/56/56
f 24/57/57 7/56/56 9/53/53
f 9/53/53 25/54/54 24/57/57
f 24/57/57 23/55/55 7/56/56
s 11
f 18/63/63 20/62/62 25/61/61
f 16/64/64 25/61/61 6/67/67
f 14/65/65 16/64/64 5/59/59
f 5/59/59 11/58/58 13/66/66
f 5/59/59 13/66/66 14/65/65
f 16/64/64 6/67/67 5/59/59
f 25/61/61 9/60/60 6/67/67
f 16/64/64 18/63/63 25/61/61

