mtllib struct_large_steps_pillar_main.mtl
o struct_large_steps_pillar_main
g struct_large_steps_pillar_main
v 1.15000000 0.00000000 -0.35000000
v 1.15000000 1.00000000 -0.35000000
v 1.20000000 1.00000000 -0.40000000
v 1.20000000 0.00000000 -0.40000000
v 1.20000000 1.00000000 -0.60000000
v 1.20000000 0.00000000 -0.60000000
v 1.15000000 1.00000000 -0.65000000
v 1.15000000 0.00000000 -0.65000000
v 0.95000000 1.00000000 -0.65000000
v 0.95000000 0.00000000 -0.65000000
v 0.90000000 1.00000000 -0.60000000
v 0.90000000 0.00000000 -0.60000000
v 0.90000000 1.00000000 -0.40000000
v 0.90000000 0.00000000 -0.40000000
v 0.95000000 1.00000000 -0.35000000
v 0.95000000 0.00000000 -0.35000000
v 1.05000000 0.00000000 -0.50000000
v 1.05000000 1.00000000 -0.50000000
vt 0.00000000 0.00000000
vt 1.00000000 0.00000000
vt 1.00000000 1.00000000
vt 0.00000000 1.00000000
vt 0.00000000 0.00000000
vt 1.00000000 0.00000000
vt 1.00000000 1.00000000
vt 0.00000000 1.00000000
vt 0.00000000 0.00000000
vt 1.00000000 0.00000000
vt 1.00000000 1.00000000
vt 0.00000000 1.00000000
vt 0.00000000 0.00000000
vt 1.00000000 0.00000000
vt 1.00000000 1.00000000
vt 0.00000000 1.00000000
vt 0.00000000 0.00000000
vt 1.00000000 0.00000000
vt 1.00000000 1.00000000
vt 0.00000000 1.00000000
vt 0.00000000 0.00000000
vt 1.00000000 0.00000000
vt 1.00000000 1.00000000
vt 0.00000000 1.00000000
vt 0.00000000 0.00000000
vt 1.00000000 0.00000000
vt 1.00000000 1.00000000
vt 0.00000000 1.00000000
vt 0.16666667 0.00000000
vt 0.83333333 0.00000000
vt 1.00000000 0.16666667
vt 1.00000000 0.83333333
vt 0.83333333 1.00000000
vt 0.16666667 1.00000000
vt 0.00000000 0.83333333
vt 0.00000000 0.16666667
vt 0.50000000 0.50000000
vt 0.00000000 0.00000000
vt 1.00000000 0.00000000
vt 1.00000000 1.00000000
vt 0.00000000 1.00000000
vt 0.16666667 0.00000000
vt 0.83333333 0.00000000
vt 1.00000000 0.16666667
vt 1.00000000 0.83333333
vt 0.83333333 1.00000000
vt 0.16666667 1.00000000
vt 0.00000000 0.83333333
vt 0.00000000 0.16666667
vt 0.50000000 0.50000000
vn 0.70710678 -0.00000000 0.70710678
vn 0.70710678 -0.00000000 0.70710678
vn 0.70710678 -0.00000000 0.70710678
vn 0.70710678 -0.00000000 0.70710678
vn 1.00000000 -0.00000000 0.00000000
vn 1.00000000 -0.00000000 0.00000000
vn 1.00000000 -0.00000000 0.00000000
vn 1.00000000 -0.00000000 0.00000000
vn 0.70710678 0.00000000 -0.70710678
vn 0.70710678 0.00000000 -0.70710678
vn 0.70710678 0.00000000 -0.70710678
vn 0.70710678 0.00000000 -0.70710678
vn 0.00000000 0.00000000 -1.00000000
vn 0.00000000 0.00000000 -1.00000000
vn 0.00000000 0.00000000 -1.00000000
vn 0.00000000 0.00000000 -1.00000000
vn -0.70710678 0.00000000 -0.70710678
vn -0.70710678 0.00000000 -0.70710678
vn -0.70710678 0.00000000 -0.70710678
vn -0.70710678 0.00000000 -0.70710678
vn -1.00000000 0.00000000 0.00000000
vn -1.00000000 0.00000000 0.00000000
vn -1.00000000 0.00000000 0.00000000
vn -1.00000000 0.00000000 0.00000000
vn -0.70710678 -0.00000000 0.70710678
vn -0.70710678 -0.00000000 0.70710678
vn -0.70710678 -0.00000000 0.70710678
vn -0.70710678 -0.00000000 0.70710678
vn -0.00000000 -1.00000000 -0.00000000
vn -0.00000000 -1.00000000 -0.00000000
vn -0.00000000 -1.00000000 -0.00000000
vn -0.00000000 -1.00000000 -0.00000000
vn -0.00000000 -1.00000000 -0.00000000
vn -0.00000000 -1.00000000 -0.00000000
vn -0.00000000 -1.00000000 -0.00000000
vn -0.00000000 -1.00000000 -0.00000000
vn -0.00000000 -1.00000000 -0.00000000
vn 0.00000000 -0.00000000 1.00000000
vn 0.00000000 -0.00000000 1.00000000
vn 0.00000000 -0.00000000 1.00000000
vn 0.00000000 -0.00000000 1.00000000
vn 0.00000000 1.00000000 0.00000000
vn 0.00000000 1.00000000 0.00000000
vn 0.00000000 1.00000000 0.00000000
vn 0.00000000 1.00000000 0.00000000
vn 0.00000000 1.00000000 0.00000000
vn 0.00000000 1.00000000 0.00000000
vn 0.00000000 1.00000000 0.00000000
vn 0.00000000 1.00000000 0.00000000
vn 0.00000000 1.00000000 0.00000000
s 1
usemtl Dark_Grey
f 4/4/4 3/3/3 2/2/2
f 4/4/4 2/2/2 1/1/1
s 2
f 6/8/8 5/7/7 3/6/6
f 6/8/8 3/6/6 4/5/5
s 3
f 8/12/12 7/11/11 6/9/9
f 7/11/11 5/10/10 6/9/9
s 4
f 10/16/16 9/15/15 7/14/14
f 10/16/16 7/14/14 8/13/13
s 5
f 12/20/20 11/19/19 9/18/18
f 12/20/20 9/18/18 10/17/17
s 6
f 14/24/24 13/23/23 11/22/22
f 14/24/24 11/22/22 12/21/21
s 7
f 16/28/28 15/27/27 14/25/25
f 15/27/27 13/26/26 14/25/25
s 8
f 1/36/36 16/35/35 17/37/37
f 6/30/30 4/29/29 17/37/37
f 8/31/31 6/30/30 17/37/37
f 10/32/32 8/31/31 17/37/37
f 12/33/33 10/32/32 17/37/37
f 14/34/34 12/33/33 17/37/37
f 16/35/35 14/34/34 17/37/37
f 4/29/29 1/36/36 17/37/37
s 9
f 1/41/41 2/40/40 16/38/38
f 2/40/40 15/39/39 16/38/38
s 10
f 3/42/42 5/43/43 18/50/50
f 15/48/48 2/49/49 18/50/50
f 13/47/47 15/48/48 18/50/50
f 11/46/46 13/47/47 18/50/50
f 9/45/45 11/46/46 18/50/50
f 7/44/44 9/45/45 18/50/50
f 5/43/43 7/44/44 18/50/50
f 2/49/49 3/42/42 18/50/50
v 0.10000000 1.00000000 -0.40000000
v 0.10000000 1.00000000 -0.60000000
v 0.05000000 1.00000000 -0.65000000
v -0.15000000 1.00000000 -0.65000000
v -0.20000000 1.00000000 -0.60000000
v -0.20000000 1.00000000 -0.40000000
v -0.15000000 1.00000000 -0.35000000
v 0.05000000 1.00000000 -0.35000000
v -0.05000000 1.00000000 -0.50000000
v 0.10000000 0.00000000 -0.40000000
v 0.10000000 0.00000000 -0.60000000
v 0.05000000 0.00000000 -0.65000000
v -0.15000000 0.00000000 -0.65000000
v -0.20000000 0.00000000 -0.60000000
v -0.20000000 0.00000000 -0.40000000
v -0.15000000 0.00000000 -0.35000000
v 0.05000000 0.00000000 -0.35000000
v -0.05000000 0.00000000 -0.50000000
vt 0.16666667 0.00000000
vt 0.83333333 0.00000000
vt 1.00000000 0.16666667
vt 1.00000000 0.83333333
vt 0.83333333 1.00000000
vt 0.16666667 1.00000000
vt 0.00000000 0.83333333
vt 0.00000000 0.16666667
vt 0.50000000 0.50000000
vt 0.00000000 0.00000000
vt 1.00000000 0.00000000
vt 1.00000000 1.00000000
vt 0.00000000 1.00000000
vt 0.16666667 0.00000000
vt 0.83333333 0.00000000
vt 1.00000000 0.16666667
vt 1.00000000 0.83333333
vt 0.83333333 1.00000000
vt 0.16666667 1.00000000
vt 0.00000000 0.83333333
vt 0.00000000 0.16666667
vt 0.50000000 0.50000000
vt 0.00000000 0.00000000
vt 1.00000000 0.00000000
vt 1.00000000 1.00000000
vt 0.00000000 1.00000000
vt 0.00000000 0.00000000
vt 1.00000000 0.00000000
vt 1.00000000 1.00000000
vt 0.00000000 1.00000000
vt 0.00000000 0.00000000
vt 1.00000000 0.00000000
vt 1.00000000 1.00000000
vt 0.00000000 1.00000000
vt 0.00000000 0.00000000
vt 1.00000000 0.00000000
vt 1.00000000 1.00000000
vt 0.00000000 1.00000000
vt 0.00000000 0.00000000
vt 1.00000000 0.00000000
vt 1.00000000 1.00000000
vt 0.00000000 1.00000000
vt 0.00000000 0.00000000
vt 1.00000000 0.00000000
vt 1.00000000 1.00000000
vt 0.00000000 1.00000000
vt 0.00000000 0.00000000
vt 1.00000000 0.00000000
vt 1.00000000 1.00000000
vt 0.00000000 1.00000000
vn 0.00000000 1.00000000 0.00000000
vn 0.00000000 1.00000000 0.00000000
vn 0.00000000 1.00000000 0.00000000
vn 0.00000000 1.00000000 0.00000000
vn 0.00000000 1.00000000 0.00000000
vn 0.00000000 1.00000000 0.00000000
vn 0.00000000 1.00000000 0.00000000
vn 0.00000000 1.00000000 0.00000000
vn 0.00000000 1.00000000 0.00000000
vn 1.00000000 -0.00000000 0.00000000
vn 1.00000000 -0.00000000 0.00000000
vn 1.00000000 -0.00000000 0.00000000
vn 1.00000000 -0.00000000 0.00000000
vn -0.00000000 -1.00000000 -0.00000000
vn -0.00000000 -1.00000000 -0.00000000
vn -0.00000000 -1.00000000 -0.00000000
vn -0.00000000 -1.00000000 -0.00000000
vn -0.00000000 -1.00000000 -0.00000000
vn -0.00000000 -1.00000000 -0.00000000
vn -0.00000000 -1.00000000 -0.00000000
vn -0.00000000 -1.00000000 -0.00000000
vn -0.00000000 -1.00000000 -0.00000000
vn 0.70710678 -0.00000000 0.70710678
vn 0.70710678 -0.00000000 0.70710678
vn 0.70710678 -0.00000000 0.70710678
vn 0.70710678 -0.00000000 0.70710678
vn 0.00000000 -0.00000000 1.00000000
vn 0.00000000 -0.00000000 1.00000000
vn 0.00000000 -0.00000000 1.00000000
vn 0.00000000 -0.00000000 1.00000000
vn -0.70710678 -0.00000000 0.70710678
vn -0.70710678 -0.00000000 0.70710678
vn -0.70710678 -0.00000000 0.70710678
vn -0.70710678 -0.00000000 0.70710678
vn -1.00000000 0.00000000 0.00000000
vn -1.00000000 0.00000000 0.00000000
vn -1.00000000 0.00000000 0.00000000
vn -1.00000000 0.00000000 0.00000000
vn -0.70710678 0.00000000 -0.70710678
vn -0.70710678 0.00000000 -0.70710678
vn -0.70710678 0.00000000 -0.70710678
vn -0.70710678 0.00000000 -0.70710678
vn 0.00000000 0.00000000 -1.00000000
vn 0.00000000 0.00000000 -1.00000000
vn 0.00000000 0.00000000 -1.00000000
vn 0.00000000 0.00000000 -1.00000000
vn 0.70710678 0.00000000 -0.70710678
vn 0.70710678 0.00000000 -0.70710678
vn 0.70710678 0.00000000 -0.70710678
vn 0.70710678 0.00000000 -0.70710678
s 1
usemtl Dark_Grey
f 19/51/51 20/52/52 27/59/59
f 25/57/57 26/58/58 27/59/59
f 24/56/56 25/57/57 27/59/59
f 23/55/55 24/56/56 27/59/59
f 22/54/54 23/55/55 27/59/59
f 21/53/53 22/54/54 27/59/59
f 20/52/52 21/53/53 27/59/59
f 26/58/58 19/51/51 27/59/59
s 2
f 29/63/63 20/62/62 19/61/61
f 29/63/63 19/61/61 28/60/60
s 3
f 35/71/71 34/70/70 36/72/72
f 29/65/65 28/64/64 36/72/72
f 30/66/66 29/65/65 36/72/72
f 31/67/67 30/66/66 36/72/72
f 32/68/68 31/67/67 36/72/72
f 33/69/69 32/68/68 36/72/72
f 34/70/70 33/69/69 36/72/72
f 28/64/64 35/71/71 36/72/72
s 4
f 28/76/76 19/75/75 26/74/74
f 28/76/76 26/74/74 35/73/73
s 5
f 35/80/80 26/79/79 34/77/77
f 26/79/79 25/78/78 34/77/77
s 6
f 34/84/84 25/83/83 33/81/81
f 25/83/83 24/82/82 33/81/81
s 7
f 33/88/88 24/87/87 23/86/86
f 33/88/88 23/86/86 32/85/85
s 8
f 32/92/92 23/91/91 22/90/90
f 32/92/92 22/90/90 31/89/89
s 9
f 31/96/96 22/95/95 21/94/94
f 31/96/96 21/94/94 30/93/93
s 10
f 30/100/100 21/99/99 29/97/97
f 21/99/99 20/98/98 29/97/97

