mtllib trap_floor_saw_slot_mid.mtl
o trap_floor_saw_slot_mid
g trap_floor_saw_slot_mid
v 0.50000000 0.00000000 -0.50000000
v 0.50000000 0.00000000 -0.15000000
v 0.50000000 -0.02500000 -0.12500000
v 0.50000000 0.00000000 -0.10000000
v 0.50000000 0.00000000 -0.05000000
v 0.50000000 -0.02500000 -0.02500000
v 0.50000000 -0.20000000 -0.02500000
v 0.50000000 -0.20000000 -0.50000000
v -0.50000000 0.00000000 -0.50000000
v -0.50000000 0.00000000 -0.15000000
v -0.50000000 0.00000000 -0.10000000
v -0.50000000 -0.02500000 -0.12500000
v -0.50000000 -0.20000000 -0.50000000
v -0.50000000 -0.20000000 -0.02500000
v -0.50000000 -0.02500000 -0.02500000
v -0.50000000 0.00000000 -0.05000000
vt 0.00000000 1.00000000
vt 0.00000000 0.26315789
vt 0.12500000 0.21052632
vt 0.00000000 0.15789474
vt 0.00000000 0.05263158
vt 0.12500000 0.00000000
vt 1.00000000 0.00000000
vt 1.00000000 1.00000000
vt 1.00000000 1.00000000
vt 0.00000000 1.00000000
vt 0.00000000 0.00000000
vt 1.00000000 0.00000000
vt 0.00000000 0.84210526
vt 0.12500000 0.78947368
vt 0.00000000 0.73684211
vt 0.00000000 0.00000000
vt 1.00000000 0.00000000
vt 1.00000000 1.00000000
vt 0.12500000 1.00000000
vt 0.00000000 0.94736842
vt 0.00000000 1.00000000
vt 0.00000000 0.00000000
vt 1.00000000 0.00000000
vt 1.00000000 1.00000000
vt 1.00000000 0.00000000
vt 1.00000000 1.00000000
vt 0.00000000 1.00000000
vt 0.00000000 0.00000000
vt 1.00000000 0.00000000
vt 1.00000000 1.00000000
vt 0.00000000 1.00000000
vt 0.00000000 0.00000000
vt 0.00000000 0.00000000
vt 1.00000000 0.00000000
vt 1.00000000 1.00000000
vt 0.00000000 1.00000000
vt 1.00000000 0.00000000
vt 1.00000000 1.00000000
vt 0.00000000 1.00000000
vt 0.00000000 0.00000000
vt 0.00000000 0.00000000
vt 1.00000000 0.00000000
vt 1.00000000 1.00000000
vt 0.00000000 1.00000000
vt 0.00000000 1.00000000
vt 0.00000000 0.00000000
vt 1.00000000 0.00000000
vt 1.00000000 1.00000000
vn 1.00000000 0.00000000 0.00000000
vn 1.00000000 0.00000000 0.00000000
vn 1.00000000 0.00000000 0.00000000
vn 1.00000000 0.00000000 0.00000000
vn 1.00000000 0.00000000 0.00000000
vn 1.00000000 0.00000000 0.00000000
vn 1.00000000 0.00000000 0.00000000
vn 1.00000000 0.00000000 0.00000000
vn 0.00000000 1.00000000 0.00000000
vn 0.00000000 1.00000000 0.00000000
vn 0.00000000 1.00000000 0.00000000
vn 0.00000000 1.00000000 0.00000000
vn -1.00000000 0.00000000 0.00000000
vn -1.00000000 0.00000000 0.00000000
vn -1.00000000 0.00000000 0.00000000
vn -1.00000000 0.00000000 0.00000000
vn -1.00000000 0.00000000 0.00000000
vn -1.00000000 0.00000000 0.00000000
vn -1.00000000 0.00000000 0.00000000
vn -1.00000000 0.00000000 0.00000000
vn 0.00000000 0.00000000 -1.00000000
vn 0.00000000 0.00000000 -1.00000000
vn 0.00000000 0.00000000 -1.00000000
vn 0.00000000 0.00000000 -1.00000000
vn 0.00000000 -1.00000000 0.00000000
vn 0.00000000 -1.00000000 0.00000000
vn 0.00000000 -1.00000000 0.00000000
vn 0.00000000 -1.00000000 0.00000000
vn 0.00000000 0.00000000 1.00000000
vn 0.00000000 0.00000000 1.00000000
vn 0.00000000 0.00000000 1.00000000
vn 0.00000000 0.00000000 1.00000000
vn 0.00000000 0.70710678 0.70710678
vn 0.00000000 0.70710678 0.70710678
vn 0.00000000 0.70710678 0.70710678
vn 0.00000000 0.70710678 0.70710678
vn 0.00000000 1.00000000 0.00000000
vn 0.00000000 1.00000000 0.00000000
vn 0.00000000 1.00000000 0.00000000
vn 0.00000000 1.00000000 0.00000000
vn -0.00000000 0.70710678 -0.70710678
vn -0.00000000 0.70710678 -0.70710678
vn -0.00000000 0.70710678 -0.70710678
vn -0.00000000 0.70710678 -0.70710678
vn 0.00000000 0.70710678 0.70710678
vn 0.00000000 0.70710678 0.70710678
vn 0.00000000 0.70710678 0.70710678
vn 0.00000000 0.70710678 0.70710678
s 1
usemtl Dark_Grey
f 4/4/4 5/5/5 6/6/6
f 3/3/3 6/6/6 7/7/7
f 2/2/2 3/3/3 8/8/8
f 8/8/8 1/1/1 2/2/2
f 3/3/3 7/7/7 8/8/8
f 3/3/3 4/4/4 6/6/6
s 2
f 9/9/9 10/10/10 2/11/11
f 9/9/9 2/11/11 1/12/12
s 3
f 15/19/19 16/20/20 11/13/13
f 14/18/18 15/19/19 12/14/14
f 12/14/14 10/15/15 13/17/17
f 10/15/15 9/16/16 13/17/17
f 13/17/17 14/18/18 12/14/14
f 15/19/19 11/13/13 12/14/14
s 4
f 9/21/21 1/22/22 13/24/24
f 1/22/22 8/23/23 13/24/24
s 5
f 7/28/28 14/27/27 13/26/26
f 7/28/28 13/26/26 8/25/25
s 6
usemtl Grey
f 14/32/32 7/31/31 6/30/30
f 14/32/32 6/30/30 15/29/29
s 7
f 15/33/33 6/34/34 5/35/35
f 15/33/33 5/35/35 16/36/36
s 8
f 16/40/40 5/39/39 4/38/38
f 16/40/40 4/38/38 11/37/37
s 9
f 11/41/41 4/42/42 12/44/44
f 4/42/42 3/43/43 12/44/44
s 10
usemtl Dark_Grey
f 10/45/45 12/46/46 3/47/47
f 10/45/45 3/47/47 2/48/48
o trap_floor_saw_slot_mid_2
g trap_floor_saw_slot_mid_2
v -0.50000000 -0.02500000 0.02500000
v 0.50000000 -0.02500000 0.02500000
v 0.50000000 -0.20000000 0.02500000
v -0.50000000 -0.20000000 0.02500000
v -0.50000000 0.00000000 0.05000000
v 0.50000000 0.00000000 0.05000000
v 0.50000000 0.00000000 0.10000000
v -0.50000000 0.00000000 0.10000000
v -0.50000000 -0.02500000 0.12500000
v 0.50000000 -0.02500000 0.12500000
v -0.50000000 0.00000000 0.15000000
v 0.50000000 0.00000000 0.15000000
v 0.50000000 0.00000000 0.50000000
v -0.50000000 0.00000000 0.50000000
v -0.50000000 -0.20000000 0.50000000
v 0.50000000 -0.20000000 0.50000000
vt 1.00000000 0.00000000
vt 1.00000000 1.00000000
vt 0.00000000 1.00000000
vt 0.00000000 0.00000000
vt 0.00000000 0.00000000
vt 1.00000000 0.00000000
vt 1.00000000 1.00000000
vt 0.00000000 1.00000000
vt 0.00000000 1.00000000
vt 0.00000000 0.00000000
vt 1.00000000 0.00000000
vt 1.00000000 1.00000000
vt 0.00000000 0.00000000
vt 1.00000000 0.00000000
vt 1.00000000 1.00000000
vt 0.00000000 1.00000000
vt 0.00000000 1.00000000
vt 0.00000000 0.00000000
vt 1.00000000 0.00000000
vt 1.00000000 1.00000000
vt 0.00000000 0.00000000
vt 1.00000000 0.00000000
vt 1.00000000 1.00000000
vt 0.00000000 1.00000000
vt 0.00000000 1.00000000
vt 0.00000000 0.00000000
vt 1.00000000 0.00000000
vt 1.00000000 1.00000000
vt 0.00000000 1.00000000
vt 0.00000000 0.26315789
vt 0.12500000 0.21052632
vt 0.00000000 0.15789474
vt 0.00000000 0.05263158
vt 0.12500000 0.00000000
vt 1.00000000 0.00000000
vt 1.00000000 1.00000000
vt 0.00000000 0.00000000
vt 1.00000000 0.00000000
vt 1.00000000 1.00000000
vt 0.00000000 1.00000000
vt 0.00000000 0.84210526
vt 0.12500000 0.78947368
vt 0.00000000 0.73684211
vt 0.00000000 0.00000000
vt 1.00000000 0.00000000
vt 1.00000000 1.00000000
vt 0.12500000 1.00000000
vt 0.00000000 0.94736842
vn 0.00000000 0.00000000 -1.00000000
vn 0.00000000 0.00000000 -1.00000000
vn 0.00000000 0.00000000 -1.00000000
vn 0.00000000 0.00000000 -1.00000000
vn 0.00000000 0.70710678 -0.70710678
vn 0.00000000 0.70710678 -0.70710678
vn 0.00000000 0.70710678 -0.70710678
vn 0.00000000 0.70710678 -0.70710678
vn 0.00000000 1.00000000 0.00000000
vn 0.00000000 1.00000000 0.00000000
vn 0.00000000 1.00000000 0.00000000
vn 0.00000000 1.00000000 0.00000000
vn 0.00000000 0.70710678 0.70710678
vn 0.00000000 0.70710678 0.70710678
vn 0.00000000 0.70710678 0.70710678
vn 0.00000000 0.70710678 0.70710678
vn -0.00000000 0.70710678 -0.70710678
vn -0.00000000 0.70710678 -0.70710678
vn -0.00000000 0.70710678 -0.70710678
vn -0.00000000 0.70710678 -0.70710678
vn 0.00000000 1.00000000 0.00000000
vn 0.00000000 1.00000000 0.00000000
vn 0.00000000 1.00000000 0.00000000
vn 0.00000000 1.00000000 0.00000000
vn 0.00000000 0.00000000 1.00000000
vn 0.00000000 0.00000000 1.00000000
vn 0.00000000 0.00000000 1.00000000
vn 0.00000000 0.00000000 1.00000000
vn -1.00000000 0.00000000 0.00000000
vn -1.00000000 0.00000000 0.00000000
vn -1.00000000 0.00000000 0.00000000
vn -1.00000000 0.00000000 0.00000000
vn -1.00000000 0.00000000 0.00000000
vn -1.00000000 0.00000000 0.00000000
vn -1.00000000 0.00000000 0.00000000
vn -1.00000000 0.00000000 0.00000000
vn 0.00000000 -1.00000000 0.00000000
vn 0.00000000 -1.00000000 0.00000000
vn 0.00000000 -1.00000000 0.00000000
vn 0.00000000 -1.00000000 0.00000000
vn 1.00000000 0.00000000 -0.00000000
vn 1.00000000 0.00000000 -0.00000000
vn 1.00000000 0.00000000 -0.00000000
vn 1.00000000 0.00000000 -0.00000000
vn 1.00000000 0.00000000 -0.00000000
vn 1.00000000 0.00000000 -0.00000000
vn 1.00000000 0.00000000 -0.00000000
vn 1.00000000 0.00000000 -0.00000000
s 1
usemtl Grey
f 17/49/49 18/50/50 20/52/52
f 18/50/50 19/51/51 20/52/52
s 2
f 21/53/53 22/54/54 18/55/55
f 21/53/53 18/55/55 17/56/56
s 3
f 22/60/60 21/59/59 23/57/57
f 21/59/59 24/58/58 23/57/57
s 4
f 25/61/61 26/62/62 23/63/63
f 25/61/61 23/63/63 24/64/64
s 5
usemtl Dark_Grey
f 25/65/65 27/66/66 28/67/67
f 25/65/65 28/67/67 26/68/68
s 6
f 29/69/69 28/70/70 27/71/71
f 29/69/69 27/71/71 30/72/72
s 7
f 29/73/73 30/74/74 32/76/76
f 30/74/74 31/75/75 32/76/76
s 8
f 24/80/80 21/81/81 17/82/82
f 25/79/79 17/82/82 20/83/83
f 27/78/78 25/79/79 31/84/84
f 31/84/84 30/77/77 27/78/78
f 25/79/79 20/83/83 31/84/84
f 25/79/79 24/80/80 17/82/82
s 9
usemtl Grey
f 31/85/85 20/86/86 19/87/87
f 31/85/85 19/87/87 32/88/88
s 10
f 22/96/96 23/89/89 26/90/90
f 26/90/90 28/91/91 32/93/93
f 28/91/91 29/92/92 32/93/93
f 32/93/93 19/94/94 26/90/90
f 19/94/94 18/95/95 26/90/90
f 18/95/95 22/96/96 26/90/90

