mtllib trap_floor_saw_slot_end.mtl
o trap_floor_saw_slot_end
g trap_floor_saw_slot_end
v -0.02500000 -0.20000000 0.02500000
v -0.02500000 -0.02500000 0.02500000
v -0.02500000 -0.02500000 -0.02500000
v -0.02500000 -0.20000000 -0.02500000
v 0.50000000 -0.02500000 -0.02500000
v 0.50000000 -0.20000000 -0.02500000
v 0.50000000 0.00000000 -0.05000000
v -0.05000000 0.00000000 -0.05000000
v -0.10000000 0.00000000 -0.10000000
v 0.50000000 0.00000000 -0.10000000
v -0.05000000 0.00000000 0.05000000
v 0.50000000 0.00000000 0.05000000
v 0.50000000 0.00000000 0.10000000
v -0.10000000 0.00000000 0.10000000
v 0.50000000 -0.02500000 0.02500000
v 0.50000000 -0.02500000 0.12500000
v 0.50000000 0.00000000 0.15000000
v 0.50000000 0.00000000 0.50000000
v 0.50000000 -0.20000000 0.50000000
v 0.50000000 -0.20000000 0.12500000
v 0.50000000 -0.20000000 0.02500000
v -0.50000000 0.00000000 0.50000000
v -0.50000000 -0.20000000 0.50000000
v -0.50000000 0.00000000 -0.50000000
v -0.50000000 -0.20000000 -0.50000000
v 0.50000000 0.00000000 -0.50000000
v 0.50000000 -0.20000000 -0.50000000
v -0.15000000 0.00000000 0.15000000
v -0.15000000 0.00000000 -0.15000000
v 0.50000000 0.00000000 -0.15000000
v -0.12500000 -0.02500000 0.12500000
v -0.12500000 -0.02500000 -0.12500000
v 0.50000000 -0.02500000 -0.12500000
v 0.50000000 -0.20000000 -0.12500000
vt 0.00000000 0.00000000
vt 1.00000000 0.00000000
vt 1.00000000 1.00000000
vt 0.00000000 1.00000000
vt 1.00000000 0.00000000
vt 1.00000000 1.00000000
vt 0.00000000 1.00000000
vt 0.00000000 0.00000000
vt 0.04545455 0.00000000
vt 1.00000000 0.00000000
vt 1.00000000 1.00000000
vt 0.00000000 1.00000000
vt 1.00000000 0.00000000
vt 1.00000000 1.00000000
vt 0.75000000 1.00000000
vt 0.75000000 0.08333333
vt 0.25000000 0.08333333
vt 0.25000000 1.00000000
vt 0.00000000 1.00000000
vt 0.00000000 0.00000000
vt 0.00000000 0.00000000
vt 1.00000000 0.00000000
vt 1.00000000 1.00000000
vt 0.04545455 1.00000000
vt 0.00000000 0.84210526
vt 0.12500000 0.78947368
vt 0.00000000 0.73684211
vt 0.00000000 0.00000000
vt 1.00000000 0.00000000
vt 1.00000000 0.78947368
vt 1.00000000 1.00000000
vt 0.12500000 1.00000000
vt 0.00000000 0.94736842
vt 0.00000000 1.00000000
vt 0.00000000 0.00000000
vt 1.00000000 0.00000000
vt 1.00000000 1.00000000
vt 0.00000000 1.00000000
vt 0.00000000 0.00000000
vt 1.00000000 0.00000000
vt 1.00000000 1.00000000
vt 0.00000000 1.00000000
vt 0.00000000 0.00000000
vt 1.00000000 0.00000000
vt 1.00000000 1.00000000
vt 0.35000000 0.65000000
vt 0.65000000 0.65000000
vt 0.65000000 0.00000000
vt 1.00000000 0.00000000
vt 1.00000000 1.00000000
vt 0.00000000 1.00000000
vt 0.00000000 0.00000000
vt 0.35000000 0.00000000
vt 0.00000000 1.00000000
vt 0.08333333 0.00000000
vt 0.91666667 0.00000000
vt 1.00000000 1.00000000
vt 0.00000000 1.00000000
vt 0.03846154 0.00000000
vt 1.00000000 0.00000000
vt 1.00000000 1.00000000
vt 0.03846154 1.00000000
vt 0.00000000 0.00000000
vt 1.00000000 0.00000000
vt 1.00000000 1.00000000
vt 0.00000000 0.00000000
vt 1.00000000 0.00000000
vt 1.00000000 1.00000000
vt 0.04000000 1.00000000
vt 0.00000000 1.00000000
vt 0.10000000 0.00000000
vt 0.90000000 0.00000000
vt 1.00000000 1.00000000
vt 0.04000000 0.00000000
vt 1.00000000 0.00000000
vt 1.00000000 1.00000000
vt 0.00000000 1.00000000
vt 0.00000000 1.00000000
vt 0.00000000 0.26315789
vt 0.12500000 0.21052632
vt 0.00000000 0.15789474
vt 0.00000000 0.05263158
vt 0.12500000 0.00000000
vt 1.00000000 0.00000000
vt 1.00000000 0.21052632
vt 1.00000000 1.00000000
vt 0.00000000 1.00000000
vt 0.00000000 0.00000000
vt 0.37500000 0.00000000
vt 0.47500000 0.00000000
vt 0.47500000 0.52500000
vt 0.52500000 0.52500000
vt 0.52500000 0.00000000
vt 0.62500000 0.00000000
vt 1.00000000 0.00000000
vt 1.00000000 1.00000000
vt 1.00000000 0.00000000
vt 1.00000000 1.00000000
vt 0.00000000 1.00000000
vt 0.00000000 0.00000000
vt 0.00000000 1.00000000
vt 0.25000000 0.00000000
vt 0.75000000 0.00000000
vt 1.00000000 1.00000000
vn 1.00000000 0.00000000 0.00000000
vn 1.00000000 0.00000000 0.00000000
vn 1.00000000 0.00000000 0.00000000
vn 1.00000000 0.00000000 0.00000000
vn 0.00000000 0.00000000 1.00000000
vn 0.00000000 0.00000000 1.00000000
vn 0.00000000 0.00000000 1.00000000
vn 0.00000000 0.00000000 1.00000000
vn -0.00000000 0.70710678 0.70710678
vn -0.00000000 0.70710678 0.70710678
vn -0.00000000 0.70710678 0.70710678
vn -0.00000000 0.70710678 0.70710678
vn 0.00000000 1.00000000 0.00000000
vn 0.00000000 1.00000000 0.00000000
vn 0.00000000 1.00000000 0.00000000
vn 0.00000000 1.00000000 0.00000000
vn 0.00000000 1.00000000 0.00000000
vn 0.00000000 1.00000000 0.00000000
vn 0.00000000 1.00000000 0.00000000
vn 0.00000000 1.00000000 0.00000000
vn 0.00000000 0.70710678 -0.70710678
vn 0.00000000 0.70710678 -0.70710678
vn 0.00000000 0.70710678 -0.70710678
vn 0.00000000 0.70710678 -0.70710678
vn 1.00000000 0.00000000 -0.00000000
vn 1.00000000 0.00000000 -0.00000000
vn 1.00000000 0.00000000 -0.00000000
vn 1.00000000 0.00000000 -0.00000000
vn 1.00000000 0.00000000 -0.00000000
vn 1.00000000 0.00000000 -0.00000000
vn 1.00000000 0.00000000 -0.00000000
vn 1.00000000 0.00000000 -0.00000000
vn 1.00000000 0.00000000 -0.00000000
vn 0.00000000 0.00000000 1.00000000
vn 0.00000000 0.00000000 1.00000000
vn 0.00000000 0.00000000 1.00000000
vn 0.00000000 0.00000000 1.00000000
vn -1.00000000 0.00000000 0.00000000
vn -1.00000000 0.00000000 0.00000000
vn -1.00000000 0.00000000 0.00000000
vn -1.00000000 0.00000000 0.00000000
vn 0.00000000 0.00000000 -1.00000000
vn 0.00000000 0.00000000 -1.00000000
vn 0.00000000 0.00000000 -1.00000000
vn 0.00000000 0.00000000 -1.00000000
vn 0.00000000 1.00000000 0.00000000
vn 0.00000000 1.00000000 0.00000000
vn 0.00000000 1.00000000 0.00000000
vn 0.00000000 1.00000000 0.00000000
vn 0.00000000 1.00000000 0.00000000
vn 0.00000000 1.00000000 0.00000000
vn 0.00000000 1.00000000 0.00000000
vn 0.00000000 1.00000000 0.00000000
vn 0.70710678 0.70710678 0.00000000
vn 0.70710678 0.70710678 0.00000000
vn 0.70710678 0.70710678 0.00000000
vn 0.70710678 0.70710678 0.00000000
vn 0.00000000 0.70710678 0.70710678
vn 0.00000000 0.70710678 0.70710678
vn 0.00000000 0.70710678 0.70710678
vn 0.00000000 0.70710678 0.70710678
vn -0.00000000 0.70710678 -0.70710678
vn -0.00000000 0.70710678 -0.70710678
vn -0.00000000 0.70710678 -0.70710678
vn -0.00000000 0.70710678 -0.70710678
vn 0.00000000 0.70710678 0.70710678
vn 0.00000000 0.70710678 0.70710678
vn 0.00000000 0.70710678 0.70710678
vn 0.00000000 0.70710678 0.70710678
vn -0.70710678 0.70710678 -0.00000000
vn -0.70710678 0.70710678 -0.00000000
vn -0.70710678 0.70710678 -0.00000000
vn -0.70710678 0.70710678 -0.00000000
vn -0.00000000 0.70710678 -0.70710678
vn -0.00000000 0.70710678 -0.70710678
vn -0.00000000 0.70710678 -0.70710678
vn -0.00000000 0.70710678 -0.70710678
vn 1.00000000 0.00000000 0.00000000
vn 1.00000000 0.00000000 0.00000000
vn 1.00000000 0.00000000 0.00000000
vn 1.00000000 0.00000000 0.00000000
vn 1.00000000 0.00000000 0.00000000
vn 1.00000000 0.00000000 0.00000000
vn 1.00000000 0.00000000 0.00000000
vn 1.00000000 0.00000000 0.00000000
vn 1.00000000 0.00000000 0.00000000
vn 0.00000000 -1.00000000 0.00000000
vn 0.00000000 -1.00000000 0.00000000
vn 0.00000000 -1.00000000 0.00000000
vn 0.00000000 -1.00000000 0.00000000
vn 0.00000000 -1.00000000 0.00000000
vn 0.00000000 -1.00000000 0.00000000
vn 0.00000000 -1.00000000 0.00000000
vn 0.00000000 -1.00000000 0.00000000
vn 0.00000000 -1.00000000 0.00000000
vn 0.00000000 -1.00000000 0.00000000
vn 0.00000000 0.00000000 -1.00000000
vn 0.00000000 0.00000000 -1.00000000
vn 0.00000000 0.00000000 -1.00000000
vn 0.00000000 0.00000000 -1.00000000
vn 0.70710678 0.70710678 0.00000000
vn 0.70710678 0.70710678 0.00000000
vn 0.70710678 0.70710678 0.00000000
vn 0.70710678 0.70710678 0.00000000
s 1
usemtl Grey
f 4/4/4 3/3/3 1/1/1
f 3/3/3 2/2/2 1/1/1
s 2
f 4/8/8 6/7/7 3/5/5
f 6/7/7 5/6/6 3/5/5
s 3
f 3/9/9 5/10/10 7/11/11
f 3/9/9 7/11/11 8/12/12
s 4
f 8/16/16 7/15/15 10/14/14
f 11/17/17 8/16/16 9/13/13
f 14/20/20 13/19/19 11/17/17
f 11/17/17 9/13/13 14/20/20
f 13/19/19 12/18/18 11/17/17
f 8/16/16 10/14/14 9/13/13
s 5
f 11/21/21 12/22/22 2/24/24
f 12/22/22 15/23/23 2/24/24
s 6
usemtl Dark_Grey
f 15/32/32 12/33/33 13/25/25
f 20/30/30 15/32/32 16/26/26
f 16/26/26 17/27/27 19/29/29
f 17/27/27 18/28/28 19/29/29
f 19/29/29 20/30/30 16/26/26
f 20/30/30 21/31/31 15/32/32
f 15/32/32 13/25/25 16/26/26
s 7
f 18/34/34 22/35/35 19/37/37
f 22/35/35 23/36/36 19/37/37
s 8
f 22/38/38 24/39/39 23/41/41
f 24/39/39 25/40/40 23/41/41
s 9
f 24/42/42 26/43/43 25/45/45
f 26/43/43 27/44/44 25/45/45
s 10
f 18/52/52 17/53/53 28/46/46
f 22/51/51 28/46/46 29/47/47
f 29/47/47 26/49/49 24/50/50
f 29/47/47 30/48/48 26/49/49
f 24/50/50 22/51/51 29/47/47
f 22/51/51 18/52/52 28/46/46
s 11
f 28/54/54 31/55/55 32/56/56
f 28/54/54 32/56/56 29/57/57
s 12
f 29/58/58 32/59/59 30/61/61
f 32/59/59 33/60/60 30/61/61
s 13
f 31/62/62 28/63/63 17/64/64
f 31/62/62 17/64/64 16/65/65
s 14
usemtl Grey
f 31/66/66 16/67/67 14/69/69
f 16/67/67 13/68/68 14/69/69
s 15
f 31/70/70 14/71/71 9/72/72
f 31/70/70 9/72/72 32/73/73
s 16
f 9/74/74 10/75/75 33/76/76
f 9/74/74 33/76/76 32/77/77
s 17
usemtl Dark_Grey
f 10/81/81 7/82/82 5/83/83
f 33/80/80 5/83/83 6/84/84
f 30/79/79 33/80/80 27/86/86
f 27/86/86 26/78/78 30/79/79
f 33/80/80 34/85/85 27/86/86
f 33/80/80 6/84/84 34/85/85
f 33/80/80 10/81/81 5/83/83
s 18
f 34/94/94 6/93/93 4/92/92
f 25/96/96 4/92/92 1/91/91
f 1/91/91 19/88/88 23/87/87
f 1/91/91 20/89/89 19/88/88
f 1/91/91 21/90/90 20/89/89
f 1/91/91 23/87/87 25/96/96
f 25/96/96 27/95/95 4/92/92
f 27/95/95 34/94/94 4/92/92
s 19
usemtl Grey
f 2/97/97 15/98/98 1/100/100
f 15/98/98 21/99/99 1/100/100
s 20
f 11/101/101 2/102/102 3/103/103
f 11/101/101 3/103/103 8/104/104

